<svg xmlns="http://www.w3.org/2000/svg" xmlns:xlink="http://www.w3.org/1999/xlink" width="1366" height="304" viewBox="0 0 1366 304">
  <defs>
    <clipPath id="clip-path">
      <rect id="Rectangle_1758" data-name="Rectangle 1758" width="1366" height="304" transform="translate(0 90)" fill="#fff"/>
    </clipPath>
    <linearGradient id="linear-gradient" x1="0.525" y1="0.71" x2="-0.27" y2="0.97" gradientUnits="objectBoundingBox">
      <stop offset="0" stop-color="#8ccc54"/>
      <stop offset="1" stop-color="#28af52"/>
    </linearGradient>
    <linearGradient id="linear-gradient-2" x1="0.853" y1="0.564" x2="0.029" y2="1.165" xlink:href="#linear-gradient"/>
    <linearGradient id="linear-gradient-3" x1="0.807" y1="0.5" x2="-0.194" y2="0.848" xlink:href="#linear-gradient"/>
    <filter id="Ellipse_207" x="73" y="160" width="67" height="68" filterUnits="userSpaceOnUse">
      <feOffset dy="3" input="SourceAlpha"/>
      <feGaussianBlur stdDeviation="4" result="blur"/>
      <feFlood flood-color="#8ccc54" flood-opacity="0.502"/>
      <feComposite operator="in" in2="blur"/>
      <feComposite in="SourceGraphic"/>
    </filter>
    <filter id="Ellipse_208" x="1206" y="166" width="112" height="113" filterUnits="userSpaceOnUse">
      <feOffset dy="3" input="SourceAlpha"/>
      <feGaussianBlur stdDeviation="4" result="blur-2"/>
      <feFlood flood-color="#8ccc54" flood-opacity="0.502"/>
      <feComposite operator="in" in2="blur-2"/>
      <feComposite in="SourceGraphic"/>
    </filter>
  </defs>
  <g id="Mask_Group_9" data-name="Mask Group 9" transform="translate(0 -90)" clip-path="url(#clip-path)">
    <g id="Group_4607" data-name="Group 4607" transform="translate(22857 19035)">
      <path id="Path_702" data-name="Path 702" d="M479.5,0C744.321,0,959,214.232,959,478.5S744.321,957,479.5,957,0,742.768,0,478.5,214.679,0,479.5,0Z" transform="translate(-21779 -19575)" opacity="0.03" fill="url(#linear-gradient)"/>
      <circle id="Ellipse_205" data-name="Ellipse 205" cx="362.5" cy="362.5" r="362.5" transform="translate(-23107 -19424)" fill="#c1f693" opacity="0.08"/>
      <ellipse id="Ellipse_206" data-name="Ellipse 206" cx="212.5" cy="213" rx="212.5" ry="213" transform="translate(-23121 -19166)" fill="url(#linear-gradient-2)"/>
      <g transform="matrix(1, 0, 0, 1, -22857, -18945)" filter="url(#Ellipse_207)">
        <ellipse id="Ellipse_207-2" data-name="Ellipse 207" cx="21.5" cy="22" rx="21.5" ry="22" transform="translate(85 169)" fill="url(#linear-gradient-3)"/>
      </g>
      <g transform="matrix(1, 0, 0, 1, -22857, -18945)" filter="url(#Ellipse_208)">
        <ellipse id="Ellipse_208-2" data-name="Ellipse 208" cx="26" cy="26.5" rx="26" ry="26.5" transform="translate(1236 193)" opacity="0.7" fill="url(#linear-gradient-3)"/>
      </g>
    </g>
  </g>
</svg>
