<svg xmlns="http://www.w3.org/2000/svg" width="88.777" height="79.953" viewBox="0 0 88.777 79.953">
  <g id="Group_2483" data-name="Group 2483" transform="translate(-0.134 -1.91)">
    <path id="Path_359" data-name="Path 359" d="M86.523,47.738C77.126,33.35,78.125,18.6,73.6,11.667S55.567-7.224,23.672,13.61-.11,57.09,4.874,64.715C28.2,100.424,103.167,73.22,86.523,47.738Z" transform="translate(0 0)" fill="#efefef"/>
    <path id="Path_360" data-name="Path 360" d="M30.923,18.5h2.485a2.486,2.486,0,0,1,2.485,2.485v7.454h7.454a2.486,2.486,0,0,1,2.485,2.485v2.485a2.486,2.486,0,0,1-2.485,2.485H35.892v7.454a2.486,2.486,0,0,1-2.485,2.485H30.923a2.486,2.486,0,0,1-2.485-2.485V35.892H20.985A2.486,2.486,0,0,1,18.5,33.408V30.923a2.486,2.486,0,0,1,2.485-2.485h7.454V20.985A2.486,2.486,0,0,1,30.923,18.5Z" transform="translate(27.265 24.629)" fill="#8ccc54"/>
    <path id="Path_361" data-name="Path 361" d="M43.769,25.134a15.531,15.531,0,0,1-.124,1.814l-.149.969c-.05.3-.124.646-.2.969C41.16,38.1,32.29,49.956,27.793,55.521c-.422.5-.77.919-1.093,1.317-.174.2-.323.373-.447.547-.721.82-1.118,1.292-1.118,1.292s-.4-.472-1.118-1.292c-.124-.174-.273-.348-.447-.547-.323-.373-.7-.82-1.093-1.317-4.5-5.565-13.367-17.417-15.5-26.635-.075-.323-.149-.646-.2-.969l-.149-.969A15.173,15.173,0,0,1,6.5,25.134a18.634,18.634,0,1,1,37.269,0Z" transform="translate(9.45 6.814)" fill="#f3f3f1"/>
    <circle id="Ellipse_25" data-name="Ellipse 25" cx="8.696" cy="8.696" r="8.696" transform="translate(25.889 23.252)" fill="#8ccc54"/>
    <path id="Path_362" data-name="Path 362" d="M25.954,29.954H20.985A2.492,2.492,0,0,1,18.5,27.469V24.985A2.492,2.492,0,0,1,20.985,22.5h4.969a2.492,2.492,0,0,0-2.485,2.485v2.485A2.492,2.492,0,0,0,25.954,29.954Z" transform="translate(27.265 30.567)" fill="#28af52"/>
    <path id="Path_363" data-name="Path 363" d="M21.681,27.519a8.241,8.241,0,0,1-2.485.373,8.7,8.7,0,0,1,0-17.392,8.242,8.242,0,0,1,2.485.373,8.682,8.682,0,0,0,0,16.647Z" transform="translate(15.389 12.752)" fill="#28af52"/>
    <path id="Path_364" data-name="Path 364" d="M27.445,55.521a1.366,1.366,0,0,1,.174.224c-.348.4-.646.77-.919,1.093-.174.2-.323.373-.447.547-.721.82-1.118,1.292-1.118,1.292s-.4-.472-1.118-1.292c-.124-.174-.273-.348-.447-.547-.323-.373-.7-.82-1.093-1.317-4.5-5.565-13.367-17.417-15.5-26.635-.075-.323-.149-.646-.2-.969l-.149-.969A15.172,15.172,0,0,1,6.5,25.134,18.641,18.641,0,0,1,25.134,6.5a16.479,16.479,0,0,1,2.485.174,18.635,18.635,0,0,0-16.15,18.461,15.173,15.173,0,0,0,.124,1.814l.149.969c.05.323.124.646.2.969C14.078,38.1,22.948,49.956,27.445,55.521Z" transform="translate(9.45 6.814)" fill="#d5dbe1"/>
    <path id="Path_365" data-name="Path 365" d="M34.521,48.807H32.036a4.353,4.353,0,0,1-4.348-4.348v-5.59H22.1a4.353,4.353,0,0,1-4.348-4.348V32.036A4.353,4.353,0,0,1,22.1,27.688h5.59V22.1a4.353,4.353,0,0,1,4.348-4.348h2.485A4.353,4.353,0,0,1,38.869,22.1v5.59h5.59a4.353,4.353,0,0,1,4.348,4.348v2.485a4.353,4.353,0,0,1-4.348,4.348h-5.59v5.59A4.353,4.353,0,0,1,34.521,48.807ZM22.1,31.415a.621.621,0,0,0-.621.621v2.485a.621.621,0,0,0,.621.621h7.454a1.864,1.864,0,0,1,1.863,1.863v7.454a.621.621,0,0,0,.621.621h2.485a.621.621,0,0,0,.621-.621V37.006a1.864,1.864,0,0,1,1.863-1.863h7.454a.621.621,0,0,0,.621-.621V32.036a.621.621,0,0,0-.621-.621H37.006a1.864,1.864,0,0,1-1.863-1.863V22.1a.621.621,0,0,0-.621-.621H32.036a.621.621,0,0,0-.621.621v7.454a1.864,1.864,0,0,1-1.863,1.863Z" transform="translate(26.152 23.516)" fill="#17283c"/>
    <path id="Path_366" data-name="Path 366" d="M26.248,61.653a1.865,1.865,0,0,1-1.4-.631c-.778-.882-19.1-21.795-19.1-34.774a20.5,20.5,0,0,1,41,0,21.25,21.25,0,0,1-1.106,6.328l-3.553-1.128a17.531,17.531,0,0,0,.932-5.2,16.771,16.771,0,0,0-33.542,0c0,9.663,12.515,25.542,16.771,30.662.678-.82,1.568-1.913,2.579-3.21l2.942,2.288c-2.368,3.044-4.052,4.954-4.124,5.034A1.856,1.856,0,0,1,26.248,61.653Z" transform="translate(8.337 5.7)" fill="#17283c"/>
    <path id="Path_367" data-name="Path 367" d="M20.31,30.869a10.56,10.56,0,1,1,10.56-10.56A10.573,10.573,0,0,1,20.31,30.869Zm0-17.392a6.833,6.833,0,1,0,6.833,6.833A6.838,6.838,0,0,0,20.31,13.477Z" transform="translate(14.275 11.639)" fill="#17283c"/>
    <g id="Group_2482" data-name="Group 2482" transform="translate(58.969 5.633)">
      <path id="Path_368" data-name="Path 368" d="M0,0H2.485V4.969H0Z" transform="translate(0.441 1.757) rotate(-45)" fill="#a4afc1"/>
      <path id="Path_369" data-name="Path 369" d="M0,0H2.485V4.969H0Z" transform="translate(10.542 11.859) rotate(-45)" fill="#a4afc1"/>
      <path id="Path_370" data-name="Path 370" d="M0,0H4.969V2.485H0Z" transform="translate(0 13.615) rotate(-45)" fill="#a4afc1"/>
      <path id="Path_371" data-name="Path 371" d="M0,0H4.969V2.485H0Z" transform="translate(10.102 3.514) rotate(-45)" fill="#a4afc1"/>
    </g>
  </g>
</svg>
