<svg xmlns="http://www.w3.org/2000/svg" width="82.036" height="74" viewBox="0 0 82.036 74">
  <g id="Group_2438" data-name="Group 2438" transform="translate(-0.584 -2.29)">
    <path id="Path_329" data-name="Path 329" d="M9.023,61.954C9.023,45.663.584,34.476.584,26.626S5.1,2.29,41.209,2.29,82.62,24.469,82.62,33.1C82.622,73.535,9.023,90.805,9.023,61.954Z" transform="translate(0)" fill="#efefef"/>
    <path id="Path_330" data-name="Path 330" d="M33.533,26.066a3.533,3.533,0,1,1,3.533-3.533A3.537,3.537,0,0,1,33.533,26.066Zm0-4.71a1.178,1.178,0,1,0,1.178,1.178A1.181,1.181,0,0,0,33.533,21.355Z" transform="translate(39.864 22.645)" fill="#a4afc1"/>
    <path id="Path_331" data-name="Path 331" d="M33.809,11.25H20.773a2.392,2.392,0,0,0-1.905.961C11.048,22.717,6.75,30.972,6.75,39.072c0,7.252,3.839,14.574,12.414,14.574H33.738c7.325,0,11.875-5.584,11.875-14.574,0-8.01-4.228-17.692-9.783-26.7A2.375,2.375,0,0,0,33.809,11.25Z" transform="translate(8.356 12.143)" fill="#f3f3f1"/>
    <g id="Group_2437" data-name="Group 2437" transform="translate(21.19 12.205)">
      <path id="Path_332" data-name="Path 332" d="M36.107,6.5H11.688a2.355,2.355,0,0,0-1.8,3.877l7.374,7.311H30.53L37.9,10.377a2.355,2.355,0,0,0-1.8-3.877Z" transform="translate(-9.333 -6.5)" fill="#8ccc54"/>
      <circle id="Ellipse_16" data-name="Ellipse 16" cx="2.944" cy="2.944" r="2.944" transform="translate(41.02 0.589)" fill="#8ccc54"/>
      <circle id="Ellipse_17" data-name="Ellipse 17" cx="2.944" cy="2.944" r="2.944" transform="translate(31.6 12.365)" fill="#8ccc54"/>
      <circle id="Ellipse_18" data-name="Ellipse 18" cx="2.944" cy="2.944" r="2.944" transform="translate(17.468 5.299)" fill="#8ccc54"/>
    </g>
    <path id="Path_333" data-name="Path 333" d="M12.049,39.071c0-8.1,4.3-16.354,12.117-26.861a2.392,2.392,0,0,1,1.905-.961h-5.3a2.392,2.392,0,0,0-1.905.961C11.048,22.716,6.75,30.971,6.75,39.071c0,7.252,3.839,14.574,12.414,14.574h5.3C15.888,53.645,12.049,46.325,12.049,39.071Z" transform="translate(8.356 12.141)" fill="#d5dbe1"/>
    <path id="Path_334" data-name="Path 334" d="M14.632,8.855A2.356,2.356,0,0,1,16.987,6.5h-5.3a2.355,2.355,0,0,0-1.8,3.877l7.374,7.311h5.3L15.19,10.377a2.342,2.342,0,0,1-.558-1.521Z" transform="translate(11.857 5.705)" fill="#28af52"/>
    <path id="Path_335" data-name="Path 335" d="M32.049,9.694a2.88,2.88,0,0,1,.294-1.239,2.944,2.944,0,1,0,0,2.478A2.881,2.881,0,0,1,32.049,9.694Z" transform="translate(35.46 6.044)" fill="#28af52"/>
    <path id="Path_336" data-name="Path 336" d="M28.049,14.694a2.88,2.88,0,0,1,.294-1.239,2.944,2.944,0,1,0,0,2.478A2.88,2.88,0,0,1,28.049,14.694Z" transform="translate(30.039 12.82)" fill="#28af52"/>
    <path id="Path_337" data-name="Path 337" d="M22.049,11.694a2.88,2.88,0,0,1,.294-1.239,2.944,2.944,0,1,0,0,2.478A2.88,2.88,0,0,1,22.049,11.694Z" transform="translate(21.908 8.755)" fill="#28af52"/>
    <path id="Path_338" data-name="Path 338" d="M30.71,15.421a4.71,4.71,0,1,1,4.71-4.71A4.715,4.715,0,0,1,30.71,15.421Zm0-5.888a1.178,1.178,0,1,0,1.178,1.178A1.181,1.181,0,0,0,30.71,9.533Z" transform="translate(34.444 5.028)" fill="#17283c"/>
    <path id="Path_339" data-name="Path 339" d="M26.71,20.421a4.71,4.71,0,1,1,4.71-4.71A4.715,4.715,0,0,1,26.71,20.421Zm0-5.888a1.178,1.178,0,1,0,1.178,1.178A1.181,1.181,0,0,0,26.71,14.533Z" transform="translate(29.023 11.804)" fill="#17283c"/>
    <path id="Path_340" data-name="Path 340" d="M20.71,17.421a4.71,4.71,0,1,1,4.71-4.71A4.715,4.715,0,0,1,20.71,17.421Zm0-5.888a1.178,1.178,0,1,0,1.178,1.178A1.181,1.181,0,0,0,20.71,11.533Z" transform="translate(20.892 7.738)" fill="#17283c"/>
    <path id="Path_341" data-name="Path 341" d="M0,0H8.078V3.533H0Z" transform="translate(56.561 23.654) rotate(-51.412)" fill="#17283c"/>
    <path id="Path_342" data-name="Path 342" d="M0,0H3.535V8.785H0Z" transform="translate(43.955 23.58) rotate(-63.589)" fill="#17283c"/>
    <path id="Path_343" data-name="Path 343" d="M18.163,19.745l-8.005-6.406A4.119,4.119,0,0,1,12.72,6H23.436V9.533H12.72a.539.539,0,0,0-.544.393.547.547,0,0,0,.188.65l8.008,6.408Z" transform="translate(10.865 5.028)" fill="#17283c"/>
    <path id="Path_344" data-name="Path 344" d="M9,10.5H20.776v3.533H9Z" transform="translate(11.405 11.126)" fill="#17283c"/>
    <path id="Path_345" data-name="Path 345" d="M19.283,33.986H12.5V30.454h6.783a1.472,1.472,0,0,0,0-2.944h-1.79a5,5,0,0,1,0-10.01h6.783v3.533H17.493a1.472,1.472,0,0,0,0,2.944h1.79a5,5,0,0,1,0,10.01Z" transform="translate(16.148 20.612)" fill="#17283c"/>
    <path id="Path_346" data-name="Path 346" d="M14.25,16h3.533v7.066H14.25Z" transform="translate(18.52 18.58)" fill="#17283c"/>
    <path id="Path_347" data-name="Path 347" d="M14.25,23h3.533v7.066H14.25Z" transform="translate(18.52 28.066)" fill="#17283c"/>
    <path id="Path_348" data-name="Path 348" d="M35.44,56.285h-15.9C10.188,56.285,6,48.3,6,40.388,6,29.394,13.287,15.477,21.591,10.6l1.79,3.045c-7.247,4.251-13.849,17-13.849,26.738,0,5.7,2.621,12.365,10.01,12.365h15.9c8.5,0,9.421-8.648,9.421-12.365a34.644,34.644,0,0,0-3.754-14.44l3.175-1.55a38.285,38.285,0,0,1,4.112,15.989c0,9.8-4.962,15.9-12.954,15.9Z" transform="translate(7.34 11.267)" fill="#17283c"/>
  </g>
</svg>
