<svg xmlns="http://www.w3.org/2000/svg" width="88.829" height="80" viewBox="0 0 88.829 80">
  <g id="Group_2435" data-name="Group 2435" transform="translate(-0.135 -1.91)">
    <path id="Path_318" data-name="Path 318" d="M86.573,47.765c-9.4-14.4-8.4-29.154-12.935-36.093S55.6-7.229,23.686,13.616-.11,57.122,4.877,64.752C28.216,100.482,103.227,73.262,86.573,47.765Z" transform="translate(0 0)" fill="#efefef"/>
    <circle id="Ellipse_15" data-name="Ellipse 15" cx="11.187" cy="11.187" r="11.187" transform="translate(25.904 13.321)" fill="#8ccc54"/>
    <path id="Path_319" data-name="Path 319" d="M48.614,28.444v9.944H6.5V28.444A9.916,9.916,0,0,1,14.455,18.7a6.536,6.536,0,0,1,.97-.149c.3-.025.572-.05.87-.05H38.67c.348,0,.671.025,1.019.05a6.537,6.537,0,0,1,.97.149,9.916,9.916,0,0,1,7.955,9.745Z" transform="translate(9.46 24.653)" fill="#f3f3f1"/>
    <path id="Path_320" data-name="Path 320" d="M7.56,21.439a9.574,9.574,0,0,1,5.32-2.859,10.006,10.006,0,0,0-5.246,2.909Z" transform="translate(11.035 24.772)" fill="#2fdf84"/>
    <path id="Path_321" data-name="Path 321" d="M30.93,18.5h2.486A2.487,2.487,0,0,1,35.9,20.986v7.458h7.458a2.487,2.487,0,0,1,2.486,2.486v2.486A2.487,2.487,0,0,1,43.361,35.9H35.9v7.458a2.487,2.487,0,0,1-2.486,2.486H30.93a2.487,2.487,0,0,1-2.486-2.486V35.9H20.986A2.487,2.487,0,0,1,18.5,33.416V30.93a2.487,2.487,0,0,1,2.486-2.486h7.458V20.986A2.487,2.487,0,0,1,30.93,18.5Z" transform="translate(27.292 24.653)" fill="#8ccc54"/>
    <path id="Path_322" data-name="Path 322" d="M24.173,28.6a11.719,11.719,0,0,1-2.486.273,11.187,11.187,0,0,1,0-22.374,11.719,11.719,0,0,1,2.486.273,11.2,11.2,0,0,0,0,21.828Z" transform="translate(15.404 6.821)" fill="#28af52"/>
    <path id="Path_323" data-name="Path 323" d="M25.958,29.958H20.986A2.493,2.493,0,0,1,18.5,27.472V24.986A2.493,2.493,0,0,1,20.986,22.5h4.972a2.493,2.493,0,0,0-2.486,2.486v2.486A2.493,2.493,0,0,0,25.958,29.958Z" transform="translate(27.292 30.597)" fill="#28af52"/>
    <path id="Path_324" data-name="Path 324" d="M21.267,18.5c-.3,0-.572.025-.87.05a6.537,6.537,0,0,0-.97.149,9.916,9.916,0,0,0-7.955,9.745v9.944H6.5V28.444A9.916,9.916,0,0,1,14.455,18.7a6.536,6.536,0,0,1,.97-.149c.3-.025.572-.05.87-.05Z" transform="translate(9.46 24.653)" fill="#d5dbe1"/>
    <path id="Path_325" data-name="Path 325" d="M22.8,31.854A13.052,13.052,0,1,1,35.854,18.8,13.066,13.066,0,0,1,22.8,31.854Zm0-22.374A9.323,9.323,0,1,0,32.124,18.8,9.334,9.334,0,0,0,22.8,9.479Z" transform="translate(14.289 5.706)" fill="#17283c"/>
    <path id="Path_326" data-name="Path 326" d="M29.989,41.367H7.615A1.865,1.865,0,0,1,5.75,39.5V29.559A11.823,11.823,0,0,1,17.559,17.75H39.933v3.729H17.559a8.089,8.089,0,0,0-8.08,8.08v8.08h20.51Z" transform="translate(8.345 23.539)" fill="#17283c"/>
    <path id="Path_327" data-name="Path 327" d="M34.531,48.826H32.045a4.355,4.355,0,0,1-4.351-4.351V38.881H22.1a4.355,4.355,0,0,1-4.351-4.351V32.045A4.355,4.355,0,0,1,22.1,27.694h5.594V22.1a4.355,4.355,0,0,1,4.351-4.351h2.486A4.355,4.355,0,0,1,38.881,22.1v5.594h5.594a4.355,4.355,0,0,1,4.351,4.351v2.486a4.355,4.355,0,0,1-4.351,4.351H38.881v5.594A4.355,4.355,0,0,1,34.531,48.826ZM22.1,31.423a.622.622,0,0,0-.622.622v2.486a.622.622,0,0,0,.622.622h7.458a1.865,1.865,0,0,1,1.865,1.865v7.458a.622.622,0,0,0,.622.622h2.486a.622.622,0,0,0,.622-.622V37.017a1.865,1.865,0,0,1,1.865-1.865h7.458a.622.622,0,0,0,.622-.622V32.045a.622.622,0,0,0-.622-.622H37.017a1.865,1.865,0,0,1-1.865-1.865V22.1a.622.622,0,0,0-.622-.622H32.045a.622.622,0,0,0-.622.622v7.458a1.865,1.865,0,0,1-1.865,1.865Z" transform="translate(26.178 23.539)" fill="#17283c"/>
    <path id="Path_328" data-name="Path 328" d="M8.729,19.458a3.729,3.729,0,1,1,3.729-3.729A3.734,3.734,0,0,1,8.729,19.458Zm0-4.972a1.243,1.243,0,1,0,1.243,1.243A1.245,1.245,0,0,0,8.729,14.486Z" transform="translate(7.231 14.994)" fill="#a4afc1"/>
  </g>
</svg>
