<svg xmlns="http://www.w3.org/2000/svg" width="88.687" height="80" viewBox="0 0 88.687 80">
  <g id="Group_2438" data-name="Group 2438" transform="translate(-0.584 -2.289)">
    <path id="Path_329" data-name="Path 329" d="M9.707,66.791C9.707,49.179.584,37.085.584,28.6S5.462,2.29,44.5,2.29,89.271,26.267,89.271,35.6C89.273,79.31,9.707,97.981,9.707,66.791Z" transform="translate(0 0)" fill="#efefef"/>
    <path id="Path_330" data-name="Path 330" d="M33.819,26.638a3.819,3.819,0,1,1,3.819-3.819A3.824,3.824,0,0,1,33.819,26.638Zm0-5.092a1.273,1.273,0,1,0,1.273,1.273A1.277,1.277,0,0,0,33.819,21.546Z" transform="translate(45.481 25.836)" fill="#a4afc1"/>
    <path id="Path_331" data-name="Path 331" d="M36,11.25H21.91a2.585,2.585,0,0,0-2.06,1.039C11.4,23.647,6.75,32.571,6.75,41.327c0,7.84,4.15,15.755,13.421,15.755H35.926c7.918,0,12.838-6.037,12.838-15.755,0-8.659-4.57-19.126-10.577-28.865A2.567,2.567,0,0,0,36,11.25Z" transform="translate(9.533 13.853)" fill="#f3f3f1"/>
    <g id="Group_2437" data-name="Group 2437" transform="translate(22.86 13.009)">
      <path id="Path_332" data-name="Path 332" d="M38.277,6.5h-26.4a2.545,2.545,0,0,0-1.943,4.191l7.972,7.9h14.34l7.972-7.9A2.545,2.545,0,0,0,38.277,6.5Z" transform="translate(-9.333 -6.5)" fill="#8ccc54"/>
      <circle id="Ellipse_16" data-name="Ellipse 16" cx="3.183" cy="3.183" r="3.183" transform="translate(44.346 0.637)" fill="#8ccc54"/>
      <circle id="Ellipse_17" data-name="Ellipse 17" cx="3.183" cy="3.183" r="3.183" transform="translate(34.161 13.367)" fill="#8ccc54"/>
      <circle id="Ellipse_18" data-name="Ellipse 18" cx="3.183" cy="3.183" r="3.183" transform="translate(18.885 5.729)" fill="#8ccc54"/>
    </g>
    <path id="Path_333" data-name="Path 333" d="M12.479,41.326c0-8.756,4.647-17.68,13.1-29.039a2.585,2.585,0,0,1,2.06-1.039H21.91a2.585,2.585,0,0,0-2.06,1.039C11.4,23.646,6.75,32.57,6.75,41.326c0,7.84,4.15,15.755,13.421,15.755H25.9C16.629,57.082,12.479,49.168,12.479,41.326Z" transform="translate(9.533 13.852)" fill="#d5dbe1"/>
    <path id="Path_334" data-name="Path 334" d="M15.062,9.046A2.547,2.547,0,0,1,17.608,6.5H11.879a2.545,2.545,0,0,0-1.943,4.191l7.972,7.9h5.729l-7.972-7.9a2.532,2.532,0,0,1-.6-1.645Z" transform="translate(13.527 6.509)" fill="#28af52"/>
    <path id="Path_335" data-name="Path 335" d="M32.479,9.933A3.114,3.114,0,0,1,32.8,8.593a3.183,3.183,0,1,0,0,2.679A3.114,3.114,0,0,1,32.479,9.933Z" transform="translate(40.456 6.896)" fill="#28af52"/>
    <path id="Path_336" data-name="Path 336" d="M28.479,14.933a3.114,3.114,0,0,1,.318-1.339,3.183,3.183,0,1,0,0,2.679A3.114,3.114,0,0,1,28.479,14.933Z" transform="translate(34.271 14.626)" fill="#28af52"/>
    <path id="Path_337" data-name="Path 337" d="M22.479,11.933a3.114,3.114,0,0,1,.318-1.339,3.183,3.183,0,1,0,0,2.679A3.114,3.114,0,0,1,22.479,11.933Z" transform="translate(24.995 9.988)" fill="#28af52"/>
    <path id="Path_338" data-name="Path 338" d="M31.092,16.184a5.092,5.092,0,1,1,5.092-5.092A5.1,5.1,0,0,1,31.092,16.184Zm0-6.365a1.273,1.273,0,1,0,1.273,1.273A1.277,1.277,0,0,0,31.092,9.819Z" transform="translate(39.296 5.736)" fill="#17283c"/>
    <path id="Path_339" data-name="Path 339" d="M27.092,21.184a5.092,5.092,0,1,1,5.092-5.092A5.1,5.1,0,0,1,27.092,21.184Zm0-6.365a1.273,1.273,0,1,0,1.273,1.273A1.277,1.277,0,0,0,27.092,14.819Z" transform="translate(33.112 13.467)" fill="#17283c"/>
    <path id="Path_340" data-name="Path 340" d="M21.092,18.184a5.092,5.092,0,1,1,5.092-5.092A5.1,5.1,0,0,1,21.092,18.184Zm0-6.365a1.273,1.273,0,1,0,1.273,1.273A1.277,1.277,0,0,0,21.092,11.819Z" transform="translate(23.835 8.828)" fill="#17283c"/>
    <path id="Path_341" data-name="Path 341" d="M0,0H8.733V3.819H0Z" transform="translate(61.099 25.386) rotate(-51.412)" fill="#17283c"/>
    <path id="Path_342" data-name="Path 342" d="M0,0H3.822V9.5H0Z" transform="translate(47.471 25.306) rotate(-63.589)" fill="#17283c"/>
    <path id="Path_343" data-name="Path 343" d="M18.938,20.859l-8.654-6.925A4.453,4.453,0,0,1,13.054,6H24.639V9.819H13.054a.582.582,0,0,0-.588.425.591.591,0,0,0,.2.7l8.657,6.928Z" transform="translate(12.395 5.736)" fill="#17283c"/>
    <path id="Path_344" data-name="Path 344" d="M9,10.5H21.731v3.819H9Z" transform="translate(13.012 12.694)" fill="#17283c"/>
    <path id="Path_345" data-name="Path 345" d="M19.833,35.323H12.5V31.5h7.333a1.591,1.591,0,0,0,0-3.183H17.9a5.411,5.411,0,0,1,0-10.821h7.333v3.819H17.9a1.591,1.591,0,0,0,0,3.183h1.935a5.411,5.411,0,0,1,0,10.821Z" transform="translate(18.424 23.517)" fill="#17283c"/>
    <path id="Path_346" data-name="Path 346" d="M14.25,16h3.819v7.638H14.25Z" transform="translate(21.129 21.197)" fill="#17283c"/>
    <path id="Path_347" data-name="Path 347" d="M14.25,23h3.819v7.638H14.25Z" transform="translate(21.129 32.02)" fill="#17283c"/>
    <path id="Path_348" data-name="Path 348" d="M37.827,59.989H20.64C10.527,59.989,6,51.355,6,42.8c0-11.885,7.878-26.93,16.855-32.2L24.79,13.9C16.956,18.492,9.819,32.272,9.819,42.8c0,6.167,2.834,13.367,10.821,13.367H37.827c9.192,0,10.184-9.349,10.184-13.367a37.453,37.453,0,0,0-4.059-15.61l3.432-1.675A41.388,41.388,0,0,1,51.83,42.8c0,10.6-5.365,17.186-14,17.186Z" transform="translate(8.374 12.854)" fill="#17283c"/>
  </g>
</svg>
