<svg xmlns="http://www.w3.org/2000/svg" width="72.163" height="80" viewBox="0 0 72.163 80">
  <g id="Group_2436" data-name="Group 2436" transform="translate(-2.29 -0.584)">
    <path id="Path_302" data-name="Path 302" d="M16.27,8.813c15.887,0,26.8-8.229,34.451-8.229S74.453,4.985,74.453,40.2,52.825,80.584,44.405,80.584c-39.428,0-56.27-71.771-28.135-71.771Z" transform="translate(0 0)" fill="#efefef"/>
    <path id="Path_303" data-name="Path 303" d="M44.412,37.786H18L27.049,23.11a3.748,3.748,0,0,0,1.424,1.011L38.579,27.5a6.786,6.786,0,0,1,4.456,4.823Z" transform="translate(20.372 29.21)" fill="#8ccc54"/>
    <path id="Path_304" data-name="Path 304" d="M32.912,37.786H6.5L7.878,32.32A6.786,6.786,0,0,1,12.334,27.5l10.106-3.376a3.748,3.748,0,0,0,1.424-1.011Z" transform="translate(5.459 29.21)" fill="#8ccc54"/>
    <path id="Path_305" data-name="Path 305" d="M38.339,25.172a16.488,16.488,0,0,1-1.148,4.548s-1.148.3-1.148,2.274c0,2-2,4.341-3.629,5.7,0,.942,0,4.892,1.975,6.959L25.34,59.325,16.29,44.649c1.975-2.067,1.975-6.017,1.975-6.959-1.631-1.355-3.629-3.7-3.629-5.7,0-1.975-1.148-2.274-1.148-2.274a16.488,16.488,0,0,1-1.148-4.548s.3-1.148,1.148-1.148c0-1.194.23-3.468.23-6.821,0-4.088,5.145-10.7,11.621-10.7,6.362,0,8.888,3.675,8.888,5.007,0,.689,2.848.184,2.848,5.7v6.821c.85,0,1.263,1.148,1.263,1.148Z" transform="translate(13.032 7.672)" fill="#f3f3f1"/>
    <circle id="Ellipse_14" data-name="Ellipse 14" cx="4.593" cy="4.593" r="4.593" transform="translate(33.778 21.062)" fill="#8ccc54"/>
    <g id="Group_2432" data-name="Group 2432" transform="translate(11.959 21.062)">
      <path id="Path_306" data-name="Path 306" d="M30.586,24.833,22.593,37.786H18L27.049,23.11a3.748,3.748,0,0,0,1.424,1.011Z" transform="translate(8.412 8.149)" fill="#28af52"/>
      <path id="Path_307" data-name="Path 307" d="M24.92,24.833,16.927,27.5a6.786,6.786,0,0,0-4.456,4.823l-1.378,5.466H6.5L7.878,32.32A6.786,6.786,0,0,1,12.334,27.5l10.106-3.376a3.748,3.748,0,0,0,1.424-1.011Z" transform="translate(-6.5 8.149)" fill="#28af52"/>
      <path id="Path_308" data-name="Path 308" d="M22.89,18.067a4.593,4.593,0,1,1,0-7.947,4.585,4.585,0,0,0,0,7.947Z" transform="translate(5.819 -9.5)" fill="#28af52"/>
    </g>
    <path id="Path_309" data-name="Path 309" d="M20.884,44.649,27.636,55.6l-2.3,3.721L16.29,44.649c1.975-2.067,1.975-6.017,1.975-6.959-1.631-1.355-3.629-3.7-3.629-5.7,0-1.975-1.148-2.274-1.148-2.274a16.488,16.488,0,0,1-1.148-4.548s.3-1.148,1.148-1.148c0-1.194.23-3.468.23-6.821,0-4.088,5.145-10.7,11.621-10.7a14.468,14.468,0,0,1,2.572.23c-5.489,1.148-9.6,6.821-9.6,10.473,0,3.353-.23,5.627-.23,6.821-.85,0-1.148,1.148-1.148,1.148a16.488,16.488,0,0,0,1.148,4.548s1.148.3,1.148,2.274c0,2,2,4.341,3.629,5.7,0,.942,0,4.892-1.975,6.959Z" transform="translate(13.032 7.672)" fill="#d5dbe1"/>
    <path id="Path_310" data-name="Path 310" d="M20,10.75h6.89V14.2H20Z" transform="translate(22.965 13.183)" fill="#17283c"/>
    <path id="Path_311" data-name="Path 311" d="M13,10.75h6.89V14.2H13Z" transform="translate(13.888 13.183)" fill="#17283c"/>
    <path id="Path_312" data-name="Path 312" d="M21.566,21.382a6.316,6.316,0,1,1,6.316-6.316A6.321,6.321,0,0,1,21.566,21.382Zm0-9.187a2.871,2.871,0,1,0,2.871,2.871A2.875,2.875,0,0,0,21.566,12.2Z" transform="translate(16.806 10.589)" fill="#17283c"/>
    <path id="Path_313" data-name="Path 313" d="M60.3,62.021H7.473A1.726,1.726,0,0,1,5.8,59.879l1.369-5.471a8.51,8.51,0,0,1,5.593-6.038L22.865,45c1.247-.526,2.09-2.6,2.214-5.572-1.259-1.171-3.629-3.741-3.629-6.456a1.687,1.687,0,0,0-.11-.7,1.726,1.726,0,0,1-.9-.935,17.544,17.544,0,0,1-1.263-5.2,1.81,1.81,0,0,1,.051-.418,3.506,3.506,0,0,1,1.121-1.83c.011-.243.025-.51.041-.795.064-1.233.152-2.876.152-4.927,0-4.887,5.73-12.425,13.346-12.425,6.486,0,9.752,3.418,10.464,5.795,1.537.9,3,2.494,3,6.631V23.9A3.814,3.814,0,0,1,48.5,25.579a1.746,1.746,0,0,1,.094.565,17.565,17.565,0,0,1-1.263,5.2,1.711,1.711,0,0,1-.9.935,1.687,1.687,0,0,0-.11.7c0,2.715-2.37,5.282-3.629,6.456.124,2.977.976,5.051,2.331,5.616l9.989,3.323A8.509,8.509,0,0,1,60.6,54.41l1.369,5.469A1.726,1.726,0,0,1,60.3,62.021ZM9.68,58.576H58.09l-.831-3.33a5.088,5.088,0,0,0-3.339-3.608l-10.1-3.367c-3-1.245-4.584-4.639-4.584-9.6a1.722,1.722,0,0,1,.625-1.328c1.72-1.422,3.018-3.3,3.018-4.364a4.145,4.145,0,0,1,1.463-3.454,15.954,15.954,0,0,0,.774-2.871,1.721,1.721,0,0,1-1.206-1.644v-6.83c0-3.009-.891-3.459-1.422-3.728a2.226,2.226,0,0,1-1.429-1.964c-.131-.675-2.17-3.289-7.17-3.289-5.62,0-9.9,5.983-9.9,8.98,0,2.127-.09,3.829-.156,5.108-.039.719-.069,1.293-.069,1.723a1.724,1.724,0,0,1-1.1,1.608,15.8,15.8,0,0,0,.779,2.905A4.145,4.145,0,0,1,24.9,32.975c0,1.066,1.3,2.942,3.018,4.364a1.718,1.718,0,0,1,.625,1.328c0,4.963-1.585,8.358-4.467,9.559l-10.22,3.411a5.08,5.08,0,0,0-3.339,3.606ZM46.157,32.368h0A0,0,0,0,0,46.157,32.368Zm-24.543,0h0A0,0,0,0,1,21.614,32.368Zm24.55,0h0Zm-24.557,0h0Z" transform="translate(4.487 6.698)" fill="#17283c"/>
    <path id="Path_314" data-name="Path 314" d="M24.016,40.161a1.723,1.723,0,0,1-1.468-.82L13.361,24.412l2.933-1.805,7.722,12.545,7.719-12.545,2.933,1.805L25.481,39.341A1.716,1.716,0,0,1,24.016,40.161Z" transform="translate(14.356 28.558)" fill="#17283c"/>
    <path id="Path_315" data-name="Path 315" d="M0,0H2.3V4.593H0Z" transform="translate(57.664 9.464) rotate(-45)" fill="#a4afc1"/>
    <path id="Path_316" data-name="Path 316" d="M0,0H2.3V4.593H0Z" transform="translate(67.001 18.8) rotate(-45)" fill="#a4afc1"/>
    <path id="Path_317" data-name="Path 317" d="M0,0H4.593V2.3H0Z" transform="translate(67.01 10.693) rotate(-45)" fill="#a4afc1"/>
  </g>
</svg>
