<svg xmlns="http://www.w3.org/2000/svg" xmlns:xlink="http://www.w3.org/1999/xlink" width="1366" height="512" viewBox="0 0 1366 512">
  <defs>
    <linearGradient id="linear-gradient" x1="-0.152" y1="1.341" x2="1.032" y2="0.086" gradientUnits="objectBoundingBox">
      <stop offset="0" stop-color="#0cb754"/>
      <stop offset="1" stop-color="#8ccc54"/>
    </linearGradient>
    <clipPath id="clip-path">
      <rect id="Rectangle_1760" data-name="Rectangle 1760" width="1366" height="512" transform="translate(7 390)" fill="url(#linear-gradient)"/>
    </clipPath>
  </defs>
  <g id="Group_5076" data-name="Group 5076" transform="translate(15985 13965)">
    <rect id="Rectangle_1759" data-name="Rectangle 1759" width="1366" height="512" transform="translate(-15985 -13965)" fill="url(#linear-gradient)"/>
    <g id="Mask_Group_10" data-name="Mask Group 10" transform="translate(-15992 -14355)" clip-path="url(#clip-path)">
      <g id="Group_4619" data-name="Group 4619">
        <path id="Path_703" data-name="Path 703" d="M-21664.6-19281.787c-181.668-97.373-113.709-271.85,0-373.793s269.883-7.842,410.389-115.014-1.307-221.529,151.605-313.672,353.535-72.537,504.49,26.141,166.639,256.162,99.328,368.561-243.1-9.148-352.881,96.717,8.5,260.74-190.818,342.424S-21482.934-19184.418-21664.6-19281.787Z" transform="translate(21755.797 20093.789)" fill="#fff" opacity="0.07"/>
        <path id="Path_705" data-name="Path 705" d="M-21707.953-19614.848c-111.475-59.75-69.771-166.811,0-229.365s165.6-4.812,251.816-70.572-.8-135.934,93.031-192.473,216.932-44.51,309.561,16.039,102.25,157.186,60.947,226.152-149.166-5.613-216.533,59.348,5.213,159.992-117.088,210.115S-21596.48-19555.1-21707.953-19614.848Z" transform="translate(22337.219 20566.771)" fill="#fff" opacity="0.06"/>
        <circle id="Ellipse_222" data-name="Ellipse 222" cx="44.5" cy="44.5" r="44.5" transform="translate(25 423)" fill="#fff" opacity="0.08"/>
      </g>
    </g>
  </g>
</svg>
