<svg xmlns="http://www.w3.org/2000/svg" xmlns:xlink="http://www.w3.org/1999/xlink" width="486" height="263" viewBox="0 0 486 263">
  <defs>
    <clipPath id="clip-path">
      <rect id="Rectangle_2080" data-name="Rectangle 2080" width="486" height="263" transform="translate(-14118 -14935)" fill="#8ccc54"/>
    </clipPath>
  </defs>
  <g id="Mask_Group_32" data-name="Mask Group 32" transform="translate(14118 14935)" clip-path="url(#clip-path)">
    <path id="Path_801" data-name="Path 801" d="M10.663-29.158h4.708L25.79-1.759H20.31L17.764-8.59H8.193L5.685-1.759H.205ZM16.8-12.333,13.017-23.1,9.081-12.333ZM47.092-1.759H41.921V-13.1a5.911,5.911,0,0,0-.849-3.55,2.789,2.789,0,0,0-2.354-1.119,4.428,4.428,0,0,0-1.582.309,5.823,5.823,0,0,0-1.524.868,7.064,7.064,0,0,0-1.293,1.331,5.264,5.264,0,0,0-.849,1.7V-1.759H28.3V-21.98h4.669v3.743a7.659,7.659,0,0,1,3.242-3.01,10.4,10.4,0,0,1,4.785-1.081,6.1,6.1,0,0,1,3.087.695,5.016,5.016,0,0,1,1.852,1.814,7.586,7.586,0,0,1,.907,2.547,16.7,16.7,0,0,1,.251,2.894Zm12.889.386a9.181,9.181,0,0,1-3.859-.81,9.1,9.1,0,0,1-3.049-2.238A10.46,10.46,0,0,1,51.086-7.76a11.645,11.645,0,0,1-.714-4.11,12.076,12.076,0,0,1,.675-4.091,10.736,10.736,0,0,1,1.872-3.319,8.627,8.627,0,0,1,2.856-2.238,8.154,8.154,0,0,1,3.627-.81,7.665,7.665,0,0,1,4.033,1.081,7.827,7.827,0,0,1,2.8,2.817v-11.5H71.4V-7.7a1.916,1.916,0,0,0,.27,1.158,1.2,1.2,0,0,0,.926.386v4.4a11.722,11.722,0,0,1-2.2.27,3.585,3.585,0,0,1-2.277-.695A2.549,2.549,0,0,1,67.12-4L67-5.271a7.335,7.335,0,0,1-3.029,2.914A8.61,8.61,0,0,1,59.981-1.373Zm1.351-4.4a4.855,4.855,0,0,0,1.505-.251,5.3,5.3,0,0,0,1.428-.714,6.25,6.25,0,0,0,1.177-1.081,4.49,4.49,0,0,0,.791-1.351v-4.824a5.646,5.646,0,0,0-.868-1.563,6.427,6.427,0,0,0-1.273-1.235,6.645,6.645,0,0,0-1.505-.83,4.277,4.277,0,0,0-1.563-.309,4.647,4.647,0,0,0-2.142.5,5.085,5.085,0,0,0-1.679,1.37,6.59,6.59,0,0,0-1.081,1.987,7.053,7.053,0,0,0-.386,2.315A6.382,6.382,0,0,0,56.161-9.4a6.128,6.128,0,0,0,1.158,1.891,5.271,5.271,0,0,0,1.756,1.273A5.409,5.409,0,0,0,61.332-5.773Zm20.684,4.4a7.671,7.671,0,0,1-2.74-.482,6.586,6.586,0,0,1-2.2-1.351A6.287,6.287,0,0,1,75.63-5.232a6.135,6.135,0,0,1-.521-2.547,5.611,5.611,0,0,1,.637-2.643,6.061,6.061,0,0,1,1.775-2.065,8.8,8.8,0,0,1,2.721-1.331,11.868,11.868,0,0,1,3.473-.482,14.965,14.965,0,0,1,2.643.232,10.768,10.768,0,0,1,2.3.656v-1.158a4.054,4.054,0,0,0-1.138-3.087,4.733,4.733,0,0,0-3.377-1.081,8.944,8.944,0,0,0-3.164.579,14.7,14.7,0,0,0-3.164,1.7l-1.582-3.28a14.929,14.929,0,0,1,8.413-2.586,9.857,9.857,0,0,1,6.773,2.142,7.848,7.848,0,0,1,2.412,6.194V-7.7a1.817,1.817,0,0,0,.289,1.158,1.268,1.268,0,0,0,.945.386v4.4a11.513,11.513,0,0,1-2.277.27,3.448,3.448,0,0,1-2.258-.656,2.82,2.82,0,0,1-.984-1.737L89.425-5a8.949,8.949,0,0,1-3.28,2.7A9.419,9.419,0,0,1,82.016-1.373Zm1.466-3.782a6.737,6.737,0,0,0,2.489-.463A4.518,4.518,0,0,0,87.8-6.853a1.858,1.858,0,0,0,.849-1.466v-2.315a12.66,12.66,0,0,0-2.007-.56,10.809,10.809,0,0,0-2.084-.212,5.524,5.524,0,0,0-3.28.907,2.723,2.723,0,0,0-1.273,2.3,2.763,2.763,0,0,0,1,2.18A3.642,3.642,0,0,0,83.483-5.155Zm55.84,3.4h-5.171V-13.1a6.017,6.017,0,0,0-.83-3.55,2.7,2.7,0,0,0-2.3-1.119,4.335,4.335,0,0,0-2.894,1.177,6.48,6.48,0,0,0-1.93,3.068v11.77h-5.171V-13.1a6.017,6.017,0,0,0-.83-3.55,2.7,2.7,0,0,0-2.3-1.119,4.4,4.4,0,0,0-2.875,1.158,6.3,6.3,0,0,0-1.949,3.049V-1.759H107.91V-21.98h4.669v3.743a7.721,7.721,0,0,1,3.068-3.029,9.169,9.169,0,0,1,4.457-1.061,5.73,5.73,0,0,1,3.936,1.235,5.517,5.517,0,0,1,1.775,3.049,8.737,8.737,0,0,1,3.126-3.184,8.437,8.437,0,0,1,4.322-1.1,6.008,6.008,0,0,1,3.049.695,5.016,5.016,0,0,1,1.852,1.814,7.586,7.586,0,0,1,.907,2.547,16.7,16.7,0,0,1,.251,2.894Zm13.892.386a11.221,11.221,0,0,1-4.4-.83,10.088,10.088,0,0,1-3.357-2.258,10.021,10.021,0,0,1-2.142-3.319,10.651,10.651,0,0,1-.753-3.975,11.263,11.263,0,0,1,.733-4.071,9.936,9.936,0,0,1,2.122-3.357,10.133,10.133,0,0,1,3.377-2.3,11.24,11.24,0,0,1,4.457-.849,10.961,10.961,0,0,1,4.419.849,10.16,10.16,0,0,1,3.319,2.277,9.675,9.675,0,0,1,2.084,3.319,11.052,11.052,0,0,1,.714,3.936q0,.5-.019.965a3.924,3.924,0,0,1-.1.772H148.044a6,6,0,0,0,.579,2.122,5.245,5.245,0,0,0,1.2,1.582,5.21,5.21,0,0,0,1.659,1,5.45,5.45,0,0,0,1.93.347,5.961,5.961,0,0,0,2.914-.753A3.983,3.983,0,0,0,158.193-7.9l4.438,1.235a9.022,9.022,0,0,1-3.57,3.8A11.064,11.064,0,0,1,153.215-1.373Zm5.248-12.194a5.375,5.375,0,0,0-1.679-3.647,5.13,5.13,0,0,0-3.608-1.37,5.15,5.15,0,0,0-1.949.367,5.085,5.085,0,0,0-1.6,1.023,5.3,5.3,0,0,0-1.138,1.582,5.576,5.576,0,0,0-.521,2.045ZM185.747-1.759h-5.171V-13.1a5.911,5.911,0,0,0-.849-3.55,2.789,2.789,0,0,0-2.354-1.119,4.428,4.428,0,0,0-1.582.309,5.824,5.824,0,0,0-1.524.868,7.064,7.064,0,0,0-1.293,1.331,5.263,5.263,0,0,0-.849,1.7V-1.759h-5.171V-21.98h4.669v3.743a7.659,7.659,0,0,1,3.242-3.01,10.4,10.4,0,0,1,4.785-1.081,6.1,6.1,0,0,1,3.087.695,5.016,5.016,0,0,1,1.852,1.814,7.586,7.586,0,0,1,.907,2.547,16.7,16.7,0,0,1,.251,2.894ZM188.6,5.8a8.614,8.614,0,0,1-2.779-.444,6.779,6.779,0,0,1-2.354-1.37L185.708.479a2.68,2.68,0,0,0,1.042.637,3.778,3.778,0,0,0,1.235.212,2.4,2.4,0,0,0,1.737-.714,2.447,2.447,0,0,0,.733-1.833V-21.98h5.171V-1.6a8.082,8.082,0,0,1-.54,2.991A7.128,7.128,0,0,1,193.6,3.74a6.591,6.591,0,0,1-2.238,1.524A7.083,7.083,0,0,1,188.6,5.8Zm1.852-30.6V-29.93h5.171V-24.8Zm15.4,23.424a7.671,7.671,0,0,1-2.74-.482,6.586,6.586,0,0,1-2.2-1.351,6.287,6.287,0,0,1-1.447-2.026,6.135,6.135,0,0,1-.521-2.547,5.611,5.611,0,0,1,.637-2.643,6.062,6.062,0,0,1,1.775-2.065,8.8,8.8,0,0,1,2.721-1.331,11.868,11.868,0,0,1,3.473-.482,14.965,14.965,0,0,1,2.643.232,10.767,10.767,0,0,1,2.3.656v-1.158a4.054,4.054,0,0,0-1.138-3.087,4.733,4.733,0,0,0-3.377-1.081,8.944,8.944,0,0,0-3.164.579,14.7,14.7,0,0,0-3.164,1.7l-1.582-3.28a14.929,14.929,0,0,1,8.413-2.586,9.857,9.857,0,0,1,6.773,2.142,7.848,7.848,0,0,1,2.412,6.194V-7.7a1.817,1.817,0,0,0,.289,1.158,1.268,1.268,0,0,0,.945.386v4.4a11.513,11.513,0,0,1-2.277.27,3.448,3.448,0,0,1-2.258-.656,2.82,2.82,0,0,1-.984-1.737L213.261-5a8.949,8.949,0,0,1-3.28,2.7A9.419,9.419,0,0,1,205.852-1.373Zm1.466-3.782a6.737,6.737,0,0,0,2.489-.463,4.518,4.518,0,0,0,1.833-1.235,1.858,1.858,0,0,0,.849-1.466v-2.315a12.66,12.66,0,0,0-2.007-.56,10.809,10.809,0,0,0-2.084-.212,5.524,5.524,0,0,0-3.28.907,2.723,2.723,0,0,0-1.273,2.3,2.763,2.763,0,0,0,1,2.18A3.642,3.642,0,0,0,207.318-5.155Zm23.54,3.782A9.181,9.181,0,0,1,227-2.184a9.1,9.1,0,0,1-3.049-2.238,10.46,10.46,0,0,1-1.987-3.338,11.645,11.645,0,0,1-.714-4.11,12.077,12.077,0,0,1,.675-4.091,10.736,10.736,0,0,1,1.872-3.319,8.627,8.627,0,0,1,2.856-2.238,8.154,8.154,0,0,1,3.627-.81,7.665,7.665,0,0,1,4.033,1.081,7.827,7.827,0,0,1,2.8,2.817v-11.5h5.171V-7.7a1.916,1.916,0,0,0,.27,1.158,1.2,1.2,0,0,0,.926.386v4.4a11.721,11.721,0,0,1-2.2.27A3.585,3.585,0,0,1,239-2.184,2.549,2.549,0,0,1,238-4l-.116-1.273a7.335,7.335,0,0,1-3.029,2.914A8.61,8.61,0,0,1,230.859-1.373Zm1.351-4.4a4.855,4.855,0,0,0,1.505-.251,5.3,5.3,0,0,0,1.428-.714,6.251,6.251,0,0,0,1.177-1.081,4.489,4.489,0,0,0,.791-1.351v-4.824a5.646,5.646,0,0,0-.868-1.563,6.427,6.427,0,0,0-1.273-1.235,6.645,6.645,0,0,0-1.505-.83,4.277,4.277,0,0,0-1.563-.309,4.647,4.647,0,0,0-2.142.5,5.085,5.085,0,0,0-1.679,1.37A6.59,6.59,0,0,0,227-14.069a7.053,7.053,0,0,0-.386,2.315,6.382,6.382,0,0,0,.424,2.354A6.128,6.128,0,0,0,228.2-7.509a5.271,5.271,0,0,0,1.756,1.273A5.409,5.409,0,0,0,232.209-5.773Zm15.166,4.013V-21.98h5.171V-1.759Zm0-23.038V-29.93h5.171V-24.8Zm19.6,23.038v-27.4H272.3v22.73h13.97v4.669Zm30.6.386a11.221,11.221,0,0,1-4.4-.83,10.088,10.088,0,0,1-3.357-2.258,10.021,10.021,0,0,1-2.142-3.319,10.651,10.651,0,0,1-.753-3.975,11.263,11.263,0,0,1,.733-4.071,9.936,9.936,0,0,1,2.122-3.357,10.133,10.133,0,0,1,3.377-2.3,11.24,11.24,0,0,1,4.457-.849,10.961,10.961,0,0,1,4.419.849,10.161,10.161,0,0,1,3.319,2.277,9.676,9.676,0,0,1,2.084,3.319,11.053,11.053,0,0,1,.714,3.936q0,.5-.019.965a3.924,3.924,0,0,1-.1.772H292.41a6,6,0,0,0,.579,2.122,5.245,5.245,0,0,0,1.2,1.582,5.211,5.211,0,0,0,1.659,1,5.45,5.45,0,0,0,1.93.347,5.961,5.961,0,0,0,2.914-.753A3.983,3.983,0,0,0,302.559-7.9L307-6.66a9.022,9.022,0,0,1-3.57,3.8A11.064,11.064,0,0,1,297.581-1.373Zm5.248-12.194a5.376,5.376,0,0,0-1.679-3.647,5.13,5.13,0,0,0-3.608-1.37,5.15,5.15,0,0,0-1.949.367,5.085,5.085,0,0,0-1.6,1.023,5.3,5.3,0,0,0-1.138,1.582,5.576,5.576,0,0,0-.521,2.045Zm19.99,12.194a8.139,8.139,0,0,1-4.129-1.042,7.608,7.608,0,0,1-2.856-2.856v3.512h-4.515V-29.93h5.171v11.5a7.8,7.8,0,0,1,2.836-2.875,8.019,8.019,0,0,1,4.11-1.023,7.615,7.615,0,0,1,3.589.849,9.014,9.014,0,0,1,2.8,2.277,10.284,10.284,0,0,1,1.814,3.357,12.846,12.846,0,0,1,.637,4.052A11.487,11.487,0,0,1,331.56-7.7a10.275,10.275,0,0,1-1.987,3.3,9.34,9.34,0,0,1-3.01,2.219A8.742,8.742,0,0,1,322.819-1.373Zm-1.428-4.4a5.353,5.353,0,0,0,2.277-.482,5.45,5.45,0,0,0,1.775-1.293,5.846,5.846,0,0,0,1.138-1.891,6.54,6.54,0,0,0,.405-2.315,7.17,7.17,0,0,0-.386-2.354,6.13,6.13,0,0,0-1.1-1.968,5.479,5.479,0,0,0-1.679-1.351,4.531,4.531,0,0,0-2.122-.5,4.729,4.729,0,0,0-3.107,1.138,7.554,7.554,0,0,0-2.1,2.8v4.824a4.379,4.379,0,0,0,.791,1.389,5.75,5.75,0,0,0,1.177,1.061,5.651,5.651,0,0,0,1.428.695A4.855,4.855,0,0,0,321.391-5.773Zm14.394,4.013V-21.98h5.171V-1.759Zm0-23.038V-29.93h5.171V-24.8ZM364.419-1.759h-5.171V-13.1a5.726,5.726,0,0,0-.888-3.531,3,3,0,0,0-2.508-1.138,3.951,3.951,0,0,0-1.466.309,5.721,5.721,0,0,0-1.466.868,7.393,7.393,0,0,0-1.273,1.331,5.264,5.264,0,0,0-.849,1.7V-1.759h-5.171V-29.93H350.8v11.693a7.793,7.793,0,0,1,3.029-3.029,8.553,8.553,0,0,1,4.226-1.061,6.649,6.649,0,0,1,3.2.675,5.1,5.1,0,0,1,1.93,1.794,7.384,7.384,0,0,1,.965,2.547,15.744,15.744,0,0,1,.27,2.933ZM2.868,48.126v-27.4H14.483a7.777,7.777,0,0,1,3.492.791A9.035,9.035,0,0,1,20.735,23.6a9.833,9.833,0,0,1,1.814,2.933,8.822,8.822,0,0,1,.656,3.3,9.508,9.508,0,0,1-.617,3.377,9.375,9.375,0,0,1-1.737,2.914,8.532,8.532,0,0,1-2.7,2.045,7.815,7.815,0,0,1-3.473.772H8.193v9.184ZM8.193,34.272h6.174a3.05,3.05,0,0,0,2.45-1.2,4.95,4.95,0,0,0,.984-3.242,5.338,5.338,0,0,0-.309-1.872,4.547,4.547,0,0,0-.81-1.409,3.225,3.225,0,0,0-1.177-.868,3.449,3.449,0,0,0-1.37-.289H8.193Zm30.255-1.891a10.2,10.2,0,0,0-4.206.907,5.309,5.309,0,0,0-2.663,2.6V48.126H26.408V27.9h4.747v4.322a9.219,9.219,0,0,1,1.273-1.872,9.82,9.82,0,0,1,1.582-1.447,7.336,7.336,0,0,1,1.717-.945,4.739,4.739,0,0,1,1.679-.328h.637a2.063,2.063,0,0,1,.405.039ZM46.59,48.512a7.671,7.671,0,0,1-2.74-.482,6.586,6.586,0,0,1-2.2-1.351A6.287,6.287,0,0,1,40.2,44.653a6.135,6.135,0,0,1-.521-2.547,5.611,5.611,0,0,1,.637-2.643A6.061,6.061,0,0,1,42.095,37.4a8.8,8.8,0,0,1,2.721-1.331,11.868,11.868,0,0,1,3.473-.482,14.965,14.965,0,0,1,2.643.232,10.768,10.768,0,0,1,2.3.656V35.314a4.054,4.054,0,0,0-1.138-3.087,4.733,4.733,0,0,0-3.377-1.081,8.943,8.943,0,0,0-3.164.579,14.7,14.7,0,0,0-3.164,1.7L40.8,30.143a14.929,14.929,0,0,1,8.413-2.586A9.857,9.857,0,0,1,55.987,29.7,7.848,7.848,0,0,1,58.4,35.893v6.29a1.817,1.817,0,0,0,.289,1.158,1.268,1.268,0,0,0,.945.386v4.4a11.513,11.513,0,0,1-2.277.27A3.448,3.448,0,0,1,55.1,47.74,2.82,2.82,0,0,1,54.115,46L54,44.884a8.949,8.949,0,0,1-3.28,2.7A9.419,9.419,0,0,1,46.59,48.512Zm1.466-3.782a6.737,6.737,0,0,0,2.489-.463,4.518,4.518,0,0,0,1.833-1.235,1.858,1.858,0,0,0,.849-1.466V39.25a12.661,12.661,0,0,0-2.007-.56,10.809,10.809,0,0,0-2.084-.212,5.524,5.524,0,0,0-3.28.907,2.723,2.723,0,0,0-1.273,2.3,2.763,2.763,0,0,0,1,2.18A3.642,3.642,0,0,0,48.057,44.73Zm28.981,3.4-5.866-8.76-2.778,2.74v6.02H63.223V19.955h5.171v17.1l8.1-9.107h5.518L74.491,36.51l8.065,11.616Zm19.835-1.042a23.076,23.076,0,0,1-2.547.926,10.7,10.7,0,0,1-3.164.463,7.345,7.345,0,0,1-2.026-.27,4.455,4.455,0,0,1-1.659-.868,4.241,4.241,0,0,1-1.138-1.544,5.587,5.587,0,0,1-.424-2.3V31.879H83.251V27.9h2.663v-6.56h5.171V27.9H95.33v3.975H91.085v9.879a1.839,1.839,0,0,0,.56,1.524,2.136,2.136,0,0,0,1.37.444,4.757,4.757,0,0,0,1.582-.27q.772-.27,1.235-.463Zm2.7,1.042V27.9h5.171V48.126Zm0-23.038V19.955h5.171v5.132Zm17.481,23.424a15.643,15.643,0,0,1-4.978-.81,12.142,12.142,0,0,1-4.168-2.315l1.93-3.242a16.624,16.624,0,0,0,3.608,1.987,9.673,9.673,0,0,0,3.492.675,4.414,4.414,0,0,0,2.431-.579,1.865,1.865,0,0,0,.888-1.659,1.658,1.658,0,0,0-1.042-1.582,22.5,22.5,0,0,0-3.4-1.158q-1.968-.54-3.357-1.042a8.616,8.616,0,0,1-2.238-1.138,3.9,3.9,0,0,1-1.235-1.466,4.681,4.681,0,0,1-.386-1.987,6.292,6.292,0,0,1,.6-2.778,6.053,6.053,0,0,1,1.679-2.1,7.771,7.771,0,0,1,2.528-1.331,10.268,10.268,0,0,1,3.145-.463,13.522,13.522,0,0,1,4.264.656,10.393,10.393,0,0,1,3.647,2.122l-2.084,3.126a12.109,12.109,0,0,0-2.991-1.7,8.175,8.175,0,0,0-2.875-.54,4.161,4.161,0,0,0-2.2.54,1.879,1.879,0,0,0-.888,1.737,1.679,1.679,0,0,0,.212.888,1.869,1.869,0,0,0,.675.617,6.591,6.591,0,0,0,1.216.521q.752.251,1.872.521,2.084.54,3.57,1.081a9.718,9.718,0,0,1,2.431,1.235,4.4,4.4,0,0,1,1.389,1.6,4.919,4.919,0,0,1,.444,2.18,5.627,5.627,0,0,1-2.2,4.689A9.476,9.476,0,0,1,117.056,48.512Zm12,4.052,1.042-4.592h-1.621v-5.4h4.476v5.4l-1.582,4.592Zm37.278-9.107v4.669H147.311v-27.4h18.678V25.4H152.636V32h11.538v4.322H152.636v7.139Zm4.245-10.535h-2.663V28.985h2.663V27.75a9.006,9.006,0,0,1,.56-3.164,7.432,7.432,0,0,1,1.621-2.6,7.861,7.861,0,0,1,2.586-1.756,8.659,8.659,0,0,1,3.454-.656,11.022,11.022,0,0,1,4.033.714,17.952,17.952,0,0,1,3.454,1.794l-2.045,3.859a8,8,0,0,0-2.354-1.428,7.321,7.321,0,0,0-2.74-.54,3.03,3.03,0,0,0-2.566,1.081,4,4,0,0,0-.83,2.508v1.428H186.6V48.126h-5.171v-15.2h-5.673v15.2h-5.171Zm28.325,15.59a15.643,15.643,0,0,1-4.978-.81,12.141,12.141,0,0,1-4.168-2.315l1.93-3.242a16.624,16.624,0,0,0,3.608,1.987,9.673,9.673,0,0,0,3.492.675,4.414,4.414,0,0,0,2.431-.579,1.865,1.865,0,0,0,.888-1.659,1.658,1.658,0,0,0-1.042-1.582,22.5,22.5,0,0,0-3.4-1.158q-1.968-.54-3.357-1.042a8.616,8.616,0,0,1-2.238-1.138,3.894,3.894,0,0,1-1.235-1.466,4.681,4.681,0,0,1-.386-1.987,6.292,6.292,0,0,1,.6-2.778,6.053,6.053,0,0,1,1.679-2.1,7.771,7.771,0,0,1,2.528-1.331,10.268,10.268,0,0,1,3.145-.463,13.522,13.522,0,0,1,4.264.656,10.392,10.392,0,0,1,3.647,2.122l-2.084,3.126a12.109,12.109,0,0,0-2.991-1.7,8.175,8.175,0,0,0-2.875-.54,4.161,4.161,0,0,0-2.2.54,1.879,1.879,0,0,0-.888,1.737,1.679,1.679,0,0,0,.212.888,1.87,1.87,0,0,0,.675.617,6.592,6.592,0,0,0,1.216.521q.753.251,1.872.521,2.084.54,3.57,1.081a9.718,9.718,0,0,1,2.431,1.235,4.4,4.4,0,0,1,1.389,1.6,4.919,4.919,0,0,1,.444,2.18,5.627,5.627,0,0,1-2.2,4.689A9.476,9.476,0,0,1,198.906,48.512Zm11.538-.386V27.9h5.171V48.126Zm0-23.038V19.955h5.171v5.132Zm19.218,23.424a11.221,11.221,0,0,1-4.4-.83,9.921,9.921,0,0,1-5.5-5.576,10.651,10.651,0,0,1-.753-3.975,11.263,11.263,0,0,1,.733-4.071,9.936,9.936,0,0,1,2.122-3.357,10.133,10.133,0,0,1,3.377-2.3,11.24,11.24,0,0,1,4.457-.849,10.961,10.961,0,0,1,4.419.849,10.161,10.161,0,0,1,3.319,2.277A9.676,9.676,0,0,1,239.522,34a11.052,11.052,0,0,1,.714,3.936q0,.5-.019.965a3.925,3.925,0,0,1-.1.772H224.491a6,6,0,0,0,.579,2.122,5.2,5.2,0,0,0,2.856,2.586,5.45,5.45,0,0,0,1.93.347,5.961,5.961,0,0,0,2.914-.753,3.983,3.983,0,0,0,1.872-1.987l4.438,1.235a9.022,9.022,0,0,1-3.57,3.8A11.064,11.064,0,0,1,229.662,48.512Zm5.248-12.194a5.375,5.375,0,0,0-1.679-3.647,5.268,5.268,0,0,0-7.158.019,5.3,5.3,0,0,0-1.138,1.582,5.576,5.576,0,0,0-.521,2.045Zm27.283,11.809h-5.171V36.78a5.911,5.911,0,0,0-.849-3.55,2.789,2.789,0,0,0-2.354-1.119,4.428,4.428,0,0,0-1.582.309,5.823,5.823,0,0,0-1.524.868,7.064,7.064,0,0,0-1.293,1.331,5.264,5.264,0,0,0-.849,1.7V48.126H243.4V27.9h4.669v3.743a7.659,7.659,0,0,1,3.242-3.01,10.4,10.4,0,0,1,4.785-1.081,6.1,6.1,0,0,1,3.087.695,5.016,5.016,0,0,1,1.852,1.814,7.586,7.586,0,0,1,.907,2.547,16.7,16.7,0,0,1,.251,2.894Zm4.978,4.438,1.042-4.592h-1.621v-5.4h4.476v5.4l-1.582,4.592ZM293.3,48.512a9.13,9.13,0,0,1-6.908-3.049,10.459,10.459,0,0,1-1.987-3.338,11.645,11.645,0,0,1-.714-4.11,12.076,12.076,0,0,1,.675-4.091,10.736,10.736,0,0,1,1.872-3.319,8.627,8.627,0,0,1,2.856-2.238,8.154,8.154,0,0,1,3.627-.81,7.665,7.665,0,0,1,4.033,1.081,7.827,7.827,0,0,1,2.8,2.817v-11.5h5.171V42.183a1.915,1.915,0,0,0,.27,1.158,1.2,1.2,0,0,0,.926.386v4.4a11.721,11.721,0,0,1-2.2.27,3.585,3.585,0,0,1-2.277-.695,2.549,2.549,0,0,1-1-1.814l-.116-1.273a7.335,7.335,0,0,1-3.029,2.914A8.61,8.61,0,0,1,293.3,48.512Zm1.351-4.4a4.855,4.855,0,0,0,1.505-.251,5.3,5.3,0,0,0,1.428-.714,6.251,6.251,0,0,0,1.177-1.081,4.49,4.49,0,0,0,.791-1.351V35.893a5.647,5.647,0,0,0-.868-1.563,6.427,6.427,0,0,0-1.273-1.235,6.645,6.645,0,0,0-1.505-.83,4.277,4.277,0,0,0-1.563-.309,4.647,4.647,0,0,0-2.142.5,5.084,5.084,0,0,0-1.679,1.37,6.59,6.59,0,0,0-1.081,1.987,7.053,7.053,0,0,0-.386,2.315,6.382,6.382,0,0,0,.424,2.354,6.129,6.129,0,0,0,1.158,1.891,5.271,5.271,0,0,0,1.756,1.273A5.409,5.409,0,0,0,294.648,44.112Zm20.684,4.4a7.671,7.671,0,0,1-2.74-.482,6.586,6.586,0,0,1-2.2-1.351,6.286,6.286,0,0,1-1.447-2.026,6.136,6.136,0,0,1-.521-2.547,5.611,5.611,0,0,1,.637-2.643,6.062,6.062,0,0,1,1.775-2.065,8.8,8.8,0,0,1,2.721-1.331,11.868,11.868,0,0,1,3.473-.482,14.966,14.966,0,0,1,2.643.232,10.767,10.767,0,0,1,2.3.656V35.314a4.054,4.054,0,0,0-1.138-3.087,4.733,4.733,0,0,0-3.377-1.081,8.944,8.944,0,0,0-3.164.579,14.7,14.7,0,0,0-3.164,1.7l-1.582-3.28a14.929,14.929,0,0,1,8.413-2.586,9.857,9.857,0,0,1,6.773,2.142,7.848,7.848,0,0,1,2.412,6.194v6.29a1.817,1.817,0,0,0,.289,1.158,1.268,1.268,0,0,0,.945.386v4.4a11.513,11.513,0,0,1-2.277.27,3.448,3.448,0,0,1-2.258-.656A2.82,2.82,0,0,1,322.858,46l-.116-1.119a8.949,8.949,0,0,1-3.28,2.7A9.419,9.419,0,0,1,315.332,48.512ZM316.8,44.73a6.736,6.736,0,0,0,2.489-.463,4.518,4.518,0,0,0,1.833-1.235,1.858,1.858,0,0,0,.849-1.466V39.25a12.66,12.66,0,0,0-2.007-.56,10.809,10.809,0,0,0-2.084-.212,5.524,5.524,0,0,0-3.28.907,2.723,2.723,0,0,0-1.273,2.3,2.763,2.763,0,0,0,1,2.18A3.642,3.642,0,0,0,316.8,44.73Zm33.959,3.4h-5.171V36.78a5.91,5.91,0,0,0-.849-3.55,2.789,2.789,0,0,0-2.354-1.119,4.429,4.429,0,0,0-1.582.309,5.823,5.823,0,0,0-1.524.868,7.063,7.063,0,0,0-1.293,1.331,5.264,5.264,0,0,0-.849,1.7V48.126h-5.171V27.9h4.669v3.743a7.659,7.659,0,0,1,3.242-3.01,10.4,10.4,0,0,1,4.785-1.081,6.1,6.1,0,0,1,3.087.695,5.016,5.016,0,0,1,1.852,1.814,7.586,7.586,0,0,1,.907,2.547,16.7,16.7,0,0,1,.251,2.894ZM8.193,80.452V98.011H2.868v-27.4H7L21.275,88.595V70.65H26.6v27.36H22.279Zm24.042,21.495a9.977,9.977,0,0,0,1.273.289,6.939,6.939,0,0,0,1.042.1,2.212,2.212,0,0,0,.926-.193,1.983,1.983,0,0,0,.772-.675,6.592,6.592,0,0,0,.695-1.331q.347-.849.733-2.122L29.688,77.789h5.325l5.48,15.745,4.862-15.745h4.862l-8.49,24.235A7.24,7.24,0,0,1,39.22,105.5a7.054,7.054,0,0,1-4.4,1.351,8.364,8.364,0,0,1-1.254-.1,8.022,8.022,0,0,1-1.331-.328ZM58.052,98.4a7.671,7.671,0,0,1-2.74-.482,6.586,6.586,0,0,1-2.2-1.351,6.287,6.287,0,0,1-1.447-2.026,6.135,6.135,0,0,1-.521-2.547,5.611,5.611,0,0,1,.637-2.643,6.061,6.061,0,0,1,1.775-2.065,8.8,8.8,0,0,1,2.721-1.331,11.868,11.868,0,0,1,3.473-.482,14.966,14.966,0,0,1,2.643.232,10.768,10.768,0,0,1,2.3.656V85.2a4.054,4.054,0,0,0-1.138-3.087,4.733,4.733,0,0,0-3.377-1.081,8.944,8.944,0,0,0-3.164.579,14.7,14.7,0,0,0-3.164,1.7l-1.582-3.28a14.929,14.929,0,0,1,8.413-2.586,9.857,9.857,0,0,1,6.773,2.142,7.848,7.848,0,0,1,2.412,6.194v6.29a1.817,1.817,0,0,0,.289,1.158,1.268,1.268,0,0,0,.945.386v4.4a11.513,11.513,0,0,1-2.277.27,3.448,3.448,0,0,1-2.258-.656,2.82,2.82,0,0,1-.984-1.737l-.116-1.119a8.949,8.949,0,0,1-3.28,2.7A9.419,9.419,0,0,1,58.052,98.4Zm1.466-3.782a6.737,6.737,0,0,0,2.489-.463,4.518,4.518,0,0,0,1.833-1.235,1.858,1.858,0,0,0,.849-1.466V89.135a12.661,12.661,0,0,0-2.007-.56,10.809,10.809,0,0,0-2.084-.212,5.524,5.524,0,0,0-3.28.907,2.723,2.723,0,0,0-1.273,2.3,2.763,2.763,0,0,0,1,2.18A3.642,3.642,0,0,0,59.518,94.615Zm46.578,3.4h-5.171V86.665a6.017,6.017,0,0,0-.83-3.55A2.7,2.7,0,0,0,97.8,82a4.335,4.335,0,0,0-2.894,1.177,6.48,6.48,0,0,0-1.93,3.068v11.77H87.8V86.665a6.017,6.017,0,0,0-.83-3.55A2.7,2.7,0,0,0,84.679,82,4.4,4.4,0,0,0,81.8,83.153,6.3,6.3,0,0,0,79.855,86.2V98.011H74.684V77.789h4.669v3.743A7.721,7.721,0,0,1,82.421,78.5a9.169,9.169,0,0,1,4.457-1.061,5.73,5.73,0,0,1,3.936,1.235,5.517,5.517,0,0,1,1.775,3.049,8.737,8.737,0,0,1,3.126-3.184,8.437,8.437,0,0,1,4.322-1.1,6.008,6.008,0,0,1,3.049.695,5.016,5.016,0,0,1,1.852,1.814,7.586,7.586,0,0,1,.907,2.547,16.7,16.7,0,0,1,.251,2.894Zm10.033.386a7.671,7.671,0,0,1-2.74-.482,6.586,6.586,0,0,1-2.2-1.351,6.287,6.287,0,0,1-1.447-2.026,6.135,6.135,0,0,1-.521-2.547,5.611,5.611,0,0,1,.637-2.643,6.061,6.061,0,0,1,1.775-2.065,8.8,8.8,0,0,1,2.721-1.331,11.868,11.868,0,0,1,3.473-.482,14.965,14.965,0,0,1,2.643.232,10.768,10.768,0,0,1,2.3.656V85.2a4.054,4.054,0,0,0-1.138-3.087,4.733,4.733,0,0,0-3.377-1.081,8.944,8.944,0,0,0-3.164.579,14.7,14.7,0,0,0-3.164,1.7l-1.582-3.28a14.929,14.929,0,0,1,8.413-2.586,9.857,9.857,0,0,1,6.773,2.142,7.848,7.848,0,0,1,2.412,6.194v6.29a1.817,1.817,0,0,0,.289,1.158,1.268,1.268,0,0,0,.945.386v4.4a11.513,11.513,0,0,1-2.277.27,3.448,3.448,0,0,1-2.258-.656,2.82,2.82,0,0,1-.984-1.737l-.116-1.119a8.949,8.949,0,0,1-3.28,2.7A9.419,9.419,0,0,1,116.13,98.4Zm1.466-3.782a6.737,6.737,0,0,0,2.489-.463,4.518,4.518,0,0,0,1.833-1.235,1.858,1.858,0,0,0,.849-1.466V89.135a12.661,12.661,0,0,0-2.007-.56,10.809,10.809,0,0,0-2.084-.212,5.524,5.524,0,0,0-3.28.907,2.723,2.723,0,0,0-1.273,2.3,2.763,2.763,0,0,0,1,2.18A3.642,3.642,0,0,0,117.6,94.615Zm33.959,3.4h-5.171V86.665a5.911,5.911,0,0,0-.849-3.55A2.789,2.789,0,0,0,143.182,82a4.428,4.428,0,0,0-1.582.309,5.824,5.824,0,0,0-1.524.868,7.064,7.064,0,0,0-1.293,1.331,5.263,5.263,0,0,0-.849,1.7V98.011h-5.171V77.789h4.669v3.743a7.659,7.659,0,0,1,3.242-3.01,10.4,10.4,0,0,1,4.785-1.081,6.1,6.1,0,0,1,3.087.695A5.016,5.016,0,0,1,150.4,79.95,7.586,7.586,0,0,1,151.3,82.5a16.7,16.7,0,0,1,.251,2.894Zm22.151.386a9.13,9.13,0,0,1-6.908-3.049,10.46,10.46,0,0,1-1.987-3.338,11.645,11.645,0,0,1-.714-4.11,12.077,12.077,0,0,1,.675-4.091,10.736,10.736,0,0,1,1.872-3.319,8.627,8.627,0,0,1,2.856-2.238,8.154,8.154,0,0,1,3.627-.81,7.665,7.665,0,0,1,4.033,1.081,7.827,7.827,0,0,1,2.8,2.817V69.84h5.171V92.068a1.916,1.916,0,0,0,.27,1.158,1.2,1.2,0,0,0,.926.386v4.4a11.721,11.721,0,0,1-2.2.27,3.585,3.585,0,0,1-2.277-.695,2.549,2.549,0,0,1-1-1.814L180.73,94.5a7.335,7.335,0,0,1-3.029,2.914A8.61,8.61,0,0,1,173.706,98.4Zm1.351-4.4a4.855,4.855,0,0,0,1.505-.251,5.3,5.3,0,0,0,1.428-.714,6.25,6.25,0,0,0,1.177-1.081,4.49,4.49,0,0,0,.791-1.351V85.777a5.646,5.646,0,0,0-.868-1.563,6.426,6.426,0,0,0-1.273-1.235,6.645,6.645,0,0,0-1.505-.83,4.277,4.277,0,0,0-1.563-.309,4.647,4.647,0,0,0-2.142.5,5.085,5.085,0,0,0-1.679,1.37,6.591,6.591,0,0,0-1.081,1.987,7.053,7.053,0,0,0-.386,2.315,6.382,6.382,0,0,0,.424,2.354,6.128,6.128,0,0,0,1.158,1.891,5.271,5.271,0,0,0,1.756,1.273A5.409,5.409,0,0,0,175.057,94Zm15.166,4.013V77.789h5.171V98.011Zm0-23.038V69.84h5.171v5.132ZM212.1,82.266a10.2,10.2,0,0,0-4.206.907,5.309,5.309,0,0,0-2.663,2.6V98.011h-5.171V77.789h4.747v4.322a9.22,9.22,0,0,1,1.273-1.872,9.82,9.82,0,0,1,1.582-1.447,7.336,7.336,0,0,1,1.717-.945,4.739,4.739,0,0,1,1.679-.328h.637a2.063,2.063,0,0,1,.405.039ZM221.172,98.4a5.742,5.742,0,0,1-4.747-2.007q-1.621-2.007-1.621-5.943V77.789h5.171V89.328q0,4.669,3.357,4.669a5.312,5.312,0,0,0,2.914-.907,6.516,6.516,0,0,0,2.3-2.759V77.789h5.171V92.068A1.817,1.817,0,0,0,234,93.225a1.268,1.268,0,0,0,.945.386v4.4a10.923,10.923,0,0,1-1.293.193q-.521.039-.945.039a3.725,3.725,0,0,1-2.258-.637,2.508,2.508,0,0,1-1.023-1.756l-.116-1.621a8.617,8.617,0,0,1-3.473,3.126A10.451,10.451,0,0,1,221.172,98.4Zm49.087-.386h-5.171V86.665a6.017,6.017,0,0,0-.83-3.55,2.7,2.7,0,0,0-2.3-1.119,4.335,4.335,0,0,0-2.894,1.177,6.48,6.48,0,0,0-1.93,3.068v11.77h-5.171V86.665a6.017,6.017,0,0,0-.83-3.55,2.7,2.7,0,0,0-2.3-1.119,4.4,4.4,0,0,0-2.875,1.158,6.3,6.3,0,0,0-1.949,3.049V98.011h-5.171V77.789h4.669v3.743a7.721,7.721,0,0,1,3.068-3.029,9.169,9.169,0,0,1,4.457-1.061,5.73,5.73,0,0,1,3.936,1.235,5.517,5.517,0,0,1,1.775,3.049,8.737,8.737,0,0,1,3.126-3.184,8.437,8.437,0,0,1,4.322-1.1,6.008,6.008,0,0,1,3.049.695A5.016,5.016,0,0,1,269.1,79.95a7.585,7.585,0,0,1,.907,2.547,16.7,16.7,0,0,1,.251,2.894Zm10.033.386a7.671,7.671,0,0,1-2.74-.482,6.586,6.586,0,0,1-2.2-1.351,6.286,6.286,0,0,1-1.447-2.026,6.136,6.136,0,0,1-.521-2.547,5.611,5.611,0,0,1,.637-2.643,6.061,6.061,0,0,1,1.775-2.065,8.8,8.8,0,0,1,2.721-1.331,11.868,11.868,0,0,1,3.473-.482,14.965,14.965,0,0,1,2.643.232,10.768,10.768,0,0,1,2.3.656V85.2a4.054,4.054,0,0,0-1.138-3.087,4.733,4.733,0,0,0-3.377-1.081,8.944,8.944,0,0,0-3.164.579,14.7,14.7,0,0,0-3.164,1.7l-1.582-3.28a14.929,14.929,0,0,1,8.413-2.586,9.857,9.857,0,0,1,6.773,2.142,7.848,7.848,0,0,1,2.412,6.194v6.29a1.817,1.817,0,0,0,.289,1.158,1.268,1.268,0,0,0,.945.386v4.4a11.513,11.513,0,0,1-2.277.27,3.448,3.448,0,0,1-2.258-.656,2.82,2.82,0,0,1-.984-1.737l-.116-1.119a8.949,8.949,0,0,1-3.28,2.7A9.419,9.419,0,0,1,280.293,98.4Zm1.466-3.782a6.737,6.737,0,0,0,2.489-.463,4.518,4.518,0,0,0,1.833-1.235,1.858,1.858,0,0,0,.849-1.466V89.135a12.66,12.66,0,0,0-2.007-.56,10.809,10.809,0,0,0-2.084-.212,5.524,5.524,0,0,0-3.28.907,2.723,2.723,0,0,0-1.273,2.3,2.763,2.763,0,0,0,1,2.18A3.642,3.642,0,0,0,281.759,94.615Zm33.959,3.4h-5.171V86.665a5.726,5.726,0,0,0-.888-3.531A3,3,0,0,0,307.151,82a3.95,3.95,0,0,0-1.466.309,5.721,5.721,0,0,0-1.466.868,7.393,7.393,0,0,0-1.273,1.331,5.264,5.264,0,0,0-.849,1.7V98.011h-5.171V69.84H302.1V81.533a7.793,7.793,0,0,1,3.029-3.029,8.553,8.553,0,0,1,4.226-1.061,6.649,6.649,0,0,1,3.2.675,5.1,5.1,0,0,1,1.93,1.794,7.383,7.383,0,0,1,.965,2.547,15.742,15.742,0,0,1,.27,2.933Zm4.4,0V92.454h4.245v5.557Zm37.973-22.73h-8.76v22.73h-5.287V75.281h-8.76V70.612H358.09Zm2.894,22.73V77.789h5.171V98.011Zm0-23.038V69.84h5.171v5.132ZM379.2,98.4a9.13,9.13,0,0,1-6.908-3.049A10.459,10.459,0,0,1,370.3,92.01a11.645,11.645,0,0,1-.714-4.11,12.076,12.076,0,0,1,.675-4.091,10.736,10.736,0,0,1,1.872-3.319,8.627,8.627,0,0,1,2.856-2.238,8.154,8.154,0,0,1,3.627-.81,7.665,7.665,0,0,1,4.033,1.081,7.827,7.827,0,0,1,2.8,2.817V69.84h5.171V92.068a1.915,1.915,0,0,0,.27,1.158,1.2,1.2,0,0,0,.926.386v4.4a11.721,11.721,0,0,1-2.2.27,3.585,3.585,0,0,1-2.277-.695,2.549,2.549,0,0,1-1-1.814l-.116-1.273a7.335,7.335,0,0,1-3.029,2.914A8.61,8.61,0,0,1,379.2,98.4ZM380.55,94a4.855,4.855,0,0,0,1.505-.251,5.3,5.3,0,0,0,1.428-.714,6.251,6.251,0,0,0,1.177-1.081,4.49,4.49,0,0,0,.791-1.351V85.777a5.647,5.647,0,0,0-.868-1.563,6.426,6.426,0,0,0-1.273-1.235,6.646,6.646,0,0,0-1.505-.83,4.277,4.277,0,0,0-1.563-.309,4.647,4.647,0,0,0-2.142.5,5.084,5.084,0,0,0-1.679,1.37A6.59,6.59,0,0,0,375.34,85.7a7.053,7.053,0,0,0-.386,2.315,6.382,6.382,0,0,0,.424,2.354,6.129,6.129,0,0,0,1.158,1.891,5.271,5.271,0,0,0,1.756,1.273A5.409,5.409,0,0,0,380.55,94Zm20.684,4.4a7.671,7.671,0,0,1-2.74-.482,6.586,6.586,0,0,1-2.2-1.351,6.286,6.286,0,0,1-1.447-2.026,6.136,6.136,0,0,1-.521-2.547,5.611,5.611,0,0,1,.637-2.643,6.061,6.061,0,0,1,1.775-2.065,8.8,8.8,0,0,1,2.721-1.331,11.868,11.868,0,0,1,3.473-.482,14.966,14.966,0,0,1,2.643.232,10.767,10.767,0,0,1,2.3.656V85.2a4.054,4.054,0,0,0-1.138-3.087,4.733,4.733,0,0,0-3.377-1.081,8.944,8.944,0,0,0-3.164.579,14.7,14.7,0,0,0-3.164,1.7l-1.582-3.28a14.929,14.929,0,0,1,8.413-2.586,9.857,9.857,0,0,1,6.773,2.142,7.848,7.848,0,0,1,2.412,6.194v6.29a1.817,1.817,0,0,0,.289,1.158,1.268,1.268,0,0,0,.945.386v4.4a11.513,11.513,0,0,1-2.277.27,3.448,3.448,0,0,1-2.258-.656,2.82,2.82,0,0,1-.984-1.737l-.116-1.119a8.949,8.949,0,0,1-3.28,2.7A9.419,9.419,0,0,1,401.234,98.4Zm1.466-3.782a6.737,6.737,0,0,0,2.489-.463,4.518,4.518,0,0,0,1.833-1.235,1.858,1.858,0,0,0,.849-1.466V89.135a12.66,12.66,0,0,0-2.007-.56,10.809,10.809,0,0,0-2.084-.212,5.524,5.524,0,0,0-3.28.907,2.723,2.723,0,0,0-1.273,2.3,2.763,2.763,0,0,0,1,2.18A3.642,3.642,0,0,0,402.7,94.615Zm28.981,3.4-5.866-8.76-2.779,2.74v6.02h-5.171V69.84h5.171v17.1l8.1-9.107h5.518l-7.525,8.567L437.2,98.011Zm-417.2,50.271a7.968,7.968,0,0,1-4.168-1.061,7.55,7.55,0,0,1-2.778-2.875v11.77H2.366V127.674H6.881v3.473a8.251,8.251,0,0,1,2.894-2.8,8.047,8.047,0,0,1,4.091-1.023,8.658,8.658,0,0,1,3.782.83,9.366,9.366,0,0,1,2.991,2.238,10.416,10.416,0,0,1,1.968,3.319,11.424,11.424,0,0,1,.714,4.033,12.743,12.743,0,0,1-.656,4.129,10.567,10.567,0,0,1-1.833,3.357,8.547,8.547,0,0,1-2.8,2.238A7.826,7.826,0,0,1,14.483,148.281Zm-1.737-4.4a4.647,4.647,0,0,0,2.142-.5,5.191,5.191,0,0,0,1.679-1.351,6.339,6.339,0,0,0,1.081-1.968,7.053,7.053,0,0,0,.386-2.315,6.535,6.535,0,0,0-.424-2.373,5.891,5.891,0,0,0-1.177-1.91,5.482,5.482,0,0,0-1.775-1.273,5.315,5.315,0,0,0-2.219-.463,4.856,4.856,0,0,0-1.505.251,5.3,5.3,0,0,0-1.428.714,6.251,6.251,0,0,0-1.177,1.081,4.49,4.49,0,0,0-.791,1.351v4.747a6.874,6.874,0,0,0,2.122,2.875A4.855,4.855,0,0,0,12.747,143.882Zm23.463,4.4a11.221,11.221,0,0,1-4.4-.83,9.921,9.921,0,0,1-5.5-5.576,10.651,10.651,0,0,1-.753-3.975,11.263,11.263,0,0,1,.733-4.071,9.936,9.936,0,0,1,2.122-3.357,10.133,10.133,0,0,1,3.377-2.3,11.24,11.24,0,0,1,4.457-.849,10.961,10.961,0,0,1,4.419.849,10.161,10.161,0,0,1,3.319,2.277,9.676,9.676,0,0,1,2.084,3.319,11.052,11.052,0,0,1,.714,3.936q0,.5-.019.965a3.925,3.925,0,0,1-.1.772H31.039a6,6,0,0,0,.579,2.122,5.2,5.2,0,0,0,2.856,2.586,5.45,5.45,0,0,0,1.93.347,5.961,5.961,0,0,0,2.914-.753,3.983,3.983,0,0,0,1.872-1.987l4.438,1.235a9.022,9.022,0,0,1-3.57,3.8A11.063,11.063,0,0,1,36.21,148.281Zm5.248-12.195a5.375,5.375,0,0,0-1.679-3.647,5.268,5.268,0,0,0-7.158.019,5.3,5.3,0,0,0-1.138,1.582,5.576,5.576,0,0,0-.521,2.045Zm20.53-3.936a10.2,10.2,0,0,0-4.206.907,5.309,5.309,0,0,0-2.663,2.6V147.9H49.948V127.674h4.747V132a9.22,9.22,0,0,1,1.273-1.872,9.82,9.82,0,0,1,1.582-1.447,7.337,7.337,0,0,1,1.717-.945,4.739,4.739,0,0,1,1.679-.328h.637a2.063,2.063,0,0,1,.405.039Zm2.856-12.426h5.171v21.688a2.552,2.552,0,0,0,.54,1.737,1.941,1.941,0,0,0,1.544.617,3.874,3.874,0,0,0,1.023-.154,6.917,6.917,0,0,0,1.061-.386l.695,3.936a10,10,0,0,1-2.431.772,13.264,13.264,0,0,1-2.508.27,5.178,5.178,0,0,1-3.763-1.293,4.9,4.9,0,0,1-1.331-3.685ZM83.29,148.281a5.742,5.742,0,0,1-4.747-2.007q-1.621-2.007-1.621-5.943V127.674h5.171v11.538q0,4.669,3.357,4.669a5.312,5.312,0,0,0,2.914-.907,6.517,6.517,0,0,0,2.3-2.759V127.674h5.171v14.278a1.817,1.817,0,0,0,.289,1.158,1.268,1.268,0,0,0,.945.386v4.4a10.92,10.92,0,0,1-1.293.193q-.521.039-.945.039a3.724,3.724,0,0,1-2.258-.637,2.508,2.508,0,0,1-1.023-1.756l-.116-1.621a8.617,8.617,0,0,1-3.473,3.126A10.451,10.451,0,0,1,83.29,148.281Zm26.9-28.557h5.171v21.688a2.552,2.552,0,0,0,.54,1.737,1.941,1.941,0,0,0,1.544.617,3.874,3.874,0,0,0,1.023-.154,6.917,6.917,0,0,0,1.061-.386l.695,3.936a10,10,0,0,1-2.431.772,13.264,13.264,0,0,1-2.508.27,5.178,5.178,0,0,1-3.763-1.293,4.9,4.9,0,0,1-1.331-3.685Zm17.79,28.557a7.671,7.671,0,0,1-2.74-.482,6.586,6.586,0,0,1-2.2-1.351,6.287,6.287,0,0,1-1.447-2.026,6.135,6.135,0,0,1-.521-2.547,5.611,5.611,0,0,1,.637-2.643,6.061,6.061,0,0,1,1.775-2.065,8.8,8.8,0,0,1,2.721-1.331,11.868,11.868,0,0,1,3.473-.482,14.964,14.964,0,0,1,2.643.232,10.765,10.765,0,0,1,2.3.656v-1.158A4.054,4.054,0,0,0,133.476,132a4.733,4.733,0,0,0-3.377-1.081,8.944,8.944,0,0,0-3.164.579,14.7,14.7,0,0,0-3.164,1.7l-1.582-3.28a14.929,14.929,0,0,1,8.413-2.586,9.857,9.857,0,0,1,6.773,2.142,7.848,7.848,0,0,1,2.412,6.194v6.29a1.817,1.817,0,0,0,.289,1.158,1.268,1.268,0,0,0,.945.386v4.4a11.513,11.513,0,0,1-2.277.27,3.448,3.448,0,0,1-2.258-.656,2.82,2.82,0,0,1-.984-1.737l-.116-1.119a8.949,8.949,0,0,1-3.28,2.7A9.419,9.419,0,0,1,127.977,148.281Zm1.466-3.782a6.737,6.737,0,0,0,2.489-.463,4.518,4.518,0,0,0,1.833-1.235,1.858,1.858,0,0,0,.849-1.466V139.02a12.662,12.662,0,0,0-2.007-.56,10.809,10.809,0,0,0-2.084-.212,5.524,5.524,0,0,0-3.28.907,2.723,2.723,0,0,0-1.273,2.3,2.763,2.763,0,0,0,1,2.18A3.642,3.642,0,0,0,129.444,144.5Zm46.578,3.4h-5.171V136.55a6.017,6.017,0,0,0-.83-3.55,2.7,2.7,0,0,0-2.3-1.119,4.335,4.335,0,0,0-2.894,1.177,6.48,6.48,0,0,0-1.93,3.068V147.9H157.73V136.55a6.017,6.017,0,0,0-.83-3.55,2.7,2.7,0,0,0-2.3-1.119,4.4,4.4,0,0,0-2.875,1.158,6.3,6.3,0,0,0-1.949,3.049V147.9h-5.171V127.674h4.669v3.743a7.721,7.721,0,0,1,3.068-3.029,9.169,9.169,0,0,1,4.457-1.061,5.73,5.73,0,0,1,3.936,1.235,5.517,5.517,0,0,1,1.775,3.049,8.737,8.737,0,0,1,3.126-3.184,8.437,8.437,0,0,1,4.322-1.1,6.008,6.008,0,0,1,3.049.695,5.016,5.016,0,0,1,1.852,1.814,7.585,7.585,0,0,1,.907,2.547,16.7,16.7,0,0,1,.251,2.894Zm10.033.386a7.671,7.671,0,0,1-2.74-.482,6.586,6.586,0,0,1-2.2-1.351,6.287,6.287,0,0,1-1.447-2.026,6.135,6.135,0,0,1-.521-2.547,5.611,5.611,0,0,1,.637-2.643,6.061,6.061,0,0,1,1.775-2.065,8.8,8.8,0,0,1,2.721-1.331,11.868,11.868,0,0,1,3.473-.482,14.964,14.964,0,0,1,2.643.232,10.766,10.766,0,0,1,2.3.656v-1.158A4.054,4.054,0,0,0,191.554,132a4.733,4.733,0,0,0-3.377-1.081,8.944,8.944,0,0,0-3.164.579,14.7,14.7,0,0,0-3.164,1.7l-1.582-3.28a14.929,14.929,0,0,1,8.413-2.586,9.857,9.857,0,0,1,6.773,2.142,7.848,7.848,0,0,1,2.412,6.194v6.29a1.817,1.817,0,0,0,.289,1.158,1.268,1.268,0,0,0,.945.386v4.4a11.514,11.514,0,0,1-2.277.27,3.448,3.448,0,0,1-2.258-.656,2.82,2.82,0,0,1-.984-1.737l-.116-1.119a8.949,8.949,0,0,1-3.28,2.7A9.419,9.419,0,0,1,186.055,148.281Zm1.466-3.782a6.737,6.737,0,0,0,2.489-.463,4.518,4.518,0,0,0,1.833-1.235,1.858,1.858,0,0,0,.849-1.466V139.02a12.662,12.662,0,0,0-2.007-.56,10.809,10.809,0,0,0-2.084-.212,5.524,5.524,0,0,0-3.28.907,2.723,2.723,0,0,0-1.273,2.3,2.763,2.763,0,0,0,1,2.18A3.642,3.642,0,0,0,187.522,144.5Zm55.84,3.4h-5.171V136.55a6.017,6.017,0,0,0-.83-3.55,2.7,2.7,0,0,0-2.3-1.119,4.335,4.335,0,0,0-2.894,1.177,6.48,6.48,0,0,0-1.93,3.068V147.9H225.07V136.55a6.017,6.017,0,0,0-.83-3.55,2.7,2.7,0,0,0-2.3-1.119,4.4,4.4,0,0,0-2.875,1.158,6.3,6.3,0,0,0-1.949,3.049V147.9h-5.171V127.674h4.669v3.743a7.721,7.721,0,0,1,3.068-3.029,9.169,9.169,0,0,1,4.457-1.061,5.73,5.73,0,0,1,3.936,1.235,5.517,5.517,0,0,1,1.775,3.049,8.737,8.737,0,0,1,3.126-3.184,8.437,8.437,0,0,1,4.322-1.1,6.008,6.008,0,0,1,3.049.695,5.016,5.016,0,0,1,1.852,1.814,7.586,7.586,0,0,1,.907,2.547,16.694,16.694,0,0,1,.251,2.894Zm13.892.386a11.221,11.221,0,0,1-4.4-.83,9.921,9.921,0,0,1-5.5-5.576,10.651,10.651,0,0,1-.753-3.975,11.263,11.263,0,0,1,.733-4.071,9.936,9.936,0,0,1,2.122-3.357,10.133,10.133,0,0,1,3.377-2.3,11.24,11.24,0,0,1,4.457-.849,10.961,10.961,0,0,1,4.419.849,10.161,10.161,0,0,1,3.319,2.277,9.676,9.676,0,0,1,2.084,3.319,11.053,11.053,0,0,1,.714,3.936q0,.5-.019.965a3.924,3.924,0,0,1-.1.772H252.083a6,6,0,0,0,.579,2.122,5.2,5.2,0,0,0,2.856,2.586,5.45,5.45,0,0,0,1.93.347,5.961,5.961,0,0,0,2.914-.753,3.983,3.983,0,0,0,1.872-1.987l4.438,1.235a9.022,9.022,0,0,1-3.57,3.8A11.063,11.063,0,0,1,257.254,148.281Zm5.248-12.195a5.375,5.375,0,0,0-1.679-3.647,5.268,5.268,0,0,0-7.158.019,5.3,5.3,0,0,0-1.138,1.582,5.575,5.575,0,0,0-.521,2.045ZM289.786,147.9h-5.171V136.55a5.911,5.911,0,0,0-.849-3.55,2.789,2.789,0,0,0-2.354-1.119,4.428,4.428,0,0,0-1.582.309,5.823,5.823,0,0,0-1.524.868,7.063,7.063,0,0,0-1.293,1.331,5.263,5.263,0,0,0-.849,1.7V147.9h-5.171V127.674h4.669v3.743a7.659,7.659,0,0,1,3.242-3.01,10.4,10.4,0,0,1,4.785-1.081,6.1,6.1,0,0,1,3.087.695,5.016,5.016,0,0,1,1.852,1.814,7.586,7.586,0,0,1,.907,2.547,16.7,16.7,0,0,1,.251,2.894Zm12.426.116a8.329,8.329,0,0,1-3.7-.81,8.949,8.949,0,0,1-2.875-2.219,10.1,10.1,0,0,1-1.872-3.261,12.265,12.265,0,0,1,.039-8.027,10.614,10.614,0,0,1,1.93-3.319,8.8,8.8,0,0,1,2.971-2.238,8.922,8.922,0,0,1,3.82-.81,7.892,7.892,0,0,1,4.129,1.061,8.949,8.949,0,0,1,2.933,2.836v-3.55H314.1v19.257a9.187,9.187,0,0,1-.849,4.013,8.8,8.8,0,0,1-2.335,3.01,10.421,10.421,0,0,1-3.55,1.891,14.775,14.775,0,0,1-4.5.656,12.671,12.671,0,0,1-5.576-1.1,11.3,11.3,0,0,1-3.878-3.107l2.817-2.74a8.008,8.008,0,0,0,2.914,2.238,8.781,8.781,0,0,0,3.724.81,7.992,7.992,0,0,0,2.3-.328,5.545,5.545,0,0,0,1.949-1.023,4.754,4.754,0,0,0,1.331-1.775,6.206,6.206,0,0,0,.482-2.547v-2.547a6.825,6.825,0,0,1-2.817,2.682A8.309,8.309,0,0,1,302.212,148.011Zm1.737-4.129a4.87,4.87,0,0,0,1.621-.27,5.784,5.784,0,0,0,2.586-1.814,4.883,4.883,0,0,0,.772-1.312v-4.824a6.276,6.276,0,0,0-2.18-2.856,5.207,5.207,0,0,0-3.107-1.081,4.474,4.474,0,0,0-2.161.521,5.38,5.38,0,0,0-1.659,1.389,6.278,6.278,0,0,0-1.061,1.987,7.389,7.389,0,0,0-.367,2.315,6.274,6.274,0,0,0,.424,2.315,5.94,5.94,0,0,0,1.177,1.891,5.545,5.545,0,0,0,1.756,1.273A5.185,5.185,0,0,0,303.948,143.882Zm20.337,4.4a7.671,7.671,0,0,1-2.74-.482,6.586,6.586,0,0,1-2.2-1.351,6.287,6.287,0,0,1-1.447-2.026,6.136,6.136,0,0,1-.521-2.547,5.611,5.611,0,0,1,.637-2.643,6.061,6.061,0,0,1,1.775-2.065,8.8,8.8,0,0,1,2.721-1.331,11.868,11.868,0,0,1,3.473-.482,14.964,14.964,0,0,1,2.643.232,10.765,10.765,0,0,1,2.3.656v-1.158A4.054,4.054,0,0,0,329.784,132a4.733,4.733,0,0,0-3.377-1.081,8.944,8.944,0,0,0-3.164.579,14.7,14.7,0,0,0-3.164,1.7l-1.582-3.28a14.93,14.93,0,0,1,8.413-2.586,9.857,9.857,0,0,1,6.773,2.142,7.848,7.848,0,0,1,2.412,6.194v6.29a1.817,1.817,0,0,0,.289,1.158,1.268,1.268,0,0,0,.945.386v4.4a11.514,11.514,0,0,1-2.277.27,3.448,3.448,0,0,1-2.258-.656,2.82,2.82,0,0,1-.984-1.737l-.116-1.119a8.949,8.949,0,0,1-3.28,2.7A9.419,9.419,0,0,1,324.285,148.281Zm1.466-3.782a6.737,6.737,0,0,0,2.489-.463,4.518,4.518,0,0,0,1.833-1.235,1.858,1.858,0,0,0,.849-1.466V139.02a12.661,12.661,0,0,0-2.007-.56,10.809,10.809,0,0,0-2.084-.212,5.524,5.524,0,0,0-3.28.907,2.723,2.723,0,0,0-1.273,2.3,2.763,2.763,0,0,0,1,2.18A3.642,3.642,0,0,0,325.752,144.5Zm33.959,3.4H354.54V136.55a5.911,5.911,0,0,0-.849-3.55,2.789,2.789,0,0,0-2.354-1.119,4.428,4.428,0,0,0-1.582.309,5.823,5.823,0,0,0-1.524.868,7.063,7.063,0,0,0-1.293,1.331,5.264,5.264,0,0,0-.849,1.7V147.9h-5.171V127.674h4.669v3.743a7.659,7.659,0,0,1,3.242-3.01,10.4,10.4,0,0,1,4.785-1.081,6.1,6.1,0,0,1,3.087.695,5.016,5.016,0,0,1,1.852,1.814,7.586,7.586,0,0,1,.907,2.547,16.7,16.7,0,0,1,.251,2.894Zm16.439-1.042a23.08,23.08,0,0,1-2.547.926,10.7,10.7,0,0,1-3.164.463,7.345,7.345,0,0,1-2.026-.27,4.455,4.455,0,0,1-1.659-.868,4.24,4.24,0,0,1-1.138-1.544,5.587,5.587,0,0,1-.424-2.3V131.649h-2.663v-3.975h2.663v-6.56h5.171v6.56h4.245v3.975h-4.245v9.879a1.839,1.839,0,0,0,.56,1.524,2.136,2.136,0,0,0,1.37.444,4.757,4.757,0,0,0,1.582-.27q.772-.27,1.235-.463Zm14.741-14.7a10.2,10.2,0,0,0-4.206.907,5.309,5.309,0,0,0-2.663,2.6V147.9h-5.171V127.674H383.6V132a9.22,9.22,0,0,1,1.273-1.872,9.818,9.818,0,0,1,1.582-1.447,7.337,7.337,0,0,1,1.717-.945,4.74,4.74,0,0,1,1.679-.328h.637a2.062,2.062,0,0,1,.405.039Zm2.894,15.745V127.674h5.171V147.9Zm0-23.038v-5.132h5.171v5.132ZM10.74,198.166a9.13,9.13,0,0,1-6.908-3.049,10.46,10.46,0,0,1-1.987-3.338,11.645,11.645,0,0,1-.714-4.11,12.076,12.076,0,0,1,.675-4.091,10.736,10.736,0,0,1,1.872-3.319,8.627,8.627,0,0,1,2.856-2.238,8.154,8.154,0,0,1,3.627-.81,7.665,7.665,0,0,1,4.033,1.081,7.827,7.827,0,0,1,2.8,2.817v-11.5h5.171v22.228a1.916,1.916,0,0,0,.27,1.158,1.2,1.2,0,0,0,.926.386v4.4a11.722,11.722,0,0,1-2.2.27,3.585,3.585,0,0,1-2.277-.695,2.549,2.549,0,0,1-1-1.814l-.116-1.273a7.335,7.335,0,0,1-3.029,2.914A8.61,8.61,0,0,1,10.74,198.166Zm1.351-4.4a4.855,4.855,0,0,0,1.505-.251,5.3,5.3,0,0,0,1.428-.714,6.251,6.251,0,0,0,1.177-1.081,4.49,4.49,0,0,0,.791-1.351v-4.824a5.646,5.646,0,0,0-.868-1.563,6.427,6.427,0,0,0-1.273-1.235,6.646,6.646,0,0,0-1.505-.83,4.277,4.277,0,0,0-1.563-.309,4.647,4.647,0,0,0-2.142.5,5.085,5.085,0,0,0-1.679,1.37,6.59,6.59,0,0,0-1.081,1.987,7.053,7.053,0,0,0-.386,2.315,6.382,6.382,0,0,0,.424,2.354,6.128,6.128,0,0,0,1.158,1.891A5.271,5.271,0,0,0,9.833,193.3,5.409,5.409,0,0,0,12.091,193.767Zm20.684,4.4a7.671,7.671,0,0,1-2.74-.482,6.586,6.586,0,0,1-2.2-1.351,6.287,6.287,0,0,1-1.447-2.026,6.135,6.135,0,0,1-.521-2.547,5.611,5.611,0,0,1,.637-2.643,6.061,6.061,0,0,1,1.775-2.065A8.8,8.8,0,0,1,31,185.721a11.868,11.868,0,0,1,3.473-.482,14.966,14.966,0,0,1,2.643.232,10.766,10.766,0,0,1,2.3.656v-1.158a4.054,4.054,0,0,0-1.138-3.087A4.733,4.733,0,0,0,34.9,180.8a8.944,8.944,0,0,0-3.164.579,14.7,14.7,0,0,0-3.164,1.7l-1.582-3.28a14.929,14.929,0,0,1,8.413-2.586,9.857,9.857,0,0,1,6.773,2.142,7.848,7.848,0,0,1,2.412,6.194v6.29A1.817,1.817,0,0,0,44.873,193a1.268,1.268,0,0,0,.945.386v4.4a11.513,11.513,0,0,1-2.277.27,3.448,3.448,0,0,1-2.258-.656,2.82,2.82,0,0,1-.984-1.737l-.116-1.119a8.949,8.949,0,0,1-3.28,2.7A9.419,9.419,0,0,1,32.775,198.166Zm1.466-3.782a6.737,6.737,0,0,0,2.489-.463,4.518,4.518,0,0,0,1.833-1.235,1.858,1.858,0,0,0,.849-1.466V188.9a12.66,12.66,0,0,0-2.007-.56,10.809,10.809,0,0,0-2.084-.212,5.524,5.524,0,0,0-3.28.907,2.723,2.723,0,0,0-1.273,2.3,2.763,2.763,0,0,0,1,2.18A3.642,3.642,0,0,0,34.242,194.384Zm33.959,3.4H63.03V186.435a5.911,5.911,0,0,0-.849-3.55,2.789,2.789,0,0,0-2.354-1.119,4.428,4.428,0,0,0-1.582.309,5.824,5.824,0,0,0-1.524.868,7.064,7.064,0,0,0-1.293,1.331,5.264,5.264,0,0,0-.849,1.7V197.78H49.407V177.559h4.669V181.3a7.659,7.659,0,0,1,3.242-3.01,10.4,10.4,0,0,1,4.785-1.081,6.1,6.1,0,0,1,3.087.695,5.016,5.016,0,0,1,1.852,1.814,7.586,7.586,0,0,1,.907,2.547,16.7,16.7,0,0,1,.251,2.894Zm13.738-28.171H87.11V191.3a2.552,2.552,0,0,0,.54,1.737,1.941,1.941,0,0,0,1.544.617,3.874,3.874,0,0,0,1.023-.154,6.916,6.916,0,0,0,1.061-.386l.695,3.936a10,10,0,0,1-2.431.772,13.263,13.263,0,0,1-2.508.27A5.178,5.178,0,0,1,83.27,196.8a4.9,4.9,0,0,1-1.331-3.685Zm21.649,28.557a11.221,11.221,0,0,1-4.4-.83,9.921,9.921,0,0,1-5.5-5.576,10.651,10.651,0,0,1-.753-3.975,11.263,11.263,0,0,1,.733-4.071,9.936,9.936,0,0,1,2.122-3.357,10.133,10.133,0,0,1,3.377-2.3,11.239,11.239,0,0,1,4.457-.849,10.961,10.961,0,0,1,4.419.849,10.161,10.161,0,0,1,3.319,2.277,9.676,9.676,0,0,1,2.084,3.319,11.052,11.052,0,0,1,.714,3.936q0,.5-.019.965a3.924,3.924,0,0,1-.1.772H98.417A6,6,0,0,0,99,191.452a5.2,5.2,0,0,0,2.856,2.586,5.451,5.451,0,0,0,1.93.347,5.961,5.961,0,0,0,2.914-.753,3.983,3.983,0,0,0,1.872-1.987L113,192.879a9.022,9.022,0,0,1-3.57,3.8A11.064,11.064,0,0,1,103.588,198.166Zm5.248-12.195a5.375,5.375,0,0,0-1.679-3.647,5.268,5.268,0,0,0-7.158.019,5.3,5.3,0,0,0-1.138,1.582,5.576,5.576,0,0,0-.521,2.045Zm8.451-16.362h5.171V191.3a2.552,2.552,0,0,0,.54,1.737,1.941,1.941,0,0,0,1.544.617,3.874,3.874,0,0,0,1.023-.154,6.915,6.915,0,0,0,1.061-.386l.695,3.936a10,10,0,0,1-2.431.772,13.263,13.263,0,0,1-2.508.27,5.178,5.178,0,0,1-3.763-1.293,4.9,4.9,0,0,1-1.331-3.685Zm17.79,28.557a7.671,7.671,0,0,1-2.74-.482,6.587,6.587,0,0,1-2.2-1.351,6.287,6.287,0,0,1-1.447-2.026,6.135,6.135,0,0,1-.521-2.547,5.611,5.611,0,0,1,.637-2.643,6.062,6.062,0,0,1,1.775-2.065,8.8,8.8,0,0,1,2.721-1.331,11.868,11.868,0,0,1,3.473-.482,14.966,14.966,0,0,1,2.643.232,10.766,10.766,0,0,1,2.3.656v-1.158a4.054,4.054,0,0,0-1.138-3.087A4.733,4.733,0,0,0,137.2,180.8a8.944,8.944,0,0,0-3.164.579,14.7,14.7,0,0,0-3.164,1.7l-1.582-3.28a14.929,14.929,0,0,1,8.413-2.586,9.857,9.857,0,0,1,6.773,2.142,7.848,7.848,0,0,1,2.412,6.194v6.29a1.817,1.817,0,0,0,.289,1.158,1.268,1.268,0,0,0,.945.386v4.4a11.513,11.513,0,0,1-2.277.27,3.448,3.448,0,0,1-2.258-.656,2.82,2.82,0,0,1-.984-1.737l-.116-1.119a8.949,8.949,0,0,1-3.28,2.7A9.419,9.419,0,0,1,135.078,198.166Zm1.466-3.782a6.737,6.737,0,0,0,2.489-.463,4.518,4.518,0,0,0,1.833-1.235,1.858,1.858,0,0,0,.849-1.466V188.9a12.66,12.66,0,0,0-2.007-.56,10.809,10.809,0,0,0-2.084-.212,5.524,5.524,0,0,0-3.28.907,2.723,2.723,0,0,0-1.273,2.3,2.763,2.763,0,0,0,1,2.18A3.642,3.642,0,0,0,136.544,194.384Zm33.959,3.4h-5.171V186.435a5.726,5.726,0,0,0-.888-3.531,3,3,0,0,0-2.508-1.138,3.951,3.951,0,0,0-1.466.309,5.722,5.722,0,0,0-1.466.868,7.392,7.392,0,0,0-1.273,1.331,5.264,5.264,0,0,0-.849,1.7V197.78H151.71V169.609h5.171V181.3a7.793,7.793,0,0,1,3.029-3.029,8.554,8.554,0,0,1,4.226-1.061,6.649,6.649,0,0,1,3.2.675,5.1,5.1,0,0,1,1.93,1.794,7.384,7.384,0,0,1,.965,2.547,15.744,15.744,0,0,1,.27,2.933Zm25.894.386a7.968,7.968,0,0,1-4.168-1.061,7.55,7.55,0,0,1-2.779-2.875V206H184.28V177.559H188.8v3.473a8.251,8.251,0,0,1,2.894-2.8,8.047,8.047,0,0,1,4.091-1.023,8.658,8.658,0,0,1,3.782.83,9.366,9.366,0,0,1,2.991,2.238,10.416,10.416,0,0,1,1.968,3.319,11.424,11.424,0,0,1,.714,4.033,12.744,12.744,0,0,1-.656,4.129,10.568,10.568,0,0,1-1.833,3.357,8.547,8.547,0,0,1-2.8,2.238A7.826,7.826,0,0,1,196.4,198.166Zm-1.737-4.4a4.647,4.647,0,0,0,2.142-.5,5.191,5.191,0,0,0,1.679-1.351,6.339,6.339,0,0,0,1.081-1.968,7.053,7.053,0,0,0,.386-2.315,6.534,6.534,0,0,0-.424-2.373,5.891,5.891,0,0,0-1.177-1.91,5.483,5.483,0,0,0-1.775-1.273,5.316,5.316,0,0,0-2.219-.463,4.855,4.855,0,0,0-1.505.251,5.3,5.3,0,0,0-1.428.714,6.251,6.251,0,0,0-1.177,1.081,4.489,4.489,0,0,0-.791,1.351v4.747a6.874,6.874,0,0,0,2.122,2.875A4.855,4.855,0,0,0,194.661,193.767Zm23.463,4.4a11.221,11.221,0,0,1-4.4-.83,9.921,9.921,0,0,1-5.5-5.576,10.651,10.651,0,0,1-.753-3.975,11.263,11.263,0,0,1,.733-4.071,9.936,9.936,0,0,1,2.122-3.357,10.133,10.133,0,0,1,3.377-2.3,11.24,11.24,0,0,1,4.457-.849,10.961,10.961,0,0,1,4.419.849,10.161,10.161,0,0,1,3.319,2.277,9.675,9.675,0,0,1,2.084,3.319,11.052,11.052,0,0,1,.714,3.936q0,.5-.019.965a3.923,3.923,0,0,1-.1.772H212.953a6,6,0,0,0,.579,2.122,5.2,5.2,0,0,0,2.856,2.586,5.45,5.45,0,0,0,1.93.347,5.961,5.961,0,0,0,2.914-.753,3.983,3.983,0,0,0,1.872-1.987l4.438,1.235a9.022,9.022,0,0,1-3.57,3.8A11.064,11.064,0,0,1,218.124,198.166Zm5.248-12.195a5.375,5.375,0,0,0-1.679-3.647,5.268,5.268,0,0,0-7.158.019,5.3,5.3,0,0,0-1.138,1.582,5.575,5.575,0,0,0-.521,2.045Zm20.53-3.936a10.2,10.2,0,0,0-4.206.907,5.309,5.309,0,0,0-2.663,2.6V197.78h-5.171V177.559h4.747v4.322a9.219,9.219,0,0,1,1.273-1.872,9.82,9.82,0,0,1,1.582-1.447,7.335,7.335,0,0,1,1.717-.945,4.739,4.739,0,0,1,1.679-.328h.637a2.063,2.063,0,0,1,.405.039Zm1.235,23.308a8.614,8.614,0,0,1-2.778-.444A6.779,6.779,0,0,1,240,203.53l2.238-3.512a2.681,2.681,0,0,0,1.042.637,3.778,3.778,0,0,0,1.235.212,2.4,2.4,0,0,0,1.737-.714,2.447,2.447,0,0,0,.733-1.833V177.559h5.171v20.376a8.082,8.082,0,0,1-.54,2.991,7.128,7.128,0,0,1-1.486,2.354A6.59,6.59,0,0,1,247.9,204.8,7.083,7.083,0,0,1,245.137,205.344Zm1.852-30.6v-5.132h5.171v5.132Zm15.4,23.424a7.671,7.671,0,0,1-2.74-.482,6.586,6.586,0,0,1-2.2-1.351A6.286,6.286,0,0,1,256,194.307a6.135,6.135,0,0,1-.521-2.547,5.61,5.61,0,0,1,.637-2.643,6.061,6.061,0,0,1,1.775-2.065,8.8,8.8,0,0,1,2.721-1.331,11.868,11.868,0,0,1,3.473-.482,14.966,14.966,0,0,1,2.643.232,10.766,10.766,0,0,1,2.3.656v-1.158a4.054,4.054,0,0,0-1.138-3.087,4.733,4.733,0,0,0-3.377-1.081,8.944,8.944,0,0,0-3.164.579,14.7,14.7,0,0,0-3.164,1.7L256.6,179.8a14.929,14.929,0,0,1,8.413-2.586,9.857,9.857,0,0,1,6.773,2.142,7.848,7.848,0,0,1,2.412,6.194v6.29a1.817,1.817,0,0,0,.289,1.158,1.268,1.268,0,0,0,.945.386v4.4a11.513,11.513,0,0,1-2.277.27,3.448,3.448,0,0,1-2.258-.656,2.82,2.82,0,0,1-.984-1.737l-.116-1.119a8.949,8.949,0,0,1-3.28,2.7A9.419,9.419,0,0,1,262.387,198.166Zm1.466-3.782a6.737,6.737,0,0,0,2.489-.463,4.518,4.518,0,0,0,1.833-1.235,1.858,1.858,0,0,0,.849-1.466V188.9a12.659,12.659,0,0,0-2.007-.56,10.808,10.808,0,0,0-2.084-.212,5.524,5.524,0,0,0-3.28.907,2.723,2.723,0,0,0-1.273,2.3,2.763,2.763,0,0,0,1,2.18A3.642,3.642,0,0,0,263.853,194.384Zm15.127-24.775h5.171V191.3a2.553,2.553,0,0,0,.54,1.737,1.941,1.941,0,0,0,1.544.617,3.873,3.873,0,0,0,1.023-.154,6.915,6.915,0,0,0,1.061-.386l.695,3.936a10,10,0,0,1-2.431.772,13.263,13.263,0,0,1-2.508.27,5.178,5.178,0,0,1-3.763-1.293,4.9,4.9,0,0,1-1.331-3.685Zm17.79,28.557a7.671,7.671,0,0,1-2.74-.482,6.586,6.586,0,0,1-2.2-1.351,6.287,6.287,0,0,1-1.447-2.026,6.135,6.135,0,0,1-.521-2.547,5.611,5.611,0,0,1,.637-2.643,6.061,6.061,0,0,1,1.775-2.065A8.8,8.8,0,0,1,295,185.721a11.868,11.868,0,0,1,3.473-.482,14.966,14.966,0,0,1,2.643.232,10.767,10.767,0,0,1,2.3.656v-1.158a4.054,4.054,0,0,0-1.138-3.087,4.733,4.733,0,0,0-3.377-1.081,8.944,8.944,0,0,0-3.164.579,14.7,14.7,0,0,0-3.164,1.7l-1.582-3.28a14.929,14.929,0,0,1,8.413-2.586,9.857,9.857,0,0,1,6.773,2.142,7.848,7.848,0,0,1,2.412,6.194v6.29a1.817,1.817,0,0,0,.289,1.158,1.268,1.268,0,0,0,.945.386v4.4a11.513,11.513,0,0,1-2.277.27,3.448,3.448,0,0,1-2.258-.656,2.82,2.82,0,0,1-.984-1.737l-.116-1.119a8.949,8.949,0,0,1-3.28,2.7A9.419,9.419,0,0,1,296.771,198.166Zm1.466-3.782a6.737,6.737,0,0,0,2.489-.463,4.518,4.518,0,0,0,1.833-1.235,1.858,1.858,0,0,0,.849-1.466V188.9a12.66,12.66,0,0,0-2.007-.56,10.809,10.809,0,0,0-2.084-.212,5.524,5.524,0,0,0-3.28.907,2.723,2.723,0,0,0-1.273,2.3,2.763,2.763,0,0,0,1,2.18A3.642,3.642,0,0,0,298.237,194.384Zm33.959,3.4h-5.171V186.435a5.91,5.91,0,0,0-.849-3.55,2.789,2.789,0,0,0-2.354-1.119,4.428,4.428,0,0,0-1.582.309,5.823,5.823,0,0,0-1.524.868,7.064,7.064,0,0,0-1.293,1.331,5.265,5.265,0,0,0-.849,1.7V197.78H313.4V177.559h4.669V181.3a7.659,7.659,0,0,1,3.242-3.01,10.4,10.4,0,0,1,4.785-1.081,6.1,6.1,0,0,1,3.087.695,5.016,5.016,0,0,1,1.852,1.814,7.586,7.586,0,0,1,.907,2.547,16.7,16.7,0,0,1,.251,2.894Zm10.033.386a7.671,7.671,0,0,1-2.74-.482,6.586,6.586,0,0,1-2.2-1.351,6.287,6.287,0,0,1-1.447-2.026,6.135,6.135,0,0,1-.521-2.547,5.61,5.61,0,0,1,.637-2.643,6.061,6.061,0,0,1,1.775-2.065,8.8,8.8,0,0,1,2.721-1.331,11.868,11.868,0,0,1,3.473-.482,14.965,14.965,0,0,1,2.643.232,10.767,10.767,0,0,1,2.3.656v-1.158a4.054,4.054,0,0,0-1.138-3.087,4.733,4.733,0,0,0-3.377-1.081,8.944,8.944,0,0,0-3.164.579,14.7,14.7,0,0,0-3.164,1.7l-1.582-3.28a14.929,14.929,0,0,1,8.413-2.586,9.857,9.857,0,0,1,6.773,2.142,7.848,7.848,0,0,1,2.412,6.194v6.29a1.817,1.817,0,0,0,.289,1.158,1.268,1.268,0,0,0,.945.386v4.4a11.514,11.514,0,0,1-2.277.27,3.448,3.448,0,0,1-2.258-.656,2.82,2.82,0,0,1-.984-1.737l-.116-1.119a8.949,8.949,0,0,1-3.28,2.7A9.419,9.419,0,0,1,342.23,198.166Zm1.466-3.782a6.737,6.737,0,0,0,2.489-.463,4.518,4.518,0,0,0,1.833-1.235,1.858,1.858,0,0,0,.849-1.466V188.9a12.661,12.661,0,0,0-2.007-.56,10.809,10.809,0,0,0-2.084-.212,5.525,5.525,0,0,0-3.28.907,2.723,2.723,0,0,0-1.273,2.3,2.763,2.763,0,0,0,1,2.18A3.642,3.642,0,0,0,343.7,194.384Zm33.959,3.4h-5.171V186.435a5.91,5.91,0,0,0-.849-3.55,2.789,2.789,0,0,0-2.354-1.119,4.428,4.428,0,0,0-1.582.309,5.823,5.823,0,0,0-1.524.868,7.065,7.065,0,0,0-1.293,1.331,5.264,5.264,0,0,0-.849,1.7V197.78h-5.171V177.559h4.669V181.3a7.659,7.659,0,0,1,3.242-3.01,10.4,10.4,0,0,1,4.785-1.081,6.1,6.1,0,0,1,3.087.695,5.016,5.016,0,0,1,1.852,1.814,7.586,7.586,0,0,1,.907,2.547,16.7,16.7,0,0,1,.251,2.894Zm4.4,0v-5.557H386.3v5.557Z" transform="translate(-14118 -14896)" fill="#fff"/>
  </g>
</svg>
