<svg xmlns="http://www.w3.org/2000/svg" xmlns:xlink="http://www.w3.org/1999/xlink" width="486" height="263" viewBox="0 0 486 263">
  <defs>
    <clipPath id="clip-path">
      <rect id="Rectangle_2079" data-name="Rectangle 2079" width="486" height="263" transform="translate(-14118 -14935)" fill="#8ccc54"/>
    </clipPath>
  </defs>
  <g id="Mask_Group_31" data-name="Mask Group 31" transform="translate(14118 14935)" clip-path="url(#clip-path)">
    <path id="Path_800" data-name="Path 800" d="M27.426,0V-19.74L19.74-5.04H16.59L8.9-19.74V0h-5.8V-29.82H9.324l8.82,16.968,8.9-16.968h6.174V0ZM45.612.42a6.249,6.249,0,0,1-5.166-2.184q-1.764-2.184-1.764-6.468V-22.008H44.31V-9.45q0,5.082,3.654,5.082a5.781,5.781,0,0,0,3.171-.987,7.092,7.092,0,0,0,2.5-3v-13.65h5.628v15.54a1.978,1.978,0,0,0,.315,1.26,1.38,1.38,0,0,0,1.029.42V0A11.888,11.888,0,0,1,59.2.21q-.567.042-1.029.042a4.054,4.054,0,0,1-2.457-.693A2.73,2.73,0,0,1,54.6-2.352l-.126-1.764a9.379,9.379,0,0,1-3.78,3.4A11.375,11.375,0,0,1,45.612.42ZM64.806-30.66h5.628v23.6a2.778,2.778,0,0,0,.588,1.89,2.113,2.113,0,0,0,1.68.672,4.216,4.216,0,0,0,1.113-.168,7.528,7.528,0,0,0,1.155-.42L75.726-.8a10.884,10.884,0,0,1-2.646.84,14.435,14.435,0,0,1-2.73.294,5.636,5.636,0,0,1-4.1-1.407,5.334,5.334,0,0,1-1.449-4.011ZM84.168.42a8.349,8.349,0,0,1-2.982-.525,7.168,7.168,0,0,1-2.394-1.47A6.842,6.842,0,0,1,77.217-3.78a6.677,6.677,0,0,1-.567-2.772,6.106,6.106,0,0,1,.693-2.877,6.6,6.6,0,0,1,1.932-2.247,9.578,9.578,0,0,1,2.961-1.449,12.916,12.916,0,0,1,3.78-.525,16.287,16.287,0,0,1,2.877.252,11.719,11.719,0,0,1,2.5.714v-1.26a4.412,4.412,0,0,0-1.239-3.36,5.151,5.151,0,0,0-3.675-1.176,9.734,9.734,0,0,0-3.444.63A15.993,15.993,0,0,0,79.59-16l-1.722-3.57a16.248,16.248,0,0,1,9.156-2.814q4.746,0,7.371,2.331a8.541,8.541,0,0,1,2.625,6.741v6.846a1.978,1.978,0,0,0,.315,1.26,1.38,1.38,0,0,0,1.029.42V0a12.53,12.53,0,0,1-2.478.294A3.752,3.752,0,0,1,93.429-.42a3.069,3.069,0,0,1-1.071-1.89l-.126-1.218a9.74,9.74,0,0,1-3.57,2.94A10.252,10.252,0,0,1,84.168.42Zm1.6-4.116a7.332,7.332,0,0,0,2.709-.5,4.917,4.917,0,0,0,2-1.344,2.022,2.022,0,0,0,.924-1.6V-9.66a13.779,13.779,0,0,0-2.184-.609A11.764,11.764,0,0,0,86.94-10.5a6.013,6.013,0,0,0-3.57.987,2.964,2.964,0,0,0-1.386,2.5,3.007,3.007,0,0,0,1.092,2.373A3.964,3.964,0,0,0,85.764-3.7ZM102.27,0V-22.008H107.9V0Zm0-25.074V-30.66H107.9v5.586ZM131.376.42a17.025,17.025,0,0,1-5.418-.882,13.214,13.214,0,0,1-4.536-2.52l2.1-3.528a18.093,18.093,0,0,0,3.927,2.163,10.528,10.528,0,0,0,3.8.735,4.8,4.8,0,0,0,2.646-.63,2.029,2.029,0,0,0,.966-1.806,1.8,1.8,0,0,0-1.134-1.722,24.486,24.486,0,0,0-3.7-1.26q-2.142-.588-3.654-1.134a9.377,9.377,0,0,1-2.436-1.239A4.239,4.239,0,0,1,122.6-13a5.1,5.1,0,0,1-.42-2.163,6.848,6.848,0,0,1,.651-3.024,6.588,6.588,0,0,1,1.827-2.289,8.458,8.458,0,0,1,2.751-1.449,11.176,11.176,0,0,1,3.423-.5,14.717,14.717,0,0,1,4.641.714,11.311,11.311,0,0,1,3.969,2.31L137.172-16a13.179,13.179,0,0,0-3.255-1.848,8.9,8.9,0,0,0-3.129-.588,4.529,4.529,0,0,0-2.394.588,2.045,2.045,0,0,0-.966,1.89,1.828,1.828,0,0,0,.231.966,2.035,2.035,0,0,0,.735.672,7.174,7.174,0,0,0,1.323.567q.819.273,2.037.567,2.268.588,3.885,1.176a10.577,10.577,0,0,1,2.646,1.344A4.785,4.785,0,0,1,139.8-8.925a5.353,5.353,0,0,1,.483,2.373,6.124,6.124,0,0,1-2.394,5.1A10.313,10.313,0,0,1,131.376.42Zm22.764,0a12.212,12.212,0,0,1-4.788-.9A10.979,10.979,0,0,1,145.7-2.94a10.907,10.907,0,0,1-2.331-3.612,11.592,11.592,0,0,1-.819-4.326,12.258,12.258,0,0,1,.8-4.431,10.814,10.814,0,0,1,2.31-3.654,11.028,11.028,0,0,1,3.675-2.5,12.233,12.233,0,0,1,4.851-.924,11.929,11.929,0,0,1,4.809.924,11.059,11.059,0,0,1,3.612,2.478,10.531,10.531,0,0,1,2.268,3.612,12.029,12.029,0,0,1,.777,4.284q0,.546-.021,1.05a4.27,4.27,0,0,1-.105.84h-17.01a6.531,6.531,0,0,0,.63,2.31,5.709,5.709,0,0,0,1.3,1.722,5.671,5.671,0,0,0,1.806,1.092,5.932,5.932,0,0,0,2.1.378,6.488,6.488,0,0,0,3.171-.819,4.335,4.335,0,0,0,2.037-2.163l4.83,1.344A9.819,9.819,0,0,1,160.5-1.2,12.041,12.041,0,0,1,154.14.42Zm5.712-13.272a5.85,5.85,0,0,0-1.827-3.969,5.584,5.584,0,0,0-3.927-1.491,5.605,5.605,0,0,0-2.121.4,5.534,5.534,0,0,0-1.743,1.113A5.769,5.769,0,0,0,149-15.078a6.068,6.068,0,0,0-.567,2.226ZM184.128,0l-6.384-9.534L174.72-6.552V0h-5.628V-30.66h5.628v18.606l8.82-9.912h6.006l-8.19,9.324L190.134,0ZM198.24.42a8.349,8.349,0,0,1-2.982-.525,7.168,7.168,0,0,1-2.394-1.47,6.842,6.842,0,0,1-1.575-2.205,6.677,6.677,0,0,1-.567-2.772,6.107,6.107,0,0,1,.693-2.877,6.6,6.6,0,0,1,1.932-2.247,9.578,9.578,0,0,1,2.961-1.449,12.916,12.916,0,0,1,3.78-.525,16.288,16.288,0,0,1,2.877.252,11.719,11.719,0,0,1,2.5.714v-1.26a4.412,4.412,0,0,0-1.239-3.36,5.151,5.151,0,0,0-3.675-1.176,9.734,9.734,0,0,0-3.444.63A15.993,15.993,0,0,0,193.662-16l-1.722-3.57a16.248,16.248,0,0,1,9.156-2.814q4.746,0,7.371,2.331a8.541,8.541,0,0,1,2.625,6.741v6.846a1.978,1.978,0,0,0,.315,1.26,1.38,1.38,0,0,0,1.029.42V0a12.53,12.53,0,0,1-2.478.294A3.752,3.752,0,0,1,207.5-.42a3.07,3.07,0,0,1-1.071-1.89L206.3-3.528a9.74,9.74,0,0,1-3.57,2.94A10.252,10.252,0,0,1,198.24.42Zm1.6-4.116a7.332,7.332,0,0,0,2.709-.5,4.917,4.917,0,0,0,1.995-1.344,2.022,2.022,0,0,0,.924-1.6V-9.66a13.78,13.78,0,0,0-2.184-.609,11.764,11.764,0,0,0-2.268-.231,6.013,6.013,0,0,0-3.57.987,2.964,2.964,0,0,0-1.386,2.5,3.007,3.007,0,0,0,1.092,2.373A3.964,3.964,0,0,0,199.836-3.7Zm29.61-13.44a11.1,11.1,0,0,0-4.578.987,5.778,5.778,0,0,0-2.9,2.835V0h-5.628V-22.008h5.166v4.7a10.034,10.034,0,0,1,1.386-2.037,10.688,10.688,0,0,1,1.722-1.575,7.984,7.984,0,0,1,1.869-1.029,5.158,5.158,0,0,1,1.827-.357h.693a2.245,2.245,0,0,1,.441.042ZM238.308.42a8.349,8.349,0,0,1-2.982-.525,7.168,7.168,0,0,1-2.394-1.47,6.842,6.842,0,0,1-1.575-2.205,6.677,6.677,0,0,1-.567-2.772,6.107,6.107,0,0,1,.693-2.877,6.6,6.6,0,0,1,1.932-2.247,9.578,9.578,0,0,1,2.961-1.449,12.916,12.916,0,0,1,3.78-.525,16.288,16.288,0,0,1,2.877.252,11.719,11.719,0,0,1,2.5.714v-1.26a4.412,4.412,0,0,0-1.239-3.36,5.151,5.151,0,0,0-3.675-1.176,9.734,9.734,0,0,0-3.444.63A15.993,15.993,0,0,0,233.73-16l-1.722-3.57a16.248,16.248,0,0,1,9.156-2.814q4.746,0,7.371,2.331a8.541,8.541,0,0,1,2.625,6.741v6.846a1.978,1.978,0,0,0,.315,1.26,1.38,1.38,0,0,0,1.029.42V0a12.53,12.53,0,0,1-2.478.294,3.752,3.752,0,0,1-2.457-.714A3.07,3.07,0,0,1,246.5-2.31l-.126-1.218a9.74,9.74,0,0,1-3.57,2.94A10.252,10.252,0,0,1,238.308.42ZM239.9-3.7a7.332,7.332,0,0,0,2.709-.5,4.917,4.917,0,0,0,1.995-1.344,2.022,2.022,0,0,0,.924-1.6V-9.66a13.78,13.78,0,0,0-2.184-.609,11.764,11.764,0,0,0-2.268-.231,6.013,6.013,0,0,0-3.57.987,2.964,2.964,0,0,0-1.386,2.5,3.007,3.007,0,0,0,1.092,2.373A3.964,3.964,0,0,0,239.9-3.7ZM276.864,0h-5.628V-12.348a6.433,6.433,0,0,0-.924-3.864,3.035,3.035,0,0,0-2.562-1.218,4.82,4.82,0,0,0-1.722.336,6.338,6.338,0,0,0-1.659.945,7.687,7.687,0,0,0-1.407,1.449,5.729,5.729,0,0,0-.924,1.848V0H256.41V-22.008h5.082v4.074a8.336,8.336,0,0,1,3.528-3.276,11.315,11.315,0,0,1,5.208-1.176,6.633,6.633,0,0,1,3.36.756,5.459,5.459,0,0,1,2.016,1.974,8.257,8.257,0,0,1,.987,2.772,18.173,18.173,0,0,1,.273,3.15Zm13.524.126a9.065,9.065,0,0,1-4.032-.882,9.74,9.74,0,0,1-3.129-2.415A10.987,10.987,0,0,1,281.19-6.72,12.738,12.738,0,0,1,280.476-11a12.814,12.814,0,0,1,.756-4.452,11.552,11.552,0,0,1,2.1-3.612,9.581,9.581,0,0,1,3.234-2.436,9.71,9.71,0,0,1,4.158-.882,8.59,8.59,0,0,1,4.494,1.155,9.74,9.74,0,0,1,3.192,3.087v-3.864h4.914V-1.05a10,10,0,0,1-.924,4.368,9.579,9.579,0,0,1-2.541,3.276A11.342,11.342,0,0,1,296,8.652a16.081,16.081,0,0,1-4.893.714,13.791,13.791,0,0,1-6.069-1.2,12.3,12.3,0,0,1-4.221-3.381l3.066-2.982a8.716,8.716,0,0,0,3.171,2.436,9.557,9.557,0,0,0,4.053.882,8.7,8.7,0,0,0,2.5-.357,6.034,6.034,0,0,0,2.121-1.113,5.175,5.175,0,0,0,1.449-1.932A6.754,6.754,0,0,0,297.7-1.05V-3.822A7.428,7.428,0,0,1,294.63-.9,9.043,9.043,0,0,1,290.388.126Zm1.89-4.494a5.3,5.3,0,0,0,1.764-.294,6.274,6.274,0,0,0,1.554-.8,6.286,6.286,0,0,0,1.26-1.176,5.314,5.314,0,0,0,.84-1.428v-5.25a6.83,6.83,0,0,0-2.373-3.108,5.667,5.667,0,0,0-3.381-1.176,4.87,4.87,0,0,0-2.352.567,5.856,5.856,0,0,0-1.806,1.512,6.833,6.833,0,0,0-1.155,2.163,8.044,8.044,0,0,0-.4,2.52,6.829,6.829,0,0,0,.462,2.52,6.465,6.465,0,0,0,1.281,2.058,6.034,6.034,0,0,0,1.911,1.386A5.643,5.643,0,0,0,292.278-4.368Zm39.4,3.234A25.115,25.115,0,0,1,328.9-.126a11.645,11.645,0,0,1-3.444.5,7.994,7.994,0,0,1-2.2-.294,4.849,4.849,0,0,1-1.806-.945,4.616,4.616,0,0,1-1.239-1.68,6.081,6.081,0,0,1-.462-2.5V-17.682h-2.9v-4.326h2.9v-7.14h5.628v7.14h4.62v4.326h-4.62V-6.93a2,2,0,0,0,.609,1.659,2.325,2.325,0,0,0,1.491.483,5.177,5.177,0,0,0,1.722-.294q.84-.294,1.344-.5ZM344.274.42a12.212,12.212,0,0,1-4.788-.9,10.979,10.979,0,0,1-3.654-2.457A10.906,10.906,0,0,1,333.5-6.552a11.592,11.592,0,0,1-.819-4.326,12.258,12.258,0,0,1,.8-4.431,10.814,10.814,0,0,1,2.31-3.654,11.028,11.028,0,0,1,3.675-2.5,12.233,12.233,0,0,1,4.851-.924,11.929,11.929,0,0,1,4.809.924,11.058,11.058,0,0,1,3.612,2.478,10.53,10.53,0,0,1,2.268,3.612,12.029,12.029,0,0,1,.777,4.284q0,.546-.021,1.05a4.272,4.272,0,0,1-.105.84h-17.01a6.53,6.53,0,0,0,.63,2.31,5.709,5.709,0,0,0,1.3,1.722,5.671,5.671,0,0,0,1.806,1.092,5.932,5.932,0,0,0,2.1.378,6.488,6.488,0,0,0,3.171-.819,4.335,4.335,0,0,0,2.037-2.163l4.83,1.344A9.819,9.819,0,0,1,350.637-1.2,12.041,12.041,0,0,1,344.274.42Zm5.712-13.272a5.851,5.851,0,0,0-1.827-3.969,5.584,5.584,0,0,0-3.927-1.491,5.605,5.605,0,0,0-2.121.4,5.534,5.534,0,0,0-1.743,1.113,5.768,5.768,0,0,0-1.239,1.722,6.069,6.069,0,0,0-.567,2.226Zm22.344-4.284a11.1,11.1,0,0,0-4.578.987,5.778,5.778,0,0,0-2.9,2.835V0h-5.628V-22.008h5.166v4.7a10.034,10.034,0,0,1,1.386-2.037,10.687,10.687,0,0,1,1.722-1.575,7.985,7.985,0,0,1,1.869-1.029A5.158,5.158,0,0,1,371.2-22.3h.693a2.245,2.245,0,0,1,.441.042ZM381.192.42a8.349,8.349,0,0,1-2.982-.525,7.169,7.169,0,0,1-2.394-1.47,6.842,6.842,0,0,1-1.575-2.205,6.677,6.677,0,0,1-.567-2.772,6.106,6.106,0,0,1,.693-2.877,6.6,6.6,0,0,1,1.932-2.247,9.578,9.578,0,0,1,2.961-1.449,12.917,12.917,0,0,1,3.78-.525,16.288,16.288,0,0,1,2.877.252,11.718,11.718,0,0,1,2.5.714v-1.26a4.412,4.412,0,0,0-1.239-3.36A5.151,5.151,0,0,0,383.5-18.48a9.734,9.734,0,0,0-3.444.63A15.993,15.993,0,0,0,376.614-16l-1.722-3.57a16.248,16.248,0,0,1,9.156-2.814q4.746,0,7.371,2.331a8.541,8.541,0,0,1,2.625,6.741v6.846a1.978,1.978,0,0,0,.315,1.26,1.38,1.38,0,0,0,1.029.42V0a12.53,12.53,0,0,1-2.478.294,3.752,3.752,0,0,1-2.457-.714,3.069,3.069,0,0,1-1.071-1.89l-.126-1.218a9.74,9.74,0,0,1-3.57,2.94A10.252,10.252,0,0,1,381.192.42Zm1.6-4.116a7.332,7.332,0,0,0,2.709-.5,4.917,4.917,0,0,0,1.995-1.344,2.022,2.022,0,0,0,.924-1.6V-9.66a13.779,13.779,0,0,0-2.184-.609,11.764,11.764,0,0,0-2.268-.231,6.013,6.013,0,0,0-3.57.987,2.964,2.964,0,0,0-1.386,2.5A3.007,3.007,0,0,0,380.1-4.641,3.964,3.964,0,0,0,382.788-3.7ZM412.482.42a8.672,8.672,0,0,1-4.536-1.155,8.217,8.217,0,0,1-3.024-3.129V8.946h-5.628V-22.008h4.914v3.78a8.98,8.98,0,0,1,3.15-3.045,8.758,8.758,0,0,1,4.452-1.113,9.423,9.423,0,0,1,4.116.9,10.194,10.194,0,0,1,3.255,2.436,11.337,11.337,0,0,1,2.142,3.612,12.433,12.433,0,0,1,.777,4.389,13.869,13.869,0,0,1-.714,4.494A11.5,11.5,0,0,1,419.391-2.9a9.3,9.3,0,0,1-3.045,2.436A8.518,8.518,0,0,1,412.482.42Zm-1.89-4.788a5.058,5.058,0,0,0,2.331-.546,5.65,5.65,0,0,0,1.827-1.47,6.9,6.9,0,0,0,1.176-2.142,7.677,7.677,0,0,0,.42-2.52,7.112,7.112,0,0,0-.462-2.583,6.412,6.412,0,0,0-1.281-2.079,5.967,5.967,0,0,0-1.932-1.386,5.785,5.785,0,0,0-2.415-.5,5.285,5.285,0,0,0-1.638.273,5.772,5.772,0,0,0-1.554.777,6.8,6.8,0,0,0-1.281,1.176,4.887,4.887,0,0,0-.861,1.47v5.166a7.481,7.481,0,0,0,2.31,3.129A5.284,5.284,0,0,0,410.592-4.368ZM425.922,0V-22.008h5.628V0Zm0-25.074V-30.66h5.628v5.586ZM15.75,52.866a25.116,25.116,0,0,1-2.772,1.008,11.645,11.645,0,0,1-3.444.5,7.994,7.994,0,0,1-2.205-.294,4.849,4.849,0,0,1-1.806-.945,4.616,4.616,0,0,1-1.239-1.68,6.081,6.081,0,0,1-.462-2.5V36.318H.924V31.992h2.9v-7.14H9.45v7.14h4.62v4.326H9.45V47.07a2,2,0,0,0,.609,1.659,2.325,2.325,0,0,0,1.491.483,5.177,5.177,0,0,0,1.722-.294q.84-.294,1.344-.5ZM18.69,54V31.992h5.628V54Zm0-25.074V23.34h5.628v5.586ZM38.514,54.42A9.936,9.936,0,0,1,31,51.1a11.384,11.384,0,0,1-2.163-3.633A12.674,12.674,0,0,1,28.056,43a13.143,13.143,0,0,1,.735-4.452,11.685,11.685,0,0,1,2.037-3.612A9.389,9.389,0,0,1,33.936,32.5a8.875,8.875,0,0,1,3.948-.882,8.342,8.342,0,0,1,4.389,1.176,8.519,8.519,0,0,1,3.045,3.066V23.34h5.628V47.532a2.085,2.085,0,0,0,.294,1.26,1.307,1.307,0,0,0,1.008.42V54a12.757,12.757,0,0,1-2.394.294,3.9,3.9,0,0,1-2.478-.756,2.774,2.774,0,0,1-1.092-1.974l-.126-1.386a7.983,7.983,0,0,1-3.3,3.171A9.371,9.371,0,0,1,38.514,54.42Zm1.47-4.788a5.284,5.284,0,0,0,1.638-.273,5.773,5.773,0,0,0,1.554-.777,6.8,6.8,0,0,0,1.281-1.176,4.886,4.886,0,0,0,.861-1.47v-5.25a6.145,6.145,0,0,0-.945-1.7,7,7,0,0,0-1.386-1.344,7.232,7.232,0,0,0-1.638-.9,4.655,4.655,0,0,0-1.7-.336,5.058,5.058,0,0,0-2.331.546,5.534,5.534,0,0,0-1.827,1.491A7.173,7.173,0,0,0,34.314,40.6a7.676,7.676,0,0,0-.42,2.52,6.946,6.946,0,0,0,.462,2.562,6.669,6.669,0,0,0,1.26,2.058,5.737,5.737,0,0,0,1.911,1.386A5.887,5.887,0,0,0,39.984,49.632ZM62.5,54.42a8.349,8.349,0,0,1-2.982-.525,7.168,7.168,0,0,1-2.394-1.47,6.842,6.842,0,0,1-1.575-2.2,6.677,6.677,0,0,1-.567-2.772,6.106,6.106,0,0,1,.693-2.877A6.6,6.6,0,0,1,57.6,42.324a9.578,9.578,0,0,1,2.961-1.449,12.916,12.916,0,0,1,3.78-.525,16.288,16.288,0,0,1,2.877.252,11.719,11.719,0,0,1,2.5.714v-1.26a4.412,4.412,0,0,0-1.239-3.36,5.151,5.151,0,0,0-3.675-1.176,9.734,9.734,0,0,0-3.444.63A15.993,15.993,0,0,0,57.918,38L56.2,34.428a16.248,16.248,0,0,1,9.156-2.814q4.746,0,7.371,2.331a8.541,8.541,0,0,1,2.625,6.741v6.846a1.978,1.978,0,0,0,.315,1.26,1.38,1.38,0,0,0,1.029.42V54a12.53,12.53,0,0,1-2.478.294,3.752,3.752,0,0,1-2.457-.714,3.069,3.069,0,0,1-1.071-1.89l-.126-1.218a9.74,9.74,0,0,1-3.57,2.94A10.252,10.252,0,0,1,62.5,54.42Zm1.6-4.116a7.332,7.332,0,0,0,2.709-.5,4.917,4.917,0,0,0,2-1.344,2.022,2.022,0,0,0,.924-1.6V44.34a13.778,13.778,0,0,0-2.184-.609,11.764,11.764,0,0,0-2.268-.231,6.013,6.013,0,0,0-3.57.987,2.964,2.964,0,0,0-1.386,2.5A3.007,3.007,0,0,0,61.4,49.359,3.964,3.964,0,0,0,64.092,50.3ZM95.634,54,89.25,44.466l-3.024,2.982V54H80.6V23.34h5.628V41.946l8.82-9.912h6.006l-8.19,9.324L101.64,54Zm38.934,0H128.94V41.652a6.232,6.232,0,0,0-.966-3.843,3.261,3.261,0,0,0-2.73-1.239,4.3,4.3,0,0,0-1.6.336,6.227,6.227,0,0,0-1.6.945,8.046,8.046,0,0,0-1.386,1.449,5.729,5.729,0,0,0-.924,1.848V54h-5.628V23.34h5.628V36.066a8.481,8.481,0,0,1,3.3-3.3,9.309,9.309,0,0,1,4.6-1.155,7.237,7.237,0,0,1,3.486.735,5.545,5.545,0,0,1,2.1,1.953,8.036,8.036,0,0,1,1.05,2.772,17.135,17.135,0,0,1,.294,3.192Zm10.92.42a8.349,8.349,0,0,1-2.982-.525,7.168,7.168,0,0,1-2.394-1.47,6.842,6.842,0,0,1-1.575-2.2,6.677,6.677,0,0,1-.567-2.772,6.107,6.107,0,0,1,.693-2.877,6.6,6.6,0,0,1,1.932-2.247,9.578,9.578,0,0,1,2.961-1.449,12.916,12.916,0,0,1,3.78-.525,16.288,16.288,0,0,1,2.877.252,11.719,11.719,0,0,1,2.5.714v-1.26a4.412,4.412,0,0,0-1.239-3.36A5.151,5.151,0,0,0,147.8,35.52a9.734,9.734,0,0,0-3.444.63A15.993,15.993,0,0,0,140.91,38l-1.722-3.57a16.248,16.248,0,0,1,9.156-2.814q4.746,0,7.371,2.331a8.541,8.541,0,0,1,2.625,6.741v6.846a1.978,1.978,0,0,0,.315,1.26,1.38,1.38,0,0,0,1.029.42V54a12.531,12.531,0,0,1-2.478.294,3.752,3.752,0,0,1-2.457-.714,3.07,3.07,0,0,1-1.071-1.89l-.126-1.218a9.74,9.74,0,0,1-3.57,2.94A10.252,10.252,0,0,1,145.488,54.42Zm1.6-4.116a7.332,7.332,0,0,0,2.709-.5,4.917,4.917,0,0,0,1.995-1.344,2.022,2.022,0,0,0,.924-1.6V44.34a13.779,13.779,0,0,0-2.184-.609,11.764,11.764,0,0,0-2.268-.231,6.013,6.013,0,0,0-3.57.987,2.964,2.964,0,0,0-1.386,2.5,3.007,3.007,0,0,0,1.092,2.373A3.964,3.964,0,0,0,147.084,50.3Zm29.61-13.44a11.1,11.1,0,0,0-4.578.987,5.778,5.778,0,0,0-2.9,2.835V54H163.59V31.992h5.166v4.7a10.034,10.034,0,0,1,1.386-2.037,10.688,10.688,0,0,1,1.722-1.575,7.984,7.984,0,0,1,1.869-1.029,5.158,5.158,0,0,1,1.827-.357h.693a2.245,2.245,0,0,1,.441.042Zm9.87,17.556a6.25,6.25,0,0,1-5.166-2.184q-1.764-2.184-1.764-6.468V31.992h5.628V44.55q0,5.082,3.654,5.082a5.781,5.781,0,0,0,3.171-.987,7.092,7.092,0,0,0,2.5-3V31.992h5.628v15.54a1.978,1.978,0,0,0,.315,1.26,1.38,1.38,0,0,0,1.029.42V54a11.887,11.887,0,0,1-1.407.21q-.567.042-1.029.042a4.054,4.054,0,0,1-2.457-.693,2.73,2.73,0,0,1-1.113-1.911l-.126-1.764a9.379,9.379,0,0,1-3.78,3.4A11.374,11.374,0,0,1,186.564,54.42Zm27.552,0a17.025,17.025,0,0,1-5.418-.882,13.214,13.214,0,0,1-4.536-2.52l2.1-3.528a18.093,18.093,0,0,0,3.927,2.163,10.528,10.528,0,0,0,3.8.735,4.8,4.8,0,0,0,2.646-.63,2.029,2.029,0,0,0,.966-1.806,1.8,1.8,0,0,0-1.134-1.722,24.486,24.486,0,0,0-3.7-1.26q-2.142-.588-3.654-1.134a9.377,9.377,0,0,1-2.436-1.239,4.239,4.239,0,0,1-1.344-1.6,5.1,5.1,0,0,1-.42-2.163,6.848,6.848,0,0,1,.651-3.024,6.588,6.588,0,0,1,1.827-2.289,8.457,8.457,0,0,1,2.751-1.449,11.176,11.176,0,0,1,3.423-.5,14.717,14.717,0,0,1,4.641.714,11.311,11.311,0,0,1,3.969,2.31L219.912,38a13.179,13.179,0,0,0-3.255-1.848,8.9,8.9,0,0,0-3.129-.588,4.529,4.529,0,0,0-2.394.588,2.045,2.045,0,0,0-.966,1.89,1.828,1.828,0,0,0,.231.966,2.035,2.035,0,0,0,.735.672,7.174,7.174,0,0,0,1.323.567q.819.273,2.037.567,2.268.588,3.885,1.176a10.577,10.577,0,0,1,2.646,1.344,4.785,4.785,0,0,1,1.512,1.743,5.353,5.353,0,0,1,.483,2.373,6.124,6.124,0,0,1-2.394,5.1A10.313,10.313,0,0,1,214.116,54.42Zm31.752,0A9.936,9.936,0,0,1,238.35,51.1a11.384,11.384,0,0,1-2.163-3.633A12.674,12.674,0,0,1,235.41,43a13.143,13.143,0,0,1,.735-4.452,11.685,11.685,0,0,1,2.037-3.612A9.389,9.389,0,0,1,241.29,32.5a8.875,8.875,0,0,1,3.948-.882,8.342,8.342,0,0,1,4.389,1.176,8.519,8.519,0,0,1,3.045,3.066V23.34H258.3V47.532a2.085,2.085,0,0,0,.294,1.26,1.307,1.307,0,0,0,1.008.42V54a12.757,12.757,0,0,1-2.394.294,3.9,3.9,0,0,1-2.478-.756,2.774,2.774,0,0,1-1.092-1.974l-.126-1.386a7.983,7.983,0,0,1-3.3,3.171A9.371,9.371,0,0,1,245.868,54.42Zm1.47-4.788a5.284,5.284,0,0,0,1.638-.273,5.772,5.772,0,0,0,1.554-.777,6.8,6.8,0,0,0,1.281-1.176,4.886,4.886,0,0,0,.861-1.47v-5.25a6.145,6.145,0,0,0-.945-1.7,7,7,0,0,0-1.386-1.344,7.233,7.233,0,0,0-1.638-.9A4.655,4.655,0,0,0,247,36.4a5.058,5.058,0,0,0-2.331.546,5.534,5.534,0,0,0-1.827,1.491,7.173,7.173,0,0,0-1.176,2.163,7.677,7.677,0,0,0-.42,2.52,6.946,6.946,0,0,0,.462,2.562,6.669,6.669,0,0,0,1.26,2.058,5.737,5.737,0,0,0,1.911,1.386A5.887,5.887,0,0,0,247.338,49.632ZM269.85,54.42a8.349,8.349,0,0,1-2.982-.525,7.169,7.169,0,0,1-2.394-1.47,6.842,6.842,0,0,1-1.575-2.2,6.677,6.677,0,0,1-.567-2.772,6.106,6.106,0,0,1,.693-2.877,6.6,6.6,0,0,1,1.932-2.247,9.578,9.578,0,0,1,2.961-1.449,12.917,12.917,0,0,1,3.78-.525,16.288,16.288,0,0,1,2.877.252,11.718,11.718,0,0,1,2.5.714v-1.26a4.412,4.412,0,0,0-1.239-3.36,5.151,5.151,0,0,0-3.675-1.176,9.734,9.734,0,0,0-3.444.63A15.993,15.993,0,0,0,265.272,38l-1.722-3.57a16.248,16.248,0,0,1,9.156-2.814q4.746,0,7.371,2.331a8.541,8.541,0,0,1,2.625,6.741v6.846a1.978,1.978,0,0,0,.315,1.26,1.38,1.38,0,0,0,1.029.42V54a12.53,12.53,0,0,1-2.478.294,3.752,3.752,0,0,1-2.457-.714,3.069,3.069,0,0,1-1.071-1.89l-.126-1.218a9.74,9.74,0,0,1-3.57,2.94A10.252,10.252,0,0,1,269.85,54.42Zm1.6-4.116a7.332,7.332,0,0,0,2.709-.5,4.917,4.917,0,0,0,1.995-1.344,2.022,2.022,0,0,0,.924-1.6V44.34a13.779,13.779,0,0,0-2.184-.609,11.764,11.764,0,0,0-2.268-.231,6.013,6.013,0,0,0-3.57.987,2.964,2.964,0,0,0-1.386,2.5,3.007,3.007,0,0,0,1.092,2.373A3.964,3.964,0,0,0,271.446,50.3Zm29.526,2.562a25.116,25.116,0,0,1-2.772,1.008,11.645,11.645,0,0,1-3.444.5,7.994,7.994,0,0,1-2.2-.294,4.849,4.849,0,0,1-1.806-.945,4.616,4.616,0,0,1-1.239-1.68,6.081,6.081,0,0,1-.462-2.5V36.318h-2.9V31.992h2.9v-7.14h5.628v7.14h4.62v4.326h-4.62V47.07a2,2,0,0,0,.609,1.659,2.325,2.325,0,0,0,1.491.483,5.177,5.177,0,0,0,1.722-.294q.84-.294,1.344-.5Zm8.946,1.554a8.349,8.349,0,0,1-2.982-.525,7.169,7.169,0,0,1-2.394-1.47,6.842,6.842,0,0,1-1.575-2.2,6.677,6.677,0,0,1-.567-2.772,6.106,6.106,0,0,1,.693-2.877,6.6,6.6,0,0,1,1.932-2.247,9.578,9.578,0,0,1,2.961-1.449,12.917,12.917,0,0,1,3.78-.525,16.288,16.288,0,0,1,2.877.252,11.718,11.718,0,0,1,2.5.714v-1.26A4.412,4.412,0,0,0,315.9,36.7a5.151,5.151,0,0,0-3.675-1.176,9.734,9.734,0,0,0-3.444.63A15.993,15.993,0,0,0,305.34,38l-1.722-3.57a16.248,16.248,0,0,1,9.156-2.814q4.746,0,7.371,2.331a8.541,8.541,0,0,1,2.625,6.741v6.846a1.978,1.978,0,0,0,.315,1.26,1.38,1.38,0,0,0,1.029.42V54a12.53,12.53,0,0,1-2.478.294,3.752,3.752,0,0,1-2.457-.714,3.069,3.069,0,0,1-1.071-1.89l-.126-1.218a9.74,9.74,0,0,1-3.57,2.94A10.252,10.252,0,0,1,309.918,54.42Zm1.6-4.116a7.332,7.332,0,0,0,2.709-.5,4.917,4.917,0,0,0,1.995-1.344,2.022,2.022,0,0,0,.924-1.6V44.34a13.779,13.779,0,0,0-2.184-.609,11.764,11.764,0,0,0-2.268-.231,6.013,6.013,0,0,0-3.57.987,2.964,2.964,0,0,0-1.386,2.5,3.007,3.007,0,0,0,1.092,2.373A3.964,3.964,0,0,0,311.514,50.3Zm36.96,3.7h-5.628V41.652a6.433,6.433,0,0,0-.924-3.864,3.035,3.035,0,0,0-2.562-1.218,4.82,4.82,0,0,0-1.722.336,6.339,6.339,0,0,0-1.659.945,7.687,7.687,0,0,0-1.407,1.449,5.729,5.729,0,0,0-.924,1.848V54H328.02V31.992H333.1v4.074a8.336,8.336,0,0,1,3.528-3.276,11.315,11.315,0,0,1,5.208-1.176,6.633,6.633,0,0,1,3.36.756,5.459,5.459,0,0,1,2.016,1.974,8.256,8.256,0,0,1,.987,2.772,18.173,18.173,0,0,1,.273,3.15ZM362,54.126a9.065,9.065,0,0,1-4.032-.882,9.74,9.74,0,0,1-3.129-2.415A10.987,10.987,0,0,1,352.8,47.28a13.349,13.349,0,0,1,.042-8.736,11.552,11.552,0,0,1,2.1-3.612,9.581,9.581,0,0,1,3.234-2.436,9.71,9.71,0,0,1,4.158-.882,8.59,8.59,0,0,1,4.494,1.155,9.74,9.74,0,0,1,3.192,3.087V31.992h4.914V52.95a10,10,0,0,1-.924,4.368,9.579,9.579,0,0,1-2.541,3.276,11.342,11.342,0,0,1-3.864,2.058,16.081,16.081,0,0,1-4.893.714,13.791,13.791,0,0,1-6.069-1.2,12.3,12.3,0,0,1-4.221-3.381l3.066-2.982a8.716,8.716,0,0,0,3.171,2.436,9.557,9.557,0,0,0,4.053.882,8.7,8.7,0,0,0,2.5-.357,6.034,6.034,0,0,0,2.121-1.113,5.175,5.175,0,0,0,1.449-1.932,6.754,6.754,0,0,0,.525-2.772V50.178A7.428,7.428,0,0,1,366.24,53.1,9.043,9.043,0,0,1,362,54.126Zm1.89-4.494a5.3,5.3,0,0,0,1.764-.294,6.3,6.3,0,0,0,2.814-1.974,5.314,5.314,0,0,0,.84-1.428v-5.25a6.83,6.83,0,0,0-2.373-3.108,5.667,5.667,0,0,0-3.381-1.176,4.87,4.87,0,0,0-2.352.567,5.856,5.856,0,0,0-1.806,1.512,6.833,6.833,0,0,0-1.155,2.163,8.044,8.044,0,0,0-.4,2.52,6.829,6.829,0,0,0,.462,2.52,6.465,6.465,0,0,0,1.281,2.058,6.034,6.034,0,0,0,1.911,1.386A5.643,5.643,0,0,0,363.888,49.632ZM405.132,54l-6.384-9.534-3.024,2.982V54H390.1V23.34h5.628V41.946l8.82-9.912h6.006l-8.19,9.324L411.138,54Zm17.472.42a12.212,12.212,0,0,1-4.788-.9,10.8,10.8,0,0,1-5.985-6.069,11.592,11.592,0,0,1-.819-4.326,12.258,12.258,0,0,1,.8-4.431,10.814,10.814,0,0,1,2.31-3.654,11.028,11.028,0,0,1,3.675-2.5,12.233,12.233,0,0,1,4.851-.924,11.929,11.929,0,0,1,4.809.924,11.058,11.058,0,0,1,3.612,2.478,10.531,10.531,0,0,1,2.268,3.612,12.029,12.029,0,0,1,.777,4.284q0,.546-.021,1.05a4.272,4.272,0,0,1-.105.84h-17.01a6.53,6.53,0,0,0,.63,2.31,5.658,5.658,0,0,0,3.108,2.814,5.932,5.932,0,0,0,2.1.378,6.488,6.488,0,0,0,3.171-.819,4.335,4.335,0,0,0,2.037-2.163l4.83,1.344a9.819,9.819,0,0,1-3.885,4.137A12.041,12.041,0,0,1,422.6,54.42Zm5.712-13.272a5.851,5.851,0,0,0-1.827-3.969,5.734,5.734,0,0,0-7.791.021,5.768,5.768,0,0,0-1.239,1.722,6.069,6.069,0,0,0-.567,2.226ZM17.6,108l-6.384-9.534L8.19,101.448V108H2.562V77.34H8.19V95.946l8.82-9.912h6.006l-8.19,9.324L23.6,108Zm8.358-30.66h5.628v23.6a2.778,2.778,0,0,0,.588,1.89,2.113,2.113,0,0,0,1.68.672,4.216,4.216,0,0,0,1.113-.168,7.528,7.528,0,0,0,1.155-.42l.756,4.284a10.884,10.884,0,0,1-2.646.84,14.435,14.435,0,0,1-2.73.294,5.636,5.636,0,0,1-4.1-1.407,5.334,5.334,0,0,1-1.449-4.011ZM39.312,108V85.992H44.94V108Zm0-25.074V77.34H44.94v5.586ZM70.476,108H64.848V95.652a6.433,6.433,0,0,0-.924-3.864,3.035,3.035,0,0,0-2.562-1.218,4.82,4.82,0,0,0-1.722.336,6.338,6.338,0,0,0-1.659.945A7.688,7.688,0,0,0,56.574,93.3a5.729,5.729,0,0,0-.924,1.848V108H50.022V85.992H55.1v4.074a8.336,8.336,0,0,1,3.528-3.276,11.315,11.315,0,0,1,5.208-1.176,6.633,6.633,0,0,1,3.36.756,5.459,5.459,0,0,1,2.016,1.974,8.256,8.256,0,0,1,.987,2.772,18.171,18.171,0,0,1,.273,3.15Zm4.914,0V85.992h5.628V108Zm0-25.074V77.34h5.628v5.586ZM101.136,108l-6.384-9.534-3.024,2.982V108H86.1V77.34h5.628V95.946l8.82-9.912h6.006l-8.19,9.324L107.142,108Zm8.274,0v-6.048h4.62V108Zm20.2,0V78.222h5.8V92.376l12.516-14.2h6.384L142.884,91.41,155.022,108h-6.51L139.23,95.106l-3.822,3.99V108Zm33.558.42a8.349,8.349,0,0,1-2.982-.525,7.168,7.168,0,0,1-2.394-1.47,6.842,6.842,0,0,1-1.575-2.205,6.677,6.677,0,0,1-.567-2.772,6.107,6.107,0,0,1,.693-2.877,6.6,6.6,0,0,1,1.932-2.247,9.578,9.578,0,0,1,2.961-1.449,12.916,12.916,0,0,1,3.78-.525,16.288,16.288,0,0,1,2.877.252,11.719,11.719,0,0,1,2.5.714v-1.26a4.412,4.412,0,0,0-1.239-3.36,5.151,5.151,0,0,0-3.675-1.176,9.734,9.734,0,0,0-3.444.63A15.993,15.993,0,0,0,158.592,92l-1.722-3.57a16.248,16.248,0,0,1,9.156-2.814q4.746,0,7.371,2.331a8.541,8.541,0,0,1,2.625,6.741v6.846a1.978,1.978,0,0,0,.315,1.26,1.38,1.38,0,0,0,1.029.42V108a12.531,12.531,0,0,1-2.478.294,3.752,3.752,0,0,1-2.457-.714,3.07,3.07,0,0,1-1.071-1.89l-.126-1.218a9.74,9.74,0,0,1-3.57,2.94A10.252,10.252,0,0,1,163.17,108.42Zm1.6-4.116a7.332,7.332,0,0,0,2.709-.5,4.917,4.917,0,0,0,1.995-1.344,2.022,2.022,0,0,0,.924-1.6V98.34a13.78,13.78,0,0,0-2.184-.609,11.764,11.764,0,0,0-2.268-.231,6.013,6.013,0,0,0-3.57.987,2.964,2.964,0,0,0-1.386,2.5,3.007,3.007,0,0,0,1.092,2.373A3.964,3.964,0,0,0,164.766,104.3ZM215.46,108h-5.628V95.652a6.549,6.549,0,0,0-.9-3.864,2.937,2.937,0,0,0-2.5-1.218,4.718,4.718,0,0,0-3.15,1.281,7.053,7.053,0,0,0-2.1,3.339V108h-5.628V95.652a6.549,6.549,0,0,0-.9-3.864,2.937,2.937,0,0,0-2.5-1.218,4.791,4.791,0,0,0-3.129,1.26,6.852,6.852,0,0,0-2.121,3.318V108h-5.628V85.992h5.082v4.074a8.4,8.4,0,0,1,3.339-3.3,9.979,9.979,0,0,1,4.851-1.155,6.236,6.236,0,0,1,4.284,1.344,6,6,0,0,1,1.932,3.318,9.509,9.509,0,0,1,3.4-3.465,9.183,9.183,0,0,1,4.7-1.2,6.539,6.539,0,0,1,3.318.756,5.459,5.459,0,0,1,2.016,1.974,8.256,8.256,0,0,1,.987,2.772,18.172,18.172,0,0,1,.273,3.15Zm4.914,0V85.992H226V108Zm0-25.074V77.34H226v5.586ZM249.48,108.42a17.025,17.025,0,0,1-5.418-.882,13.214,13.214,0,0,1-4.536-2.52l2.1-3.528a18.093,18.093,0,0,0,3.927,2.163,10.528,10.528,0,0,0,3.8.735,4.8,4.8,0,0,0,2.646-.63,2.029,2.029,0,0,0,.966-1.806,1.8,1.8,0,0,0-1.134-1.722,24.486,24.486,0,0,0-3.7-1.26q-2.142-.588-3.654-1.134a9.377,9.377,0,0,1-2.436-1.239A4.239,4.239,0,0,1,240.7,95a5.1,5.1,0,0,1-.42-2.163,6.848,6.848,0,0,1,.651-3.024,6.588,6.588,0,0,1,1.827-2.289,8.457,8.457,0,0,1,2.751-1.449,11.176,11.176,0,0,1,3.423-.5,14.717,14.717,0,0,1,4.641.714,11.311,11.311,0,0,1,3.969,2.31L255.276,92a13.179,13.179,0,0,0-3.255-1.848,8.9,8.9,0,0,0-3.129-.588,4.529,4.529,0,0,0-2.394.588,2.045,2.045,0,0,0-.966,1.89,1.828,1.828,0,0,0,.231.966,2.035,2.035,0,0,0,.735.672,7.174,7.174,0,0,0,1.323.567q.819.273,2.037.567,2.268.588,3.885,1.176a10.577,10.577,0,0,1,2.646,1.344,4.785,4.785,0,0,1,1.512,1.743,5.354,5.354,0,0,1,.483,2.373,6.124,6.124,0,0,1-2.394,5.1A10.314,10.314,0,0,1,249.48,108.42Zm12.558-.42V85.992h5.628V108Zm0-25.074V77.34h5.628v5.586Zm16.716,25.494a8.349,8.349,0,0,1-2.982-.525,7.169,7.169,0,0,1-2.394-1.47,6.842,6.842,0,0,1-1.575-2.205,6.677,6.677,0,0,1-.567-2.772,6.106,6.106,0,0,1,.693-2.877,6.6,6.6,0,0,1,1.932-2.247,9.578,9.578,0,0,1,2.961-1.449,12.917,12.917,0,0,1,3.78-.525,16.288,16.288,0,0,1,2.877.252,11.719,11.719,0,0,1,2.5.714v-1.26a4.412,4.412,0,0,0-1.239-3.36,5.151,5.151,0,0,0-3.675-1.176,9.734,9.734,0,0,0-3.444.63A15.993,15.993,0,0,0,274.176,92l-1.722-3.57a16.249,16.249,0,0,1,9.156-2.814q4.746,0,7.371,2.331a8.541,8.541,0,0,1,2.625,6.741v6.846a1.978,1.978,0,0,0,.315,1.26,1.38,1.38,0,0,0,1.029.42V108a12.53,12.53,0,0,1-2.478.294,3.752,3.752,0,0,1-2.457-.714,3.069,3.069,0,0,1-1.071-1.89l-.126-1.218a9.74,9.74,0,0,1-3.57,2.94A10.252,10.252,0,0,1,278.754,108.42Zm1.6-4.116a7.332,7.332,0,0,0,2.709-.5,4.917,4.917,0,0,0,1.995-1.344,2.022,2.022,0,0,0,.924-1.6V98.34a13.779,13.779,0,0,0-2.184-.609,11.764,11.764,0,0,0-2.268-.231,6.013,6.013,0,0,0-3.57.987,2.964,2.964,0,0,0-1.386,2.5,3.007,3.007,0,0,0,1.092,2.373A3.964,3.964,0,0,0,280.35,104.3Zm29.694,4.116a8.672,8.672,0,0,1-4.536-1.155,8.217,8.217,0,0,1-3.024-3.129v12.81h-5.628V85.992h4.914v3.78a8.98,8.98,0,0,1,3.15-3.045,8.758,8.758,0,0,1,4.452-1.113,9.423,9.423,0,0,1,4.116.9,10.194,10.194,0,0,1,3.255,2.436,11.336,11.336,0,0,1,2.142,3.612,12.433,12.433,0,0,1,.777,4.389,13.869,13.869,0,0,1-.714,4.494,11.5,11.5,0,0,1-1.995,3.654,9.3,9.3,0,0,1-3.045,2.436A8.518,8.518,0,0,1,310.044,108.42Zm-1.89-4.788a5.058,5.058,0,0,0,2.331-.546,5.65,5.65,0,0,0,1.827-1.47,6.9,6.9,0,0,0,1.176-2.142,7.677,7.677,0,0,0,.42-2.52,7.112,7.112,0,0,0-.462-2.583,6.412,6.412,0,0,0-1.281-2.079,5.967,5.967,0,0,0-1.932-1.386,5.785,5.785,0,0,0-2.415-.5,5.284,5.284,0,0,0-1.638.273,5.772,5.772,0,0,0-1.554.777,6.8,6.8,0,0,0-1.281,1.176,4.887,4.887,0,0,0-.861,1.47v5.166a7.481,7.481,0,0,0,2.31,3.129A5.284,5.284,0,0,0,308.154,103.632Zm34.524,4.788a9.937,9.937,0,0,1-7.518-3.318A11.385,11.385,0,0,1,333,101.469,12.674,12.674,0,0,1,332.22,97a13.143,13.143,0,0,1,.735-4.452,11.684,11.684,0,0,1,2.037-3.612A9.389,9.389,0,0,1,338.1,86.5a8.874,8.874,0,0,1,3.948-.882,8.342,8.342,0,0,1,4.389,1.176,8.519,8.519,0,0,1,3.045,3.066V77.34h5.628v24.192a2.085,2.085,0,0,0,.294,1.26,1.307,1.307,0,0,0,1.008.42V108a12.758,12.758,0,0,1-2.394.294,3.9,3.9,0,0,1-2.478-.756,2.774,2.774,0,0,1-1.092-1.974l-.126-1.386a7.983,7.983,0,0,1-3.3,3.171A9.371,9.371,0,0,1,342.678,108.42Zm1.47-4.788a5.284,5.284,0,0,0,1.638-.273,5.773,5.773,0,0,0,1.554-.777,6.8,6.8,0,0,0,1.281-1.176,4.886,4.886,0,0,0,.861-1.47v-5.25a6.145,6.145,0,0,0-.945-1.7,7,7,0,0,0-1.386-1.344,7.233,7.233,0,0,0-1.638-.9,4.655,4.655,0,0,0-1.7-.336,5.058,5.058,0,0,0-2.331.546,5.534,5.534,0,0,0-1.827,1.491,7.173,7.173,0,0,0-1.176,2.163,7.677,7.677,0,0,0-.42,2.52,6.946,6.946,0,0,0,.462,2.562,6.67,6.67,0,0,0,1.26,2.058,5.737,5.737,0,0,0,1.911,1.386A5.887,5.887,0,0,0,344.148,103.632Zm22.512,4.788a8.349,8.349,0,0,1-2.982-.525,7.169,7.169,0,0,1-2.394-1.47,6.842,6.842,0,0,1-1.575-2.205,6.677,6.677,0,0,1-.567-2.772,6.106,6.106,0,0,1,.693-2.877,6.6,6.6,0,0,1,1.932-2.247,9.578,9.578,0,0,1,2.961-1.449,12.917,12.917,0,0,1,3.78-.525,16.288,16.288,0,0,1,2.877.252,11.719,11.719,0,0,1,2.5.714v-1.26a4.412,4.412,0,0,0-1.239-3.36,5.151,5.151,0,0,0-3.675-1.176,9.734,9.734,0,0,0-3.444.63A15.993,15.993,0,0,0,362.082,92l-1.722-3.57a16.249,16.249,0,0,1,9.156-2.814q4.746,0,7.371,2.331a8.541,8.541,0,0,1,2.625,6.741v6.846a1.978,1.978,0,0,0,.315,1.26,1.38,1.38,0,0,0,1.029.42V108a12.53,12.53,0,0,1-2.478.294,3.752,3.752,0,0,1-2.457-.714,3.07,3.07,0,0,1-1.071-1.89l-.126-1.218a9.74,9.74,0,0,1-3.57,2.94A10.252,10.252,0,0,1,366.66,108.42Zm1.6-4.116a7.332,7.332,0,0,0,2.709-.5,4.917,4.917,0,0,0,2-1.344,2.022,2.022,0,0,0,.924-1.6V98.34a13.779,13.779,0,0,0-2.184-.609,11.764,11.764,0,0,0-2.268-.231,6.013,6.013,0,0,0-3.57.987,2.964,2.964,0,0,0-1.386,2.5,3.007,3.007,0,0,0,1.092,2.373A3.964,3.964,0,0,0,368.256,104.3Zm29.526,2.562a25.113,25.113,0,0,1-2.772,1.008,11.645,11.645,0,0,1-3.444.5,7.994,7.994,0,0,1-2.2-.294,4.849,4.849,0,0,1-1.806-.945,4.616,4.616,0,0,1-1.239-1.68,6.08,6.08,0,0,1-.462-2.5V90.318h-2.9V85.992h2.9v-7.14h5.628v7.14h4.62v4.326h-4.62V101.07a2,2,0,0,0,.609,1.659,2.325,2.325,0,0,0,1.491.483,5.177,5.177,0,0,0,1.722-.294q.84-.294,1.344-.5Zm8.946,1.554a8.349,8.349,0,0,1-2.982-.525,7.169,7.169,0,0,1-2.394-1.47,6.842,6.842,0,0,1-1.575-2.205,6.677,6.677,0,0,1-.567-2.772,6.106,6.106,0,0,1,.693-2.877,6.6,6.6,0,0,1,1.932-2.247,9.578,9.578,0,0,1,2.961-1.449,12.917,12.917,0,0,1,3.78-.525,16.288,16.288,0,0,1,2.877.252,11.719,11.719,0,0,1,2.5.714v-1.26a4.412,4.412,0,0,0-1.239-3.36,5.151,5.151,0,0,0-3.675-1.176,9.734,9.734,0,0,0-3.444.63A15.993,15.993,0,0,0,402.15,92l-1.722-3.57a16.249,16.249,0,0,1,9.156-2.814q4.746,0,7.371,2.331a8.541,8.541,0,0,1,2.625,6.741v6.846a1.978,1.978,0,0,0,.315,1.26,1.38,1.38,0,0,0,1.029.42V108a12.53,12.53,0,0,1-2.478.294,3.752,3.752,0,0,1-2.457-.714,3.07,3.07,0,0,1-1.071-1.89l-.126-1.218a9.74,9.74,0,0,1-3.57,2.94A10.252,10.252,0,0,1,406.728,108.42Zm1.6-4.116a7.332,7.332,0,0,0,2.709-.5,4.917,4.917,0,0,0,2-1.344,2.022,2.022,0,0,0,.924-1.6V98.34a13.779,13.779,0,0,0-2.184-.609A11.764,11.764,0,0,0,409.5,97.5a6.013,6.013,0,0,0-3.57.987,2.964,2.964,0,0,0-1.386,2.5,3.007,3.007,0,0,0,1.092,2.373A3.964,3.964,0,0,0,408.324,104.3Zm36.96,3.7h-5.628V95.652a6.433,6.433,0,0,0-.924-3.864,3.035,3.035,0,0,0-2.562-1.218,4.82,4.82,0,0,0-1.722.336,6.339,6.339,0,0,0-1.659.945,7.687,7.687,0,0,0-1.407,1.449,5.729,5.729,0,0,0-.924,1.848V108H424.83V85.992h5.082v4.074a8.336,8.336,0,0,1,3.528-3.276,11.315,11.315,0,0,1,5.208-1.176,6.633,6.633,0,0,1,3.36.756,5.46,5.46,0,0,1,2.016,1.974,8.256,8.256,0,0,1,.987,2.772,18.173,18.173,0,0,1,.273,3.15Zm13.524.126a9.065,9.065,0,0,1-4.032-.882,9.74,9.74,0,0,1-3.129-2.415,10.987,10.987,0,0,1-2.037-3.549,13.349,13.349,0,0,1,.042-8.736,11.552,11.552,0,0,1,2.1-3.612,9.581,9.581,0,0,1,3.234-2.436,9.71,9.71,0,0,1,4.158-.882,8.59,8.59,0,0,1,4.494,1.155,9.74,9.74,0,0,1,3.192,3.087V85.992h4.914V106.95a10,10,0,0,1-.924,4.368,9.579,9.579,0,0,1-2.541,3.276,11.341,11.341,0,0,1-3.864,2.058,16.081,16.081,0,0,1-4.893.714,13.791,13.791,0,0,1-6.069-1.2,12.3,12.3,0,0,1-4.221-3.381l3.066-2.982a8.716,8.716,0,0,0,3.171,2.436,9.557,9.557,0,0,0,4.053.882,8.7,8.7,0,0,0,2.5-.357,6.033,6.033,0,0,0,2.121-1.113,5.175,5.175,0,0,0,1.449-1.932,6.754,6.754,0,0,0,.525-2.772v-2.772a7.428,7.428,0,0,1-3.066,2.919A9.043,9.043,0,0,1,458.808,108.126Zm1.89-4.494a5.3,5.3,0,0,0,1.764-.294,6.3,6.3,0,0,0,2.814-1.974,5.314,5.314,0,0,0,.84-1.428v-5.25a6.83,6.83,0,0,0-2.373-3.108,5.667,5.667,0,0,0-3.381-1.176,4.87,4.87,0,0,0-2.352.567,5.856,5.856,0,0,0-1.806,1.512,6.833,6.833,0,0,0-1.155,2.163,8.044,8.044,0,0,0-.4,2.52,6.829,6.829,0,0,0,.462,2.52,6.465,6.465,0,0,0,1.281,2.058,6.034,6.034,0,0,0,1.911,1.386A5.643,5.643,0,0,0,460.7,103.632ZM476.826,108V85.992h5.628V108Zm0-25.074V77.34h5.628v5.586ZM2.52,131.34H8.148v23.6a2.778,2.778,0,0,0,.588,1.89,2.113,2.113,0,0,0,1.68.672,4.216,4.216,0,0,0,1.113-.168,7.528,7.528,0,0,0,1.155-.42l.756,4.284a10.884,10.884,0,0,1-2.646.84,14.435,14.435,0,0,1-2.73.294,5.636,5.636,0,0,1-4.095-1.407,5.334,5.334,0,0,1-1.449-4.011Zm23.52,31.08a12.08,12.08,0,0,1-4.83-.924,10.848,10.848,0,0,1-3.633-2.5,11.031,11.031,0,0,1-2.289-3.633,12.239,12.239,0,0,1,0-8.694,11.031,11.031,0,0,1,2.289-3.633,10.848,10.848,0,0,1,3.633-2.5,12.08,12.08,0,0,1,4.83-.924,11.929,11.929,0,0,1,4.809.924,10.9,10.9,0,0,1,3.612,2.5,11.031,11.031,0,0,1,2.289,3.633,12.239,12.239,0,0,1,0,8.694A11.209,11.209,0,0,1,34.482,159a10.621,10.621,0,0,1-3.612,2.5A12.08,12.08,0,0,1,26.04,162.42Zm-5.754-11.382a7.668,7.668,0,0,0,.441,2.667,6.517,6.517,0,0,0,1.218,2.079,5.444,5.444,0,0,0,1.827,1.365,5.566,5.566,0,0,0,4.536,0,5.444,5.444,0,0,0,1.827-1.365,6.47,6.47,0,0,0,1.218-2.1A7.846,7.846,0,0,0,31.794,151a7.717,7.717,0,0,0-.441-2.646,6.47,6.47,0,0,0-1.218-2.1,5.444,5.444,0,0,0-1.827-1.365,5.362,5.362,0,0,0-2.268-.483,5.173,5.173,0,0,0-2.268.5,5.7,5.7,0,0,0-1.827,1.386,6.47,6.47,0,0,0-1.218,2.1A7.717,7.717,0,0,0,20.286,151.038ZM56.364,162l-6.384-9.534-3.024,2.982V162H41.328V131.34h5.628v18.606l8.82-9.912h6.006l-8.19,9.324L62.37,162Zm14.112.42a8.349,8.349,0,0,1-2.982-.525,7.168,7.168,0,0,1-2.394-1.47,6.842,6.842,0,0,1-1.575-2.205,6.677,6.677,0,0,1-.567-2.772,6.106,6.106,0,0,1,.693-2.877,6.6,6.6,0,0,1,1.932-2.247,9.577,9.577,0,0,1,2.961-1.449,12.917,12.917,0,0,1,3.78-.525,16.288,16.288,0,0,1,2.877.252,11.719,11.719,0,0,1,2.5.714v-1.26a4.412,4.412,0,0,0-1.239-3.36,5.151,5.151,0,0,0-3.675-1.176,9.734,9.734,0,0,0-3.444.63A15.994,15.994,0,0,0,65.9,146l-1.722-3.57a16.249,16.249,0,0,1,9.156-2.814q4.746,0,7.371,2.331a8.541,8.541,0,0,1,2.625,6.741v6.846a1.978,1.978,0,0,0,.315,1.26,1.38,1.38,0,0,0,1.029.42V162a12.53,12.53,0,0,1-2.478.294,3.752,3.752,0,0,1-2.457-.714,3.069,3.069,0,0,1-1.071-1.89l-.126-1.218a9.74,9.74,0,0,1-3.57,2.94A10.252,10.252,0,0,1,70.476,162.42Zm1.6-4.116a7.332,7.332,0,0,0,2.709-.5,4.917,4.917,0,0,0,2-1.344,2.022,2.022,0,0,0,.924-1.6v-2.52a13.78,13.78,0,0,0-2.184-.609,11.763,11.763,0,0,0-2.268-.231,6.013,6.013,0,0,0-3.57.987,2.964,2.964,0,0,0-1.386,2.5,3.007,3.007,0,0,0,1.092,2.373A3.964,3.964,0,0,0,72.072,158.3Zm24.822,4.116a17.025,17.025,0,0,1-5.418-.882,13.214,13.214,0,0,1-4.536-2.52l2.1-3.528a18.093,18.093,0,0,0,3.927,2.163,10.528,10.528,0,0,0,3.8.735,4.8,4.8,0,0,0,2.646-.63,2.029,2.029,0,0,0,.966-1.806,1.8,1.8,0,0,0-1.134-1.722,24.487,24.487,0,0,0-3.7-1.26q-2.142-.588-3.654-1.134A9.378,9.378,0,0,1,89.46,150.6a4.239,4.239,0,0,1-1.344-1.6,5.1,5.1,0,0,1-.42-2.163,6.848,6.848,0,0,1,.651-3.024,6.588,6.588,0,0,1,1.827-2.289,8.458,8.458,0,0,1,2.751-1.449,11.175,11.175,0,0,1,3.423-.5,14.717,14.717,0,0,1,4.641.714,11.311,11.311,0,0,1,3.969,2.31L102.69,146a13.18,13.18,0,0,0-3.255-1.848,8.9,8.9,0,0,0-3.129-.588,4.529,4.529,0,0,0-2.394.588,2.045,2.045,0,0,0-.966,1.89,1.828,1.828,0,0,0,.231.966,2.035,2.035,0,0,0,.735.672,7.173,7.173,0,0,0,1.323.567q.819.273,2.037.567,2.268.588,3.885,1.176a10.577,10.577,0,0,1,2.646,1.344,4.785,4.785,0,0,1,1.512,1.743,5.354,5.354,0,0,1,.483,2.373,6.124,6.124,0,0,1-2.394,5.1A10.314,10.314,0,0,1,96.894,162.42Zm12.558-.42V139.992h5.628V162Zm0-25.074V131.34h5.628v5.586Zm28.518-4.746h5.124L154.434,162H148.47l-2.772-7.434H135.282L132.552,162h-5.964Zm6.678,18.312-4.116-11.718-4.284,11.718ZM177.618,162H171.99V149.652a6.433,6.433,0,0,0-.924-3.864,3.035,3.035,0,0,0-2.562-1.218,4.82,4.82,0,0,0-1.722.336,6.338,6.338,0,0,0-1.659.945,7.689,7.689,0,0,0-1.407,1.449,5.729,5.729,0,0,0-.924,1.848V162h-5.628V139.992h5.082v4.074a8.336,8.336,0,0,1,3.528-3.276,11.315,11.315,0,0,1,5.208-1.176,6.633,6.633,0,0,1,3.36.756,5.46,5.46,0,0,1,2.016,1.974,8.256,8.256,0,0,1,.987,2.772,18.173,18.173,0,0,1,.273,3.15Zm14.028.42a9.936,9.936,0,0,1-7.518-3.318,11.384,11.384,0,0,1-2.163-3.633,12.674,12.674,0,0,1-.777-4.473,13.143,13.143,0,0,1,.735-4.452,11.685,11.685,0,0,1,2.037-3.612,9.389,9.389,0,0,1,3.108-2.436,8.875,8.875,0,0,1,3.948-.882,8.342,8.342,0,0,1,4.389,1.176,8.519,8.519,0,0,1,3.045,3.066V131.34h5.628v24.192a2.085,2.085,0,0,0,.294,1.26,1.307,1.307,0,0,0,1.008.42V162a12.757,12.757,0,0,1-2.394.294,3.9,3.9,0,0,1-2.478-.756,2.774,2.774,0,0,1-1.092-1.974l-.126-1.386a7.983,7.983,0,0,1-3.3,3.171A9.371,9.371,0,0,1,191.646,162.42Zm1.47-4.788a5.284,5.284,0,0,0,1.638-.273,5.772,5.772,0,0,0,1.554-.777,6.8,6.8,0,0,0,1.281-1.176,4.886,4.886,0,0,0,.861-1.47v-5.25a6.145,6.145,0,0,0-.945-1.7,7,7,0,0,0-1.386-1.344,7.233,7.233,0,0,0-1.638-.9,4.655,4.655,0,0,0-1.7-.336,5.058,5.058,0,0,0-2.331.546,5.534,5.534,0,0,0-1.827,1.491,7.173,7.173,0,0,0-1.176,2.163,7.676,7.676,0,0,0-.42,2.52,6.946,6.946,0,0,0,.462,2.562,6.669,6.669,0,0,0,1.26,2.058,5.737,5.737,0,0,0,1.911,1.386A5.887,5.887,0,0,0,193.116,157.632Zm22.512,4.788a8.349,8.349,0,0,1-2.982-.525,7.168,7.168,0,0,1-2.394-1.47,6.842,6.842,0,0,1-1.575-2.205,6.677,6.677,0,0,1-.567-2.772,6.107,6.107,0,0,1,.693-2.877,6.6,6.6,0,0,1,1.932-2.247,9.578,9.578,0,0,1,2.961-1.449,12.917,12.917,0,0,1,3.78-.525,16.288,16.288,0,0,1,2.877.252,11.719,11.719,0,0,1,2.5.714v-1.26a4.412,4.412,0,0,0-1.239-3.36,5.151,5.151,0,0,0-3.675-1.176,9.734,9.734,0,0,0-3.444.63A15.993,15.993,0,0,0,211.05,146l-1.722-3.57a16.248,16.248,0,0,1,9.156-2.814q4.746,0,7.371,2.331a8.541,8.541,0,0,1,2.625,6.741v6.846a1.978,1.978,0,0,0,.315,1.26,1.38,1.38,0,0,0,1.029.42V162a12.531,12.531,0,0,1-2.478.294,3.752,3.752,0,0,1-2.457-.714,3.07,3.07,0,0,1-1.071-1.89l-.126-1.218a9.74,9.74,0,0,1-3.57,2.94A10.252,10.252,0,0,1,215.628,162.42Zm1.6-4.116a7.332,7.332,0,0,0,2.709-.5,4.917,4.917,0,0,0,1.995-1.344,2.022,2.022,0,0,0,.924-1.6v-2.52a13.78,13.78,0,0,0-2.184-.609,11.763,11.763,0,0,0-2.268-.231,6.013,6.013,0,0,0-3.57.987,2.964,2.964,0,0,0-1.386,2.5,3.007,3.007,0,0,0,1.092,2.373A3.964,3.964,0,0,0,217.224,158.3Z" transform="translate(-14118 -14896)" fill="#fff"/>
  </g>
</svg>
