<svg xmlns="http://www.w3.org/2000/svg" xmlns:xlink="http://www.w3.org/1999/xlink" width="486" height="263" viewBox="0 0 486 263">
  <defs>
    <clipPath id="clip-path">
      <rect id="Rectangle_2078" data-name="Rectangle 2078" width="486" height="263" transform="translate(-14118 -14935)" fill="#8ccc54"/>
    </clipPath>
  </defs>
  <g id="Mask_Group_30" data-name="Mask Group 30" transform="translate(14118 14935)" clip-path="url(#clip-path)">
    <g id="Group_5074" data-name="Group 5074" transform="translate(-0.704)">
      <path id="Path_799" data-name="Path 799" d="M21.472-22.72V0H17.088V-9.7H6.784V0H2.368V-22.72H6.784v9.184h10.3V-22.72ZM30.208.32a6.361,6.361,0,0,1-2.272-.4A5.461,5.461,0,0,1,26.112-1.2a5.213,5.213,0,0,1-1.2-1.68,5.088,5.088,0,0,1-.432-2.112,4.653,4.653,0,0,1,.528-2.192A5.026,5.026,0,0,1,26.48-8.9,7.3,7.3,0,0,1,28.736-10a9.841,9.841,0,0,1,2.88-.4,12.409,12.409,0,0,1,2.192.192,8.929,8.929,0,0,1,1.9.544v-.96a3.361,3.361,0,0,0-.944-2.56,3.925,3.925,0,0,0-2.8-.9,7.416,7.416,0,0,0-2.624.48,12.185,12.185,0,0,0-2.624,1.408l-1.312-2.72a12.38,12.38,0,0,1,6.976-2.144A8.174,8.174,0,0,1,38-15.28a6.508,6.508,0,0,1,2,5.136v5.216a1.507,1.507,0,0,0,.24.96,1.052,1.052,0,0,0,.784.32V0a9.547,9.547,0,0,1-1.888.224A2.859,2.859,0,0,1,37.264-.32a2.339,2.339,0,0,1-.816-1.44l-.1-.928a7.421,7.421,0,0,1-2.72,2.24A7.811,7.811,0,0,1,30.208.32Zm1.216-3.136A5.586,5.586,0,0,0,33.488-3.2a3.746,3.746,0,0,0,1.52-1.024,1.54,1.54,0,0,0,.7-1.216V-7.36a10.5,10.5,0,0,0-1.664-.464A8.963,8.963,0,0,0,32.32-8a4.581,4.581,0,0,0-2.72.752,2.258,2.258,0,0,0-1.056,1.9,2.291,2.291,0,0,0,.832,1.808A3.02,3.02,0,0,0,31.424-2.816ZM43.968-23.36h4.288V-5.376a2.117,2.117,0,0,0,.448,1.44,1.61,1.61,0,0,0,1.28.512,3.212,3.212,0,0,0,.848-.128,5.736,5.736,0,0,0,.88-.32l.576,3.264a8.293,8.293,0,0,1-2.016.64,11,11,0,0,1-2.08.224,4.294,4.294,0,0,1-3.12-1.072,4.064,4.064,0,0,1-1.1-3.056ZM61.888.32a9.2,9.2,0,0,1-3.68-.7,8.265,8.265,0,0,1-2.768-1.9A8.4,8.4,0,0,1,53.7-5.056a9.037,9.037,0,0,1-.608-3.3A9.124,9.124,0,0,1,53.7-11.68a8.4,8.4,0,0,1,1.744-2.768,8.265,8.265,0,0,1,2.768-1.9,9.2,9.2,0,0,1,3.68-.7,9.089,9.089,0,0,1,3.664.7,8.305,8.305,0,0,1,2.752,1.9,8.4,8.4,0,0,1,1.744,2.768,9.124,9.124,0,0,1,.608,3.328,9.037,9.037,0,0,1-.608,3.3A8.54,8.54,0,0,1,68.32-2.288a8.092,8.092,0,0,1-2.752,1.9A9.2,9.2,0,0,1,61.888.32ZM57.5-8.352A5.842,5.842,0,0,0,57.84-6.32a4.965,4.965,0,0,0,.928,1.584A4.148,4.148,0,0,0,60.16-3.7a4.085,4.085,0,0,0,1.728.368A4.085,4.085,0,0,0,63.616-3.7a4.148,4.148,0,0,0,1.392-1.04,4.93,4.93,0,0,0,.928-1.6,5.978,5.978,0,0,0,.336-2.048,5.88,5.88,0,0,0-.336-2.016,4.93,4.93,0,0,0-.928-1.6,4.148,4.148,0,0,0-1.392-1.04,4.085,4.085,0,0,0-1.728-.368,3.941,3.941,0,0,0-1.728.384,4.342,4.342,0,0,0-1.392,1.056,4.93,4.93,0,0,0-.928,1.6A5.879,5.879,0,0,0,57.5-8.352ZM83.36-.864A19.135,19.135,0,0,1,81.248-.1a8.873,8.873,0,0,1-2.624.384,6.091,6.091,0,0,1-1.68-.224,3.7,3.7,0,0,1-1.376-.72,3.517,3.517,0,0,1-.944-1.28,4.633,4.633,0,0,1-.352-1.9v-9.632H72.064v-3.3h2.208v-5.44H78.56v5.44h3.52v3.3H78.56V-5.28a1.525,1.525,0,0,0,.464,1.264,1.771,1.771,0,0,0,1.136.368,3.944,3.944,0,0,0,1.312-.224q.64-.224,1.024-.384ZM92.96.32a9.3,9.3,0,0,1-3.648-.688A8.365,8.365,0,0,1,86.528-2.24a8.31,8.31,0,0,1-1.776-2.752,8.832,8.832,0,0,1-.624-3.3,9.34,9.34,0,0,1,.608-3.376,8.239,8.239,0,0,1,1.76-2.784,8.4,8.4,0,0,1,2.8-1.9,9.32,9.32,0,0,1,3.7-.7,9.089,9.089,0,0,1,3.664.7,8.426,8.426,0,0,1,2.752,1.888,8.023,8.023,0,0,1,1.728,2.752,9.165,9.165,0,0,1,.592,3.264q0,.416-.016.8a3.255,3.255,0,0,1-.08.64H88.672a4.976,4.976,0,0,0,.48,1.76,4.35,4.35,0,0,0,.992,1.312A4.32,4.32,0,0,0,91.52-3.1a4.52,4.52,0,0,0,1.6.288,4.943,4.943,0,0,0,2.416-.624,3.3,3.3,0,0,0,1.552-1.648l3.68,1.024a7.481,7.481,0,0,1-2.96,3.152A9.174,9.174,0,0,1,92.96.32ZM97.312-9.792a4.457,4.457,0,0,0-1.392-3.024,4.254,4.254,0,0,0-2.992-1.136,4.271,4.271,0,0,0-1.616.3,4.217,4.217,0,0,0-1.328.848,4.4,4.4,0,0,0-.944,1.312,4.624,4.624,0,0,0-.432,1.7Zm17.024-3.264a8.458,8.458,0,0,0-3.488.752,4.4,4.4,0,0,0-2.208,2.16V0h-4.288V-16.768h3.936v3.584a7.645,7.645,0,0,1,1.056-1.552,8.143,8.143,0,0,1,1.312-1.2,6.083,6.083,0,0,1,1.424-.784,3.93,3.93,0,0,1,1.392-.272H114a1.71,1.71,0,0,1,.336.032ZM121.088.32a6.361,6.361,0,0,1-2.272-.4,5.461,5.461,0,0,1-1.824-1.12,5.213,5.213,0,0,1-1.2-1.68,5.087,5.087,0,0,1-.432-2.112,4.653,4.653,0,0,1,.528-2.192A5.026,5.026,0,0,1,117.36-8.9a7.3,7.3,0,0,1,2.256-1.1,9.841,9.841,0,0,1,2.88-.4,12.41,12.41,0,0,1,2.192.192,8.928,8.928,0,0,1,1.9.544v-.96a3.361,3.361,0,0,0-.944-2.56,3.925,3.925,0,0,0-2.8-.9,7.416,7.416,0,0,0-2.624.48,12.186,12.186,0,0,0-2.624,1.408l-1.312-2.72a12.38,12.38,0,0,1,6.976-2.144,8.174,8.174,0,0,1,5.616,1.776,6.508,6.508,0,0,1,2,5.136v5.216a1.507,1.507,0,0,0,.24.96,1.052,1.052,0,0,0,.784.32V0a9.547,9.547,0,0,1-1.888.224,2.859,2.859,0,0,1-1.872-.544,2.339,2.339,0,0,1-.816-1.44l-.1-.928a7.421,7.421,0,0,1-2.72,2.24A7.811,7.811,0,0,1,121.088.32ZM122.3-2.816a5.586,5.586,0,0,0,2.064-.384,3.746,3.746,0,0,0,1.52-1.024,1.54,1.54,0,0,0,.7-1.216V-7.36a10.5,10.5,0,0,0-1.664-.464A8.963,8.963,0,0,0,123.2-8a4.581,4.581,0,0,0-2.72.752,2.258,2.258,0,0,0-1.056,1.9,2.291,2.291,0,0,0,.832,1.808A3.02,3.02,0,0,0,122.3-2.816ZM144.928.32a6.608,6.608,0,0,1-3.456-.88,6.26,6.26,0,0,1-2.3-2.384v9.76H134.88V-16.768h3.744v2.88a6.842,6.842,0,0,1,2.4-2.32,6.673,6.673,0,0,1,3.392-.848,7.18,7.18,0,0,1,3.136.688,7.767,7.767,0,0,1,2.48,1.856,8.637,8.637,0,0,1,1.632,2.752,9.473,9.473,0,0,1,.592,3.344,10.567,10.567,0,0,1-.544,3.424,8.762,8.762,0,0,1-1.52,2.784,7.088,7.088,0,0,1-2.32,1.856A6.49,6.49,0,0,1,144.928.32Zm-1.44-3.648a3.853,3.853,0,0,0,1.776-.416,4.3,4.3,0,0,0,1.392-1.12,5.256,5.256,0,0,0,.9-1.632,5.849,5.849,0,0,0,.32-1.92,5.419,5.419,0,0,0-.352-1.968,4.885,4.885,0,0,0-.976-1.584,4.546,4.546,0,0,0-1.472-1.056,4.408,4.408,0,0,0-1.84-.384,4.026,4.026,0,0,0-1.248.208,4.4,4.4,0,0,0-1.184.592,5.184,5.184,0,0,0-.976.9,3.723,3.723,0,0,0-.656,1.12v3.936a5.7,5.7,0,0,0,1.76,2.384A4.026,4.026,0,0,0,143.488-3.328ZM155.168,0V-16.768h4.288V0Zm0-19.1V-23.36h4.288V-19.1ZM175.584.32a6.361,6.361,0,0,1-2.272-.4,5.461,5.461,0,0,1-1.824-1.12,5.213,5.213,0,0,1-1.2-1.68,5.088,5.088,0,0,1-.432-2.112,4.652,4.652,0,0,1,.528-2.192A5.026,5.026,0,0,1,171.856-8.9a7.3,7.3,0,0,1,2.256-1.1,9.841,9.841,0,0,1,2.88-.4,12.41,12.41,0,0,1,2.192.192,8.929,8.929,0,0,1,1.9.544v-.96a3.361,3.361,0,0,0-.944-2.56,3.925,3.925,0,0,0-2.8-.9,7.416,7.416,0,0,0-2.624.48,12.186,12.186,0,0,0-2.624,1.408l-1.312-2.72a12.38,12.38,0,0,1,6.976-2.144,8.174,8.174,0,0,1,5.616,1.776,6.508,6.508,0,0,1,2,5.136v5.216a1.507,1.507,0,0,0,.24.96,1.052,1.052,0,0,0,.784.32V0a9.547,9.547,0,0,1-1.888.224A2.859,2.859,0,0,1,182.64-.32a2.339,2.339,0,0,1-.816-1.44l-.1-.928a7.421,7.421,0,0,1-2.72,2.24A7.811,7.811,0,0,1,175.584.32ZM176.8-2.816a5.586,5.586,0,0,0,2.064-.384,3.746,3.746,0,0,0,1.52-1.024,1.54,1.54,0,0,0,.7-1.216V-7.36a10.5,10.5,0,0,0-1.664-.464A8.963,8.963,0,0,0,177.7-8a4.581,4.581,0,0,0-2.72.752,2.258,2.258,0,0,0-1.056,1.9,2.291,2.291,0,0,0,.832,1.808A3.02,3.02,0,0,0,176.8-2.816ZM196.32.32a7.613,7.613,0,0,1-3.2-.672,7.546,7.546,0,0,1-2.528-1.856,8.674,8.674,0,0,1-1.648-2.768,9.656,9.656,0,0,1-.592-3.408,10.014,10.014,0,0,1,.56-3.392,8.9,8.9,0,0,1,1.552-2.752,7.153,7.153,0,0,1,2.368-1.856,6.762,6.762,0,0,1,3.008-.672,6.356,6.356,0,0,1,3.344.9,6.49,6.49,0,0,1,2.32,2.336V-23.36h4.288V-4.928a1.588,1.588,0,0,0,.224.96,1,1,0,0,0,.768.32V0a9.72,9.72,0,0,1-1.824.224,2.972,2.972,0,0,1-1.888-.576,2.114,2.114,0,0,1-.832-1.5l-.1-1.056A6.082,6.082,0,0,1,199.632-.5,7.139,7.139,0,0,1,196.32.32Zm1.12-3.648a4.026,4.026,0,0,0,1.248-.208,4.4,4.4,0,0,0,1.184-.592,5.183,5.183,0,0,0,.976-.9,3.723,3.723,0,0,0,.656-1.12v-4a4.682,4.682,0,0,0-.72-1.3,5.329,5.329,0,0,0-1.056-1.024,5.511,5.511,0,0,0-1.248-.688,3.547,3.547,0,0,0-1.3-.256,3.853,3.853,0,0,0-1.776.416,4.216,4.216,0,0,0-1.392,1.136,5.465,5.465,0,0,0-.9,1.648,5.849,5.849,0,0,0-.32,1.92,5.292,5.292,0,0,0,.352,1.952,5.081,5.081,0,0,0,.96,1.568,4.371,4.371,0,0,0,1.456,1.056A4.486,4.486,0,0,0,197.44-3.328ZM214.592.32a6.361,6.361,0,0,1-2.272-.4A5.461,5.461,0,0,1,210.5-1.2a5.213,5.213,0,0,1-1.2-1.68,5.088,5.088,0,0,1-.432-2.112,4.652,4.652,0,0,1,.528-2.192A5.026,5.026,0,0,1,210.864-8.9,7.3,7.3,0,0,1,213.12-10a9.841,9.841,0,0,1,2.88-.4,12.41,12.41,0,0,1,2.192.192,8.929,8.929,0,0,1,1.9.544v-.96a3.361,3.361,0,0,0-.944-2.56,3.925,3.925,0,0,0-2.8-.9,7.416,7.416,0,0,0-2.624.48,12.186,12.186,0,0,0-2.624,1.408l-1.312-2.72a12.38,12.38,0,0,1,6.976-2.144,8.174,8.174,0,0,1,5.616,1.776,6.508,6.508,0,0,1,2,5.136v5.216a1.507,1.507,0,0,0,.24.96,1.052,1.052,0,0,0,.784.32V0a9.547,9.547,0,0,1-1.888.224,2.859,2.859,0,0,1-1.872-.544,2.339,2.339,0,0,1-.816-1.44l-.1-.928a7.421,7.421,0,0,1-2.72,2.24A7.811,7.811,0,0,1,214.592.32Zm1.216-3.136a5.586,5.586,0,0,0,2.064-.384,3.746,3.746,0,0,0,1.52-1.024,1.54,1.54,0,0,0,.7-1.216V-7.36a10.5,10.5,0,0,0-1.664-.464A8.963,8.963,0,0,0,216.7-8a4.581,4.581,0,0,0-2.72.752,2.258,2.258,0,0,0-1.056,1.9,2.291,2.291,0,0,0,.832,1.808A3.02,3.02,0,0,0,215.808-2.816ZM228.352-23.36h4.288V-5.376a2.117,2.117,0,0,0,.448,1.44,1.61,1.61,0,0,0,1.28.512,3.212,3.212,0,0,0,.848-.128,5.735,5.735,0,0,0,.88-.32l.576,3.264a8.293,8.293,0,0,1-2.016.64,11,11,0,0,1-2.08.224,4.294,4.294,0,0,1-3.12-1.072,4.064,4.064,0,0,1-1.1-3.056ZM243.1.32a6.361,6.361,0,0,1-2.272-.4,5.461,5.461,0,0,1-1.824-1.12,5.213,5.213,0,0,1-1.2-1.68,5.088,5.088,0,0,1-.432-2.112,4.652,4.652,0,0,1,.528-2.192A5.026,5.026,0,0,1,239.376-8.9a7.3,7.3,0,0,1,2.256-1.1,9.841,9.841,0,0,1,2.88-.4,12.41,12.41,0,0,1,2.192.192,8.929,8.929,0,0,1,1.9.544v-.96a3.361,3.361,0,0,0-.944-2.56,3.925,3.925,0,0,0-2.8-.9,7.416,7.416,0,0,0-2.624.48,12.186,12.186,0,0,0-2.624,1.408l-1.312-2.72a12.38,12.38,0,0,1,6.976-2.144A8.174,8.174,0,0,1,250.9-15.28a6.508,6.508,0,0,1,2,5.136v5.216a1.507,1.507,0,0,0,.24.96,1.052,1.052,0,0,0,.784.32V0a9.547,9.547,0,0,1-1.888.224A2.859,2.859,0,0,1,250.16-.32a2.339,2.339,0,0,1-.816-1.44l-.1-.928a7.421,7.421,0,0,1-2.72,2.24A7.811,7.811,0,0,1,243.1.32Zm1.216-3.136a5.586,5.586,0,0,0,2.064-.384,3.746,3.746,0,0,0,1.52-1.024,1.54,1.54,0,0,0,.7-1.216V-7.36a10.5,10.5,0,0,0-1.664-.464A8.963,8.963,0,0,0,245.216-8a4.581,4.581,0,0,0-2.72.752,2.258,2.258,0,0,0-1.056,1.9,2.291,2.291,0,0,0,.832,1.808A3.02,3.02,0,0,0,244.32-2.816ZM272.48,0h-4.288V-9.408a4.748,4.748,0,0,0-.736-2.928,2.485,2.485,0,0,0-2.08-.944,3.276,3.276,0,0,0-1.216.256,4.744,4.744,0,0,0-1.216.72,6.129,6.129,0,0,0-1.056,1.1,4.364,4.364,0,0,0-.7,1.408V0H256.9V-23.36h4.288v9.7a6.462,6.462,0,0,1,2.512-2.512,7.093,7.093,0,0,1,3.5-.88,5.514,5.514,0,0,1,2.656.56,4.225,4.225,0,0,1,1.6,1.488,6.122,6.122,0,0,1,.8,2.112,13.056,13.056,0,0,1,.224,2.432Zm16,.32a6.361,6.361,0,0,1-2.272-.4,5.461,5.461,0,0,1-1.824-1.12,5.213,5.213,0,0,1-1.2-1.68,5.088,5.088,0,0,1-.432-2.112,4.652,4.652,0,0,1,.528-2.192A5.026,5.026,0,0,1,284.752-8.9a7.3,7.3,0,0,1,2.256-1.1,9.841,9.841,0,0,1,2.88-.4,12.409,12.409,0,0,1,2.192.192,8.928,8.928,0,0,1,1.9.544v-.96a3.361,3.361,0,0,0-.944-2.56,3.925,3.925,0,0,0-2.8-.9,7.416,7.416,0,0,0-2.624.48,12.185,12.185,0,0,0-2.624,1.408l-1.312-2.72a12.38,12.38,0,0,1,6.976-2.144,8.174,8.174,0,0,1,5.616,1.776,6.508,6.508,0,0,1,2,5.136v5.216a1.507,1.507,0,0,0,.24.96,1.052,1.052,0,0,0,.784.32V0a9.547,9.547,0,0,1-1.888.224,2.859,2.859,0,0,1-1.872-.544,2.339,2.339,0,0,1-.816-1.44l-.1-.928a7.421,7.421,0,0,1-2.72,2.24A7.811,7.811,0,0,1,288.48.32ZM289.7-2.816A5.586,5.586,0,0,0,291.76-3.2a3.746,3.746,0,0,0,1.52-1.024,1.54,1.54,0,0,0,.7-1.216V-7.36a10.5,10.5,0,0,0-1.664-.464A8.963,8.963,0,0,0,290.592-8a4.581,4.581,0,0,0-2.72.752,2.258,2.258,0,0,0-1.056,1.9,2.291,2.291,0,0,0,.832,1.808A3.02,3.02,0,0,0,289.7-2.816ZM308.832.1a6.907,6.907,0,0,1-3.072-.672,7.421,7.421,0,0,1-2.384-1.84,8.371,8.371,0,0,1-1.552-2.7,9.7,9.7,0,0,1-.544-3.264,9.763,9.763,0,0,1,.576-3.392,8.8,8.8,0,0,1,1.6-2.752,7.3,7.3,0,0,1,2.464-1.856,7.4,7.4,0,0,1,3.168-.672,6.544,6.544,0,0,1,3.424.88,7.421,7.421,0,0,1,2.432,2.352v-2.944h3.744V-.8a7.619,7.619,0,0,1-.7,3.328,7.3,7.3,0,0,1-1.936,2.5A8.641,8.641,0,0,1,313.1,6.592a12.252,12.252,0,0,1-3.728.544,10.507,10.507,0,0,1-4.624-.912,9.371,9.371,0,0,1-3.216-2.576l2.336-2.272a6.64,6.64,0,0,0,2.416,1.856,7.282,7.282,0,0,0,3.088.672,6.626,6.626,0,0,0,1.9-.272,4.6,4.6,0,0,0,1.616-.848A3.943,3.943,0,0,0,314,1.312,5.146,5.146,0,0,0,314.4-.8V-2.912a5.66,5.66,0,0,1-2.336,2.224A6.89,6.89,0,0,1,308.832.1Zm1.44-3.424a4.039,4.039,0,0,0,1.344-.224A4.781,4.781,0,0,0,312.8-4.16a4.789,4.789,0,0,0,.96-.9,4.049,4.049,0,0,0,.64-1.088v-4a5.2,5.2,0,0,0-1.808-2.368,4.317,4.317,0,0,0-2.576-.9,3.71,3.71,0,0,0-1.792.432,4.462,4.462,0,0,0-1.376,1.152,5.206,5.206,0,0,0-.88,1.648,6.128,6.128,0,0,0-.3,1.92,5.2,5.2,0,0,0,.352,1.92,4.926,4.926,0,0,0,.976,1.568,4.6,4.6,0,0,0,1.456,1.056A4.3,4.3,0,0,0,310.272-3.328ZM330.336.32a9.3,9.3,0,0,1-3.648-.688A8.365,8.365,0,0,1,323.9-2.24a8.31,8.31,0,0,1-1.776-2.752,8.832,8.832,0,0,1-.624-3.3,9.339,9.339,0,0,1,.608-3.376,8.239,8.239,0,0,1,1.76-2.784,8.4,8.4,0,0,1,2.8-1.9,9.32,9.32,0,0,1,3.7-.7,9.089,9.089,0,0,1,3.664.7,8.425,8.425,0,0,1,2.752,1.888,8.023,8.023,0,0,1,1.728,2.752,9.164,9.164,0,0,1,.592,3.264q0,.416-.016.8a3.256,3.256,0,0,1-.08.64h-12.96a4.975,4.975,0,0,0,.48,1.76,4.349,4.349,0,0,0,.992,1.312A4.321,4.321,0,0,0,328.9-3.1a4.52,4.52,0,0,0,1.6.288,4.943,4.943,0,0,0,2.416-.624,3.3,3.3,0,0,0,1.552-1.648l3.68,1.024a7.481,7.481,0,0,1-2.96,3.152A9.174,9.174,0,0,1,330.336.32Zm4.352-10.112a4.457,4.457,0,0,0-1.392-3.024,4.254,4.254,0,0,0-2.992-1.136,4.271,4.271,0,0,0-1.616.3,4.217,4.217,0,0,0-1.328.848,4.395,4.395,0,0,0-.944,1.312,4.624,4.624,0,0,0-.432,1.7ZM357.312,0h-4.288V-9.408a4.9,4.9,0,0,0-.7-2.944,2.313,2.313,0,0,0-1.952-.928,3.672,3.672,0,0,0-1.312.256,4.829,4.829,0,0,0-1.264.72,5.858,5.858,0,0,0-1.072,1.1,4.364,4.364,0,0,0-.7,1.408V0h-4.288V-16.768H345.6v3.1a6.351,6.351,0,0,1,2.688-2.5,8.621,8.621,0,0,1,3.968-.9,5.054,5.054,0,0,1,2.56.576,4.159,4.159,0,0,1,1.536,1.5,6.29,6.29,0,0,1,.752,2.112,13.844,13.844,0,0,1,.208,2.4ZM360-8.384a9.124,9.124,0,0,1,.608-3.328,8.1,8.1,0,0,1,1.76-2.752,8.566,8.566,0,0,1,2.784-1.888,9.2,9.2,0,0,1,3.68-.7,8.819,8.819,0,0,1,4.688,1.184,7.562,7.562,0,0,1,2.9,3.1l-4.192,1.28a3.766,3.766,0,0,0-1.44-1.424,4.027,4.027,0,0,0-1.984-.5,4.085,4.085,0,0,0-1.728.368,4.248,4.248,0,0,0-1.392,1.024,4.743,4.743,0,0,0-.928,1.584,5.978,5.978,0,0,0-.336,2.048,5.733,5.733,0,0,0,.352,2.048,5.161,5.161,0,0,0,.944,1.6A4.148,4.148,0,0,0,367.1-3.7a4.01,4.01,0,0,0,1.7.368,4.112,4.112,0,0,0,2.128-.576,3.239,3.239,0,0,0,1.36-1.408l4.192,1.28A7.047,7.047,0,0,1,373.632-.9,8.951,8.951,0,0,1,368.864.32a9.2,9.2,0,0,1-3.68-.7,8.443,8.443,0,0,1-2.784-1.9,8.449,8.449,0,0,1-1.776-2.784A8.956,8.956,0,0,1,360-8.384ZM379.232,3.264a8.273,8.273,0,0,0,1.056.24,5.755,5.755,0,0,0,.864.08,1.834,1.834,0,0,0,.768-.16,1.645,1.645,0,0,0,.64-.56,5.465,5.465,0,0,0,.576-1.1q.288-.7.608-1.76L377.12-16.768h4.416L386.08-3.712l4.032-13.056h4.032l-7.04,20.1a6,6,0,0,1-2.08,2.88,5.849,5.849,0,0,1-3.648,1.12,6.936,6.936,0,0,1-1.04-.08,6.651,6.651,0,0,1-1.1-.272ZM12,42.32a6.608,6.608,0,0,1-3.456-.88,6.26,6.26,0,0,1-2.3-2.384v9.76H1.952V25.232H5.7v2.88a6.842,6.842,0,0,1,2.4-2.32,6.673,6.673,0,0,1,3.392-.848,7.18,7.18,0,0,1,3.136.688,7.767,7.767,0,0,1,2.48,1.856,8.637,8.637,0,0,1,1.632,2.752,9.473,9.473,0,0,1,.592,3.344,10.567,10.567,0,0,1-.544,3.424,8.763,8.763,0,0,1-1.52,2.784,7.088,7.088,0,0,1-2.32,1.856A6.49,6.49,0,0,1,12,42.32Zm-1.44-3.648a3.853,3.853,0,0,0,1.776-.416,4.3,4.3,0,0,0,1.392-1.12,5.257,5.257,0,0,0,.9-1.632,5.849,5.849,0,0,0,.32-1.92,5.419,5.419,0,0,0-.352-1.968,4.885,4.885,0,0,0-.976-1.584,4.546,4.546,0,0,0-1.472-1.056,4.408,4.408,0,0,0-1.84-.384,4.026,4.026,0,0,0-1.248.208,4.4,4.4,0,0,0-1.184.592,5.183,5.183,0,0,0-.976.9,3.723,3.723,0,0,0-.656,1.12v3.936A5.7,5.7,0,0,0,8,37.728,4.026,4.026,0,0,0,10.56,38.672ZM30.016,42.32a9.3,9.3,0,0,1-3.648-.688,8.227,8.227,0,0,1-4.56-4.624,8.832,8.832,0,0,1-.624-3.3,9.339,9.339,0,0,1,.608-3.376,8.239,8.239,0,0,1,1.76-2.784,8.4,8.4,0,0,1,2.8-1.9,9.32,9.32,0,0,1,3.7-.7,9.089,9.089,0,0,1,3.664.7,8.426,8.426,0,0,1,2.752,1.888,8.024,8.024,0,0,1,1.728,2.752,9.165,9.165,0,0,1,.592,3.264q0,.416-.016.8a3.255,3.255,0,0,1-.08.64H25.728a4.976,4.976,0,0,0,.48,1.76A4.311,4.311,0,0,0,28.576,38.9a4.52,4.52,0,0,0,1.6.288,4.943,4.943,0,0,0,2.416-.624,3.3,3.3,0,0,0,1.552-1.648l3.68,1.024a7.481,7.481,0,0,1-2.96,3.152A9.174,9.174,0,0,1,30.016,42.32Zm4.352-10.112a4.457,4.457,0,0,0-1.392-3.024,4.369,4.369,0,0,0-5.936.016,4.395,4.395,0,0,0-.944,1.312,4.624,4.624,0,0,0-.432,1.7ZM56.992,42H52.7V32.592a4.9,4.9,0,0,0-.7-2.944,2.313,2.313,0,0,0-1.952-.928,3.672,3.672,0,0,0-1.312.256,4.829,4.829,0,0,0-1.264.72A5.858,5.858,0,0,0,46.4,30.8a4.365,4.365,0,0,0-.7,1.408V42H41.408V25.232H45.28v3.1a6.351,6.351,0,0,1,2.688-2.5,8.621,8.621,0,0,1,3.968-.9,5.054,5.054,0,0,1,2.56.576,4.16,4.16,0,0,1,1.536,1.5,6.29,6.29,0,0,1,.752,2.112,13.845,13.845,0,0,1,.208,2.4ZM60.7,45.264a8.273,8.273,0,0,0,1.056.24,5.755,5.755,0,0,0,.864.08,1.834,1.834,0,0,0,.768-.16,1.645,1.645,0,0,0,.64-.56,5.467,5.467,0,0,0,.576-1.1q.288-.7.608-1.76L58.592,25.232h4.416l4.544,13.056,4.032-13.056h4.032l-7.04,20.1a6,6,0,0,1-2.08,2.88,5.849,5.849,0,0,1-3.648,1.12,6.936,6.936,0,0,1-1.04-.08,6.651,6.651,0,0,1-1.1-.272ZM82.112,42.32a6.361,6.361,0,0,1-2.272-.4,5.461,5.461,0,0,1-1.824-1.12,5.213,5.213,0,0,1-1.2-1.68,5.087,5.087,0,0,1-.432-2.112,4.653,4.653,0,0,1,.528-2.192A5.026,5.026,0,0,1,78.384,33.1,7.3,7.3,0,0,1,80.64,32a9.841,9.841,0,0,1,2.88-.4,12.41,12.41,0,0,1,2.192.192,8.929,8.929,0,0,1,1.9.544v-.96a3.361,3.361,0,0,0-.944-2.56,3.925,3.925,0,0,0-2.8-.9,7.416,7.416,0,0,0-2.624.48,12.186,12.186,0,0,0-2.624,1.408l-1.312-2.72a12.38,12.38,0,0,1,6.976-2.144A8.174,8.174,0,0,1,89.9,26.72a6.508,6.508,0,0,1,2,5.136v5.216a1.507,1.507,0,0,0,.24.96,1.052,1.052,0,0,0,.784.32V42a9.547,9.547,0,0,1-1.888.224,2.859,2.859,0,0,1-1.872-.544,2.339,2.339,0,0,1-.816-1.44l-.1-.928a7.421,7.421,0,0,1-2.72,2.24A7.811,7.811,0,0,1,82.112,42.32Zm1.216-3.136a5.586,5.586,0,0,0,2.064-.384,3.746,3.746,0,0,0,1.52-1.024,1.54,1.54,0,0,0,.7-1.216V34.64a10.5,10.5,0,0,0-1.664-.464A8.963,8.963,0,0,0,84.224,34a4.581,4.581,0,0,0-2.72.752,2.258,2.258,0,0,0-1.056,1.9,2.291,2.291,0,0,0,.832,1.808A3.02,3.02,0,0,0,83.328,39.184ZM95.872,18.64h4.288V36.624a2.117,2.117,0,0,0,.448,1.44,1.61,1.61,0,0,0,1.28.512,3.212,3.212,0,0,0,.848-.128,5.735,5.735,0,0,0,.88-.32l.576,3.264a8.293,8.293,0,0,1-2.016.64,11,11,0,0,1-2.08.224,4.294,4.294,0,0,1-3.12-1.072,4.064,4.064,0,0,1-1.1-3.056Zm15.3,23.68a4.762,4.762,0,0,1-3.936-1.664,7.713,7.713,0,0,1-1.344-4.928v-10.5h4.288V34.8q0,3.872,2.784,3.872a4.4,4.4,0,0,0,2.416-.752,5.4,5.4,0,0,0,1.9-2.288v-10.4h4.288v11.84a1.507,1.507,0,0,0,.24.96,1.052,1.052,0,0,0,.784.32V42a9.058,9.058,0,0,1-1.072.16q-.432.032-.784.032a3.088,3.088,0,0,1-1.872-.528,2.08,2.08,0,0,1-.848-1.456l-.1-1.344a7.146,7.146,0,0,1-2.88,2.592A8.666,8.666,0,0,1,111.168,42.32Zm24.64-13.376a8.458,8.458,0,0,0-3.488.752,4.4,4.4,0,0,0-2.208,2.16V42h-4.288V25.232h3.936v3.584a7.645,7.645,0,0,1,1.056-1.552,8.143,8.143,0,0,1,1.312-1.2,6.084,6.084,0,0,1,1.424-.784,3.93,3.93,0,0,1,1.392-.272h.528a1.71,1.71,0,0,1,.336.032Zm19.36,12.192a19.135,19.135,0,0,1-2.112.768,8.873,8.873,0,0,1-2.624.384,6.091,6.091,0,0,1-1.68-.224,3.7,3.7,0,0,1-1.376-.72,3.517,3.517,0,0,1-.944-1.28,4.633,4.633,0,0,1-.352-1.9V28.528h-2.208v-3.3h2.208v-5.44h4.288v5.44h3.52v3.3h-3.52V36.72a1.525,1.525,0,0,0,.464,1.264,1.771,1.771,0,0,0,1.136.368,3.944,3.944,0,0,0,1.312-.224q.64-.224,1.024-.384Zm9.6,1.184a9.3,9.3,0,0,1-3.648-.688,8.227,8.227,0,0,1-4.56-4.624,8.832,8.832,0,0,1-.624-3.3,9.339,9.339,0,0,1,.608-3.376,8.239,8.239,0,0,1,1.76-2.784,8.4,8.4,0,0,1,2.8-1.9,9.32,9.32,0,0,1,3.7-.7,9.089,9.089,0,0,1,3.664.7,8.426,8.426,0,0,1,2.752,1.888,8.023,8.023,0,0,1,1.728,2.752,9.165,9.165,0,0,1,.592,3.264q0,.416-.016.8a3.255,3.255,0,0,1-.08.64H160.48a4.976,4.976,0,0,0,.48,1.76,4.311,4.311,0,0,0,2.368,2.144,4.52,4.52,0,0,0,1.6.288,4.943,4.943,0,0,0,2.416-.624,3.3,3.3,0,0,0,1.552-1.648l3.68,1.024a7.481,7.481,0,0,1-2.96,3.152A9.174,9.174,0,0,1,164.768,42.32Zm4.352-10.112a4.457,4.457,0,0,0-1.392-3.024,4.369,4.369,0,0,0-5.936.016,4.395,4.395,0,0,0-.944,1.312,4.624,4.624,0,0,0-.432,1.7Zm17.024-3.264a8.458,8.458,0,0,0-3.488.752,4.4,4.4,0,0,0-2.208,2.16V42H176.16V25.232H180.1v3.584a7.645,7.645,0,0,1,1.056-1.552,8.143,8.143,0,0,1,1.312-1.2,6.084,6.084,0,0,1,1.424-.784,3.93,3.93,0,0,1,1.392-.272h.528a1.71,1.71,0,0,1,.336.032ZM192.9,42.32a6.361,6.361,0,0,1-2.272-.4A5.461,5.461,0,0,1,188.8,40.8a5.213,5.213,0,0,1-1.2-1.68,5.088,5.088,0,0,1-.432-2.112,4.652,4.652,0,0,1,.528-2.192,5.026,5.026,0,0,1,1.472-1.712,7.3,7.3,0,0,1,2.256-1.1,9.841,9.841,0,0,1,2.88-.4,12.41,12.41,0,0,1,2.192.192,8.929,8.929,0,0,1,1.9.544v-.96a3.361,3.361,0,0,0-.944-2.56,3.925,3.925,0,0,0-2.8-.9,7.416,7.416,0,0,0-2.624.48,12.186,12.186,0,0,0-2.624,1.408l-1.312-2.72a12.38,12.38,0,0,1,6.976-2.144,8.174,8.174,0,0,1,5.616,1.776,6.508,6.508,0,0,1,2,5.136v5.216a1.507,1.507,0,0,0,.24.96,1.052,1.052,0,0,0,.784.32V42a9.547,9.547,0,0,1-1.888.224,2.859,2.859,0,0,1-1.872-.544,2.339,2.339,0,0,1-.816-1.44l-.1-.928a7.421,7.421,0,0,1-2.72,2.24A7.811,7.811,0,0,1,192.9,42.32Zm1.216-3.136a5.586,5.586,0,0,0,2.064-.384,3.746,3.746,0,0,0,1.52-1.024,1.54,1.54,0,0,0,.7-1.216V34.64a10.5,10.5,0,0,0-1.664-.464A8.963,8.963,0,0,0,195.008,34a4.581,4.581,0,0,0-2.72.752,2.258,2.258,0,0,0-1.056,1.9,2.291,2.291,0,0,0,.832,1.808A3.02,3.02,0,0,0,194.112,39.184Zm22.624,3.136a6.608,6.608,0,0,1-3.456-.88,6.26,6.26,0,0,1-2.3-2.384v9.76h-4.288V25.232h3.744v2.88a6.842,6.842,0,0,1,2.4-2.32,6.673,6.673,0,0,1,3.392-.848,7.18,7.18,0,0,1,3.136.688,7.767,7.767,0,0,1,2.48,1.856,8.637,8.637,0,0,1,1.632,2.752,9.473,9.473,0,0,1,.592,3.344,10.567,10.567,0,0,1-.544,3.424A8.762,8.762,0,0,1,222,39.792a7.088,7.088,0,0,1-2.32,1.856A6.49,6.49,0,0,1,216.736,42.32Zm-1.44-3.648a3.853,3.853,0,0,0,1.776-.416,4.3,4.3,0,0,0,1.392-1.12,5.256,5.256,0,0,0,.9-1.632,5.849,5.849,0,0,0,.32-1.92,5.419,5.419,0,0,0-.352-1.968,4.885,4.885,0,0,0-.976-1.584,4.546,4.546,0,0,0-1.472-1.056,4.408,4.408,0,0,0-1.84-.384,4.026,4.026,0,0,0-1.248.208,4.4,4.4,0,0,0-1.184.592,5.184,5.184,0,0,0-.976.9,3.723,3.723,0,0,0-.656,1.12v3.936a5.7,5.7,0,0,0,1.76,2.384A4.026,4.026,0,0,0,215.3,38.672ZM226.976,42V25.232h4.288V42Zm0-19.1V18.64h4.288V22.9Zm14.5,19.424a12.971,12.971,0,0,1-4.128-.672,10.068,10.068,0,0,1-3.456-1.92l1.6-2.688a13.785,13.785,0,0,0,2.992,1.648,8.021,8.021,0,0,0,2.9.56,3.66,3.66,0,0,0,2.016-.48,1.546,1.546,0,0,0,.736-1.376,1.375,1.375,0,0,0-.864-1.312,18.657,18.657,0,0,0-2.816-.96q-1.632-.448-2.784-.864a7.145,7.145,0,0,1-1.856-.944,3.229,3.229,0,0,1-1.024-1.216,3.882,3.882,0,0,1-.32-1.648,5.217,5.217,0,0,1,.5-2.3,5.019,5.019,0,0,1,1.392-1.744,6.444,6.444,0,0,1,2.1-1.1,8.515,8.515,0,0,1,2.608-.384,11.213,11.213,0,0,1,3.536.544,8.618,8.618,0,0,1,3.024,1.76l-1.728,2.592a10.041,10.041,0,0,0-2.48-1.408,6.779,6.779,0,0,0-2.384-.448,3.45,3.45,0,0,0-1.824.448,1.558,1.558,0,0,0-.736,1.44,1.393,1.393,0,0,0,.176.736,1.55,1.55,0,0,0,.56.512,5.466,5.466,0,0,0,1.008.432q.624.208,1.552.432,1.728.448,2.96.9a8.058,8.058,0,0,1,2.016,1.024,3.646,3.646,0,0,1,1.152,1.328,4.079,4.079,0,0,1,.368,1.808,4.666,4.666,0,0,1-1.824,3.888A7.858,7.858,0,0,1,241.472,42.32Zm27.3,0a6.608,6.608,0,0,1-3.456-.88,6.26,6.26,0,0,1-2.3-2.384v9.76H258.72V25.232h3.744v2.88a6.842,6.842,0,0,1,2.4-2.32,6.673,6.673,0,0,1,3.392-.848,7.18,7.18,0,0,1,3.136.688,7.767,7.767,0,0,1,2.48,1.856A8.637,8.637,0,0,1,275.5,30.24a9.473,9.473,0,0,1,.592,3.344,10.567,10.567,0,0,1-.544,3.424,8.763,8.763,0,0,1-1.52,2.784,7.088,7.088,0,0,1-2.32,1.856A6.49,6.49,0,0,1,268.768,42.32Zm-1.44-3.648a3.854,3.854,0,0,0,1.776-.416,4.3,4.3,0,0,0,1.392-1.12,5.256,5.256,0,0,0,.9-1.632,5.848,5.848,0,0,0,.32-1.92,5.419,5.419,0,0,0-.352-1.968,4.886,4.886,0,0,0-.976-1.584,4.546,4.546,0,0,0-1.472-1.056,4.408,4.408,0,0,0-1.84-.384,4.026,4.026,0,0,0-1.248.208,4.4,4.4,0,0,0-1.184.592,5.183,5.183,0,0,0-.976.9,3.723,3.723,0,0,0-.656,1.12v3.936a5.7,5.7,0,0,0,1.76,2.384A4.026,4.026,0,0,0,267.328,38.672Zm21.664-9.728a8.458,8.458,0,0,0-3.488.752,4.4,4.4,0,0,0-2.208,2.16V42h-4.288V25.232h3.936v3.584A7.645,7.645,0,0,1,284,27.264a8.143,8.143,0,0,1,1.312-1.2,6.083,6.083,0,0,1,1.424-.784,3.93,3.93,0,0,1,1.392-.272h.528a1.71,1.71,0,0,1,.336.032ZM298.3,42.32a9.2,9.2,0,0,1-3.68-.7,8.266,8.266,0,0,1-2.768-1.9,8.4,8.4,0,0,1-1.744-2.768,9.325,9.325,0,0,1,0-6.624,8.4,8.4,0,0,1,1.744-2.768,8.266,8.266,0,0,1,2.768-1.9,9.2,9.2,0,0,1,3.68-.7,9.089,9.089,0,0,1,3.664.7,8.305,8.305,0,0,1,2.752,1.9,8.4,8.4,0,0,1,1.744,2.768,9.325,9.325,0,0,1,0,6.624,8.539,8.539,0,0,1-1.728,2.768,8.092,8.092,0,0,1-2.752,1.9A9.2,9.2,0,0,1,298.3,42.32Zm-4.384-8.672a5.842,5.842,0,0,0,.336,2.032,4.965,4.965,0,0,0,.928,1.584,4.148,4.148,0,0,0,1.392,1.04,4.241,4.241,0,0,0,3.456,0,4.148,4.148,0,0,0,1.392-1.04,4.93,4.93,0,0,0,.928-1.6,5.978,5.978,0,0,0,.336-2.048,5.88,5.88,0,0,0-.336-2.016,4.93,4.93,0,0,0-.928-1.6,4.148,4.148,0,0,0-1.392-1.04,4.085,4.085,0,0,0-1.728-.368,3.941,3.941,0,0,0-1.728.384,4.342,4.342,0,0,0-1.392,1.056,4.93,4.93,0,0,0-.928,1.6A5.879,5.879,0,0,0,293.92,33.648ZM310.72,42V29.392h-2.208V26.128h2.208V25.1a7.564,7.564,0,0,1,1.5-4.96,5.027,5.027,0,0,1,4.1-1.824,9.528,9.528,0,0,1,4.128.992l-.864,3.232a5.379,5.379,0,0,0-1.136-.432,4.664,4.664,0,0,0-1.2-.176q-2.24,0-2.24,3.008v1.184h4.1v3.264h-4.1V42Zm17.76.32a9.3,9.3,0,0,1-3.648-.688,8.227,8.227,0,0,1-4.56-4.624,8.832,8.832,0,0,1-.624-3.3,9.339,9.339,0,0,1,.608-3.376,8.239,8.239,0,0,1,1.76-2.784,8.4,8.4,0,0,1,2.8-1.9,9.32,9.32,0,0,1,3.7-.7,9.089,9.089,0,0,1,3.664.7,8.425,8.425,0,0,1,2.752,1.888,8.023,8.023,0,0,1,1.728,2.752,9.164,9.164,0,0,1,.592,3.264q0,.416-.016.8a3.256,3.256,0,0,1-.08.64h-12.96a4.975,4.975,0,0,0,.48,1.76A4.31,4.31,0,0,0,327.04,38.9a4.52,4.52,0,0,0,1.6.288,4.943,4.943,0,0,0,2.416-.624,3.3,3.3,0,0,0,1.552-1.648l3.68,1.024a7.481,7.481,0,0,1-2.96,3.152A9.174,9.174,0,0,1,328.48,42.32Zm4.352-10.112a4.457,4.457,0,0,0-1.392-3.024,4.369,4.369,0,0,0-5.936.016,4.395,4.395,0,0,0-.944,1.312,4.624,4.624,0,0,0-.432,1.7ZM346.208,42.32a12.971,12.971,0,0,1-4.128-.672,10.068,10.068,0,0,1-3.456-1.92l1.6-2.688a13.786,13.786,0,0,0,2.992,1.648,8.021,8.021,0,0,0,2.9.56,3.66,3.66,0,0,0,2.016-.48,1.546,1.546,0,0,0,.736-1.376A1.375,1.375,0,0,0,348,36.08a18.656,18.656,0,0,0-2.816-.96q-1.632-.448-2.784-.864a7.145,7.145,0,0,1-1.856-.944A3.23,3.23,0,0,1,339.52,32.1a3.882,3.882,0,0,1-.32-1.648,5.217,5.217,0,0,1,.5-2.3,5.019,5.019,0,0,1,1.392-1.744,6.444,6.444,0,0,1,2.1-1.1,8.515,8.515,0,0,1,2.608-.384,11.212,11.212,0,0,1,3.536.544,8.618,8.618,0,0,1,3.024,1.76l-1.728,2.592a10.041,10.041,0,0,0-2.48-1.408,6.779,6.779,0,0,0-2.384-.448,3.451,3.451,0,0,0-1.824.448,1.558,1.558,0,0,0-.736,1.44,1.392,1.392,0,0,0,.176.736,1.55,1.55,0,0,0,.56.512,5.466,5.466,0,0,0,1.008.432q.624.208,1.552.432,1.728.448,2.96.9a8.058,8.058,0,0,1,2.016,1.024,3.646,3.646,0,0,1,1.152,1.328,4.079,4.079,0,0,1,.368,1.808,4.666,4.666,0,0,1-1.824,3.888A7.858,7.858,0,0,1,346.208,42.32Zm9.568-.32V25.232h4.288V42Zm0-19.1V18.64h4.288V22.9Zm15.9,19.424a9.2,9.2,0,0,1-3.68-.7,8.266,8.266,0,0,1-2.768-1.9,8.4,8.4,0,0,1-1.744-2.768,9.325,9.325,0,0,1,0-6.624,8.4,8.4,0,0,1,1.744-2.768,8.266,8.266,0,0,1,2.768-1.9,9.2,9.2,0,0,1,3.68-.7,9.089,9.089,0,0,1,3.664.7,8.3,8.3,0,0,1,2.752,1.9,8.4,8.4,0,0,1,1.744,2.768,9.325,9.325,0,0,1,0,6.624,8.54,8.54,0,0,1-1.728,2.768,8.092,8.092,0,0,1-2.752,1.9A9.2,9.2,0,0,1,371.68,42.32ZM367.3,33.648a5.842,5.842,0,0,0,.336,2.032,4.965,4.965,0,0,0,.928,1.584,4.148,4.148,0,0,0,1.392,1.04,4.241,4.241,0,0,0,3.456,0,4.148,4.148,0,0,0,1.392-1.04,4.93,4.93,0,0,0,.928-1.6,5.978,5.978,0,0,0,.336-2.048,5.88,5.88,0,0,0-.336-2.016A4.93,4.93,0,0,0,374.8,30a4.148,4.148,0,0,0-1.392-1.04,4.085,4.085,0,0,0-1.728-.368,3.941,3.941,0,0,0-1.728.384,4.342,4.342,0,0,0-1.392,1.056,4.93,4.93,0,0,0-.928,1.6A5.879,5.879,0,0,0,367.3,33.648ZM398.912,42h-4.288V32.592a4.9,4.9,0,0,0-.7-2.944,2.313,2.313,0,0,0-1.952-.928,3.672,3.672,0,0,0-1.312.256,4.829,4.829,0,0,0-1.264.72,5.858,5.858,0,0,0-1.072,1.1,4.364,4.364,0,0,0-.7,1.408V42h-4.288V25.232H387.2v3.1a6.351,6.351,0,0,1,2.688-2.5,8.621,8.621,0,0,1,3.968-.9,5.054,5.054,0,0,1,2.56.576,4.159,4.159,0,0,1,1.536,1.5,6.29,6.29,0,0,1,.752,2.112,13.844,13.844,0,0,1,.208,2.4Zm8.32.32a6.361,6.361,0,0,1-2.272-.4,5.461,5.461,0,0,1-1.824-1.12,5.213,5.213,0,0,1-1.2-1.68,5.088,5.088,0,0,1-.432-2.112,4.652,4.652,0,0,1,.528-2.192A5.026,5.026,0,0,1,403.5,33.1,7.3,7.3,0,0,1,405.76,32a9.841,9.841,0,0,1,2.88-.4,12.409,12.409,0,0,1,2.192.192,8.928,8.928,0,0,1,1.9.544v-.96a3.361,3.361,0,0,0-.944-2.56,3.925,3.925,0,0,0-2.8-.9,7.416,7.416,0,0,0-2.624.48,12.185,12.185,0,0,0-2.624,1.408l-1.312-2.72a12.38,12.38,0,0,1,6.976-2.144,8.174,8.174,0,0,1,5.616,1.776,6.508,6.508,0,0,1,2,5.136v5.216a1.507,1.507,0,0,0,.24.96,1.052,1.052,0,0,0,.784.32V42a9.546,9.546,0,0,1-1.888.224,2.859,2.859,0,0,1-1.872-.544,2.339,2.339,0,0,1-.816-1.44l-.1-.928a7.421,7.421,0,0,1-2.72,2.24A7.811,7.811,0,0,1,407.232,42.32Zm1.216-3.136a5.586,5.586,0,0,0,2.064-.384,3.746,3.746,0,0,0,1.52-1.024,1.54,1.54,0,0,0,.7-1.216V34.64a10.5,10.5,0,0,0-1.664-.464A8.963,8.963,0,0,0,409.344,34a4.581,4.581,0,0,0-2.72.752,2.258,2.258,0,0,0-1.056,1.9,2.291,2.291,0,0,0,.832,1.808A3.02,3.02,0,0,0,408.448,39.184ZM420.992,18.64h4.288V36.624a2.117,2.117,0,0,0,.448,1.44,1.61,1.61,0,0,0,1.28.512,3.212,3.212,0,0,0,.848-.128,5.736,5.736,0,0,0,.88-.32l.576,3.264a8.293,8.293,0,0,1-2.016.64,11,11,0,0,1-2.08.224,4.294,4.294,0,0,1-3.12-1.072,4.064,4.064,0,0,1-1.1-3.056ZM1.92,60.64H6.208V78.624a2.117,2.117,0,0,0,.448,1.44,1.61,1.61,0,0,0,1.28.512,3.212,3.212,0,0,0,.848-.128,5.736,5.736,0,0,0,.88-.32l.576,3.264a8.293,8.293,0,0,1-2.016.64,11,11,0,0,1-2.08.224,4.294,4.294,0,0,1-3.12-1.072,4.064,4.064,0,0,1-1.1-3.056Zm15.3,23.68a4.762,4.762,0,0,1-3.936-1.664,7.713,7.713,0,0,1-1.344-4.928v-10.5h4.288V76.8q0,3.872,2.784,3.872a4.4,4.4,0,0,0,2.416-.752,5.4,5.4,0,0,0,1.9-2.288v-10.4h4.288v11.84a1.507,1.507,0,0,0,.24.96,1.052,1.052,0,0,0,.784.32V84a9.058,9.058,0,0,1-1.072.16q-.432.032-.784.032a3.088,3.088,0,0,1-1.872-.528,2.08,2.08,0,0,1-.848-1.456l-.1-1.344a7.146,7.146,0,0,1-2.88,2.592A8.666,8.666,0,0,1,17.216,84.32ZM31.84,60.64h4.288V78.624a2.117,2.117,0,0,0,.448,1.44,1.61,1.61,0,0,0,1.28.512,3.212,3.212,0,0,0,.848-.128,5.736,5.736,0,0,0,.88-.32l.576,3.264a8.293,8.293,0,0,1-2.016.64,11,11,0,0,1-2.08.224,4.294,4.294,0,0,1-3.12-1.072,4.064,4.064,0,0,1-1.1-3.056Zm15.3,23.68A4.762,4.762,0,0,1,43.2,82.656a7.713,7.713,0,0,1-1.344-4.928v-10.5h4.288V76.8q0,3.872,2.784,3.872a4.4,4.4,0,0,0,2.416-.752,5.4,5.4,0,0,0,1.9-2.288v-10.4h4.288v11.84a1.507,1.507,0,0,0,.24.96,1.052,1.052,0,0,0,.784.32V84a9.058,9.058,0,0,1-1.072.16q-.432.032-.784.032a3.088,3.088,0,0,1-1.872-.528,2.08,2.08,0,0,1-.848-1.456l-.1-1.344a7.146,7.146,0,0,1-2.88,2.592A8.666,8.666,0,0,1,47.136,84.32Zm20.992,0A12.971,12.971,0,0,1,64,83.648a10.068,10.068,0,0,1-3.456-1.92l1.6-2.688a13.785,13.785,0,0,0,2.992,1.648,8.021,8.021,0,0,0,2.9.56,3.66,3.66,0,0,0,2.016-.48,1.546,1.546,0,0,0,.736-1.376,1.375,1.375,0,0,0-.864-1.312,18.655,18.655,0,0,0-2.816-.96q-1.632-.448-2.784-.864a7.145,7.145,0,0,1-1.856-.944A3.229,3.229,0,0,1,61.44,74.1a3.882,3.882,0,0,1-.32-1.648,5.217,5.217,0,0,1,.5-2.3A5.019,5.019,0,0,1,63.008,68.4a6.444,6.444,0,0,1,2.1-1.1,8.515,8.515,0,0,1,2.608-.384,11.213,11.213,0,0,1,3.536.544,8.618,8.618,0,0,1,3.024,1.76l-1.728,2.592a10.041,10.041,0,0,0-2.48-1.408,6.779,6.779,0,0,0-2.384-.448,3.451,3.451,0,0,0-1.824.448,1.558,1.558,0,0,0-.736,1.44,1.393,1.393,0,0,0,.176.736,1.55,1.55,0,0,0,.56.512,5.466,5.466,0,0,0,1.008.432q.624.208,1.552.432,1.728.448,2.96.9a8.058,8.058,0,0,1,2.016,1.024A3.646,3.646,0,0,1,74.544,77.2a4.079,4.079,0,0,1,.368,1.808A4.666,4.666,0,0,1,73.088,82.9,7.858,7.858,0,0,1,68.128,84.32Zm14.144,0A6.361,6.361,0,0,1,80,83.92a5.462,5.462,0,0,1-1.824-1.12,5.213,5.213,0,0,1-1.2-1.68,5.087,5.087,0,0,1-.432-2.112,4.653,4.653,0,0,1,.528-2.192A5.026,5.026,0,0,1,78.544,75.1,7.3,7.3,0,0,1,80.8,74a9.841,9.841,0,0,1,2.88-.4,12.41,12.41,0,0,1,2.192.192,8.928,8.928,0,0,1,1.9.544v-.96a3.361,3.361,0,0,0-.944-2.56,3.925,3.925,0,0,0-2.8-.9,7.416,7.416,0,0,0-2.624.48,12.186,12.186,0,0,0-2.624,1.408l-1.312-2.72a12.38,12.38,0,0,1,6.976-2.144,8.174,8.174,0,0,1,5.616,1.776,6.508,6.508,0,0,1,2,5.136v5.216a1.507,1.507,0,0,0,.24.96,1.052,1.052,0,0,0,.784.32V84a9.547,9.547,0,0,1-1.888.224,2.859,2.859,0,0,1-1.872-.544,2.339,2.339,0,0,1-.816-1.44l-.1-.928a7.421,7.421,0,0,1-2.72,2.24A7.811,7.811,0,0,1,82.272,84.32Zm1.216-3.136a5.586,5.586,0,0,0,2.064-.384,3.746,3.746,0,0,0,1.52-1.024,1.54,1.54,0,0,0,.7-1.216V76.64a10.5,10.5,0,0,0-1.664-.464A8.963,8.963,0,0,0,84.384,76a4.581,4.581,0,0,0-2.72.752,2.258,2.258,0,0,0-1.056,1.9,2.291,2.291,0,0,0,.832,1.808A3.02,3.02,0,0,0,83.488,81.184ZM111.648,84H107.36V74.592a4.9,4.9,0,0,0-.7-2.944,2.313,2.313,0,0,0-1.952-.928,3.672,3.672,0,0,0-1.312.256,4.829,4.829,0,0,0-1.264.72,5.858,5.858,0,0,0-1.072,1.1,4.365,4.365,0,0,0-.7,1.408V84H96.064V67.232h3.872v3.1a6.351,6.351,0,0,1,2.688-2.5,8.621,8.621,0,0,1,3.968-.9,5.054,5.054,0,0,1,2.56.576,4.16,4.16,0,0,1,1.536,1.5,6.29,6.29,0,0,1,.752,2.112,13.845,13.845,0,0,1,.208,2.4Zm21.472.32a6.608,6.608,0,0,1-3.456-.88,6.26,6.26,0,0,1-2.3-2.384v9.76h-4.288V67.232h3.744v2.88a6.842,6.842,0,0,1,2.4-2.32,6.673,6.673,0,0,1,3.392-.848,7.18,7.18,0,0,1,3.136.688,7.766,7.766,0,0,1,2.48,1.856,8.637,8.637,0,0,1,1.632,2.752,9.473,9.473,0,0,1,.592,3.344,10.567,10.567,0,0,1-.544,3.424,8.763,8.763,0,0,1-1.52,2.784,7.088,7.088,0,0,1-2.32,1.856A6.49,6.49,0,0,1,133.12,84.32Zm-1.44-3.648a3.853,3.853,0,0,0,1.776-.416,4.3,4.3,0,0,0,1.392-1.12,5.257,5.257,0,0,0,.9-1.632,5.849,5.849,0,0,0,.32-1.92,5.419,5.419,0,0,0-.352-1.968,4.885,4.885,0,0,0-.976-1.584,4.547,4.547,0,0,0-1.472-1.056,4.408,4.408,0,0,0-1.84-.384,4.026,4.026,0,0,0-1.248.208,4.4,4.4,0,0,0-1.184.592,5.183,5.183,0,0,0-.976.9,3.723,3.723,0,0,0-.656,1.12v3.936a5.7,5.7,0,0,0,1.76,2.384A4.026,4.026,0,0,0,131.68,80.672Zm19.456,3.648a9.3,9.3,0,0,1-3.648-.688,8.227,8.227,0,0,1-4.56-4.624,8.832,8.832,0,0,1-.624-3.3,9.339,9.339,0,0,1,.608-3.376,8.239,8.239,0,0,1,1.76-2.784,8.4,8.4,0,0,1,2.8-1.9,9.32,9.32,0,0,1,3.7-.7,9.089,9.089,0,0,1,3.664.7,8.426,8.426,0,0,1,2.752,1.888,8.023,8.023,0,0,1,1.728,2.752,9.165,9.165,0,0,1,.592,3.264q0,.416-.016.8a3.255,3.255,0,0,1-.08.64h-12.96a4.976,4.976,0,0,0,.48,1.76A4.311,4.311,0,0,0,149.7,80.9a4.52,4.52,0,0,0,1.6.288,4.943,4.943,0,0,0,2.416-.624,3.3,3.3,0,0,0,1.552-1.648l3.68,1.024a7.481,7.481,0,0,1-2.96,3.152A9.174,9.174,0,0,1,151.136,84.32Zm4.352-10.112a4.457,4.457,0,0,0-1.392-3.024,4.369,4.369,0,0,0-5.936.016,4.395,4.395,0,0,0-.944,1.312,4.624,4.624,0,0,0-.432,1.7ZM178.112,84h-4.288V74.592a4.9,4.9,0,0,0-.7-2.944,2.313,2.313,0,0,0-1.952-.928,3.672,3.672,0,0,0-1.312.256,4.829,4.829,0,0,0-1.264.72,5.857,5.857,0,0,0-1.072,1.1,4.365,4.365,0,0,0-.7,1.408V84h-4.288V67.232H166.4v3.1a6.351,6.351,0,0,1,2.688-2.5,8.621,8.621,0,0,1,3.968-.9,5.054,5.054,0,0,1,2.56.576,4.16,4.16,0,0,1,1.536,1.5,6.291,6.291,0,0,1,.752,2.112,13.845,13.845,0,0,1,.208,2.4Zm10.688.32a7.571,7.571,0,0,1-5.728-2.528,8.674,8.674,0,0,1-1.648-2.768,9.656,9.656,0,0,1-.592-3.408,10.014,10.014,0,0,1,.56-3.392,8.9,8.9,0,0,1,1.552-2.752,7.154,7.154,0,0,1,2.368-1.856,6.762,6.762,0,0,1,3.008-.672,6.356,6.356,0,0,1,3.344.9,6.49,6.49,0,0,1,2.32,2.336V60.64h4.288V79.072a1.588,1.588,0,0,0,.224.96,1,1,0,0,0,.768.32V84a9.72,9.72,0,0,1-1.824.224,2.973,2.973,0,0,1-1.888-.576,2.114,2.114,0,0,1-.832-1.5l-.1-1.056a6.082,6.082,0,0,1-2.512,2.416A7.139,7.139,0,0,1,188.8,84.32Zm1.12-3.648a4.026,4.026,0,0,0,1.248-.208,4.4,4.4,0,0,0,1.184-.592,5.183,5.183,0,0,0,.976-.9,3.723,3.723,0,0,0,.656-1.12v-4a4.682,4.682,0,0,0-.72-1.3,5.33,5.33,0,0,0-1.056-1.024,5.511,5.511,0,0,0-1.248-.688,3.547,3.547,0,0,0-1.3-.256,3.854,3.854,0,0,0-1.776.416,4.216,4.216,0,0,0-1.392,1.136,5.465,5.465,0,0,0-.9,1.648,5.849,5.849,0,0,0-.32,1.92,5.292,5.292,0,0,0,.352,1.952,5.082,5.082,0,0,0,.96,1.568,4.371,4.371,0,0,0,1.456,1.056A4.486,4.486,0,0,0,189.92,80.672ZM202.5,84V67.232h4.288V84Zm0-19.1V60.64h4.288V64.9ZM217.6,84.32a7.571,7.571,0,0,1-5.728-2.528,8.674,8.674,0,0,1-1.648-2.768,9.656,9.656,0,0,1-.592-3.408,10.014,10.014,0,0,1,.56-3.392,8.9,8.9,0,0,1,1.552-2.752,7.154,7.154,0,0,1,2.368-1.856,6.762,6.762,0,0,1,3.008-.672,6.356,6.356,0,0,1,3.344.9,6.49,6.49,0,0,1,2.32,2.336V60.64h4.288V79.072a1.588,1.588,0,0,0,.224.96,1,1,0,0,0,.768.32V84a9.72,9.72,0,0,1-1.824.224,2.973,2.973,0,0,1-1.888-.576,2.114,2.114,0,0,1-.832-1.5l-.1-1.056a6.083,6.083,0,0,1-2.512,2.416A7.14,7.14,0,0,1,217.6,84.32Zm1.12-3.648a4.026,4.026,0,0,0,1.248-.208,4.4,4.4,0,0,0,1.184-.592,5.183,5.183,0,0,0,.976-.9,3.723,3.723,0,0,0,.656-1.12v-4a4.682,4.682,0,0,0-.72-1.3,5.33,5.33,0,0,0-1.056-1.024,5.511,5.511,0,0,0-1.248-.688,3.547,3.547,0,0,0-1.3-.256,3.854,3.854,0,0,0-1.776.416,4.216,4.216,0,0,0-1.392,1.136,5.465,5.465,0,0,0-.9,1.648,5.849,5.849,0,0,0-.32,1.92,5.292,5.292,0,0,0,.352,1.952,5.082,5.082,0,0,0,.96,1.568,4.371,4.371,0,0,0,1.456,1.056A4.486,4.486,0,0,0,218.72,80.672ZM231.3,84V67.232h4.288V84Zm0-19.1V60.64h4.288V64.9ZM250.912,84l-4.864-7.264-2.3,2.272V84h-4.288V60.64h4.288V74.816l6.72-7.552h4.576l-6.24,7.1L255.488,84Zm10.752.32a6.361,6.361,0,0,1-2.272-.4,5.461,5.461,0,0,1-1.824-1.12,5.213,5.213,0,0,1-1.2-1.68,5.088,5.088,0,0,1-.432-2.112,4.653,4.653,0,0,1,.528-2.192,5.026,5.026,0,0,1,1.472-1.712,7.3,7.3,0,0,1,2.256-1.1,9.841,9.841,0,0,1,2.88-.4,12.409,12.409,0,0,1,2.192.192,8.928,8.928,0,0,1,1.9.544v-.96a3.361,3.361,0,0,0-.944-2.56,3.925,3.925,0,0,0-2.8-.9,7.416,7.416,0,0,0-2.624.48,12.185,12.185,0,0,0-2.624,1.408l-1.312-2.72a12.38,12.38,0,0,1,6.976-2.144,8.174,8.174,0,0,1,5.616,1.776,6.508,6.508,0,0,1,2,5.136v5.216a1.507,1.507,0,0,0,.24.96,1.052,1.052,0,0,0,.784.32V84a9.547,9.547,0,0,1-1.888.224,2.859,2.859,0,0,1-1.872-.544,2.339,2.339,0,0,1-.816-1.44l-.1-.928a7.421,7.421,0,0,1-2.72,2.24A7.811,7.811,0,0,1,261.664,84.32Zm1.216-3.136a5.586,5.586,0,0,0,2.064-.384,3.746,3.746,0,0,0,1.52-1.024,1.54,1.54,0,0,0,.7-1.216V76.64a10.5,10.5,0,0,0-1.664-.464A8.963,8.963,0,0,0,263.776,76a4.581,4.581,0,0,0-2.72.752,2.258,2.258,0,0,0-1.056,1.9,2.291,2.291,0,0,0,.832,1.808A3.02,3.02,0,0,0,262.88,81.184ZM291.04,84h-4.288V74.592a4.9,4.9,0,0,0-.7-2.944,2.313,2.313,0,0,0-1.952-.928,3.672,3.672,0,0,0-1.312.256,4.829,4.829,0,0,0-1.264.72,5.858,5.858,0,0,0-1.072,1.1,4.364,4.364,0,0,0-.7,1.408V84h-4.288V67.232h3.872v3.1a6.351,6.351,0,0,1,2.688-2.5,8.621,8.621,0,0,1,3.968-.9,5.054,5.054,0,0,1,2.56.576,4.159,4.159,0,0,1,1.536,1.5,6.29,6.29,0,0,1,.752,2.112,13.844,13.844,0,0,1,.208,2.4Zm12.448,0V71.392H301.28V68.128h2.208V67.1a7.564,7.564,0,0,1,1.5-4.96,5.027,5.027,0,0,1,4.1-1.824,9.528,9.528,0,0,1,4.128.992l-.864,3.232a5.379,5.379,0,0,0-1.136-.432,4.664,4.664,0,0,0-1.2-.176q-2.24,0-2.24,3.008v1.184h4.1v3.264h-4.1V84Zm17.728.32a9.2,9.2,0,0,1-3.68-.7,8.266,8.266,0,0,1-2.768-1.9,8.4,8.4,0,0,1-1.744-2.768,9.325,9.325,0,0,1,0-6.624,8.4,8.4,0,0,1,1.744-2.768,8.266,8.266,0,0,1,2.768-1.9,9.2,9.2,0,0,1,3.68-.7,9.089,9.089,0,0,1,3.664.7,8.3,8.3,0,0,1,2.752,1.9,8.4,8.4,0,0,1,1.744,2.768,9.325,9.325,0,0,1,0,6.624,8.54,8.54,0,0,1-1.728,2.768,8.092,8.092,0,0,1-2.752,1.9A9.2,9.2,0,0,1,321.216,84.32Zm-4.384-8.672a5.842,5.842,0,0,0,.336,2.032,4.965,4.965,0,0,0,.928,1.584,4.148,4.148,0,0,0,1.392,1.04,4.241,4.241,0,0,0,3.456,0,4.148,4.148,0,0,0,1.392-1.04,4.93,4.93,0,0,0,.928-1.6,5.978,5.978,0,0,0,.336-2.048,5.879,5.879,0,0,0-.336-2.016,4.93,4.93,0,0,0-.928-1.6,4.148,4.148,0,0,0-1.392-1.04,4.085,4.085,0,0,0-1.728-.368,3.941,3.941,0,0,0-1.728.384,4.343,4.343,0,0,0-1.392,1.056,4.93,4.93,0,0,0-.928,1.6A5.879,5.879,0,0,0,316.832,75.648Zm26.016-4.7a8.458,8.458,0,0,0-3.488.752,4.4,4.4,0,0,0-2.208,2.16V84h-4.288V67.232H336.8v3.584a7.645,7.645,0,0,1,1.056-1.552,8.144,8.144,0,0,1,1.312-1.2,6.083,6.083,0,0,1,1.424-.784,3.93,3.93,0,0,1,1.392-.272h.528a1.71,1.71,0,0,1,.336.032ZM371.3,84h-4.288V74.592a4.99,4.99,0,0,0-.688-2.944,2.238,2.238,0,0,0-1.9-.928,3.6,3.6,0,0,0-2.4.976,5.373,5.373,0,0,0-1.6,2.544V84h-4.288V74.592a4.99,4.99,0,0,0-.688-2.944,2.238,2.238,0,0,0-1.9-.928,3.651,3.651,0,0,0-2.384.96,5.221,5.221,0,0,0-1.616,2.528V84h-4.288V67.232h3.872v3.1a6.4,6.4,0,0,1,2.544-2.512,7.6,7.6,0,0,1,3.7-.88,4.751,4.751,0,0,1,3.264,1.024A4.575,4.575,0,0,1,360.1,70.5a7.245,7.245,0,0,1,2.592-2.64,7,7,0,0,1,3.584-.912,4.982,4.982,0,0,1,2.528.576,4.16,4.16,0,0,1,1.536,1.5,6.29,6.29,0,0,1,.752,2.112,13.844,13.844,0,0,1,.208,2.4Zm8.32.32a6.361,6.361,0,0,1-2.272-.4,5.461,5.461,0,0,1-1.824-1.12,5.213,5.213,0,0,1-1.2-1.68,5.088,5.088,0,0,1-.432-2.112,4.652,4.652,0,0,1,.528-2.192,5.026,5.026,0,0,1,1.472-1.712,7.3,7.3,0,0,1,2.256-1.1,9.841,9.841,0,0,1,2.88-.4,12.409,12.409,0,0,1,2.192.192,8.928,8.928,0,0,1,1.9.544v-.96a3.361,3.361,0,0,0-.944-2.56,3.925,3.925,0,0,0-2.8-.9,7.416,7.416,0,0,0-2.624.48,12.185,12.185,0,0,0-2.624,1.408l-1.312-2.72a12.38,12.38,0,0,1,6.976-2.144,8.174,8.174,0,0,1,5.616,1.776,6.508,6.508,0,0,1,2,5.136v5.216a1.507,1.507,0,0,0,.24.96,1.052,1.052,0,0,0,.784.32V84a9.547,9.547,0,0,1-1.888.224,2.859,2.859,0,0,1-1.872-.544,2.339,2.339,0,0,1-.816-1.44l-.1-.928a7.421,7.421,0,0,1-2.72,2.24A7.811,7.811,0,0,1,379.616,84.32Zm1.216-3.136A5.586,5.586,0,0,0,382.9,80.8a3.746,3.746,0,0,0,1.52-1.024,1.54,1.54,0,0,0,.7-1.216V76.64a10.5,10.5,0,0,0-1.664-.464A8.963,8.963,0,0,0,381.728,76a4.581,4.581,0,0,0-2.72.752,2.258,2.258,0,0,0-1.056,1.9,2.291,2.291,0,0,0,.832,1.808A3.02,3.02,0,0,0,380.832,81.184ZM393.376,60.64h4.288V78.624a2.117,2.117,0,0,0,.448,1.44,1.61,1.61,0,0,0,1.28.512,3.212,3.212,0,0,0,.848-.128,5.737,5.737,0,0,0,.88-.32l.576,3.264a8.292,8.292,0,0,1-2.016.64,11,11,0,0,1-2.08.224,4.294,4.294,0,0,1-3.12-1.072,4.064,4.064,0,0,1-1.1-3.056ZM13.408,126l-4.864-7.264-2.3,2.272V126H1.952V102.64H6.24v14.176l6.72-7.552h4.576l-6.24,7.1L17.984,126Zm13.312.32a9.3,9.3,0,0,1-3.648-.688,8.227,8.227,0,0,1-4.56-4.624,8.832,8.832,0,0,1-.624-3.3,9.339,9.339,0,0,1,.608-3.376,8.239,8.239,0,0,1,1.76-2.784,8.4,8.4,0,0,1,2.8-1.9,9.32,9.32,0,0,1,3.7-.7,9.089,9.089,0,0,1,3.664.7,8.426,8.426,0,0,1,2.752,1.888,8.024,8.024,0,0,1,1.728,2.752,9.165,9.165,0,0,1,.592,3.264q0,.416-.016.8a3.254,3.254,0,0,1-.08.64H22.432a4.976,4.976,0,0,0,.48,1.76A4.311,4.311,0,0,0,25.28,122.9a4.52,4.52,0,0,0,1.6.288,4.943,4.943,0,0,0,2.416-.624,3.3,3.3,0,0,0,1.552-1.648l3.68,1.024a7.481,7.481,0,0,1-2.96,3.152A9.174,9.174,0,0,1,26.72,126.32Zm4.352-10.112a4.457,4.457,0,0,0-1.392-3.024,4.369,4.369,0,0,0-5.936.016,4.4,4.4,0,0,0-.944,1.312,4.624,4.624,0,0,0-.432,1.7ZM44.448,126.32a12.971,12.971,0,0,1-4.128-.672,10.068,10.068,0,0,1-3.456-1.92l1.6-2.688a13.785,13.785,0,0,0,2.992,1.648,8.021,8.021,0,0,0,2.9.56,3.66,3.66,0,0,0,2.016-.48,1.546,1.546,0,0,0,.736-1.376,1.375,1.375,0,0,0-.864-1.312,18.656,18.656,0,0,0-2.816-.96q-1.632-.448-2.784-.864a7.145,7.145,0,0,1-1.856-.944A3.229,3.229,0,0,1,37.76,116.1a3.882,3.882,0,0,1-.32-1.648,5.217,5.217,0,0,1,.5-2.3,5.019,5.019,0,0,1,1.392-1.744,6.444,6.444,0,0,1,2.1-1.1,8.515,8.515,0,0,1,2.608-.384,11.213,11.213,0,0,1,3.536.544,8.618,8.618,0,0,1,3.024,1.76l-1.728,2.592a10.041,10.041,0,0,0-2.48-1.408A6.779,6.779,0,0,0,44,111.952a3.45,3.45,0,0,0-1.824.448,1.558,1.558,0,0,0-.736,1.44,1.392,1.392,0,0,0,.176.736,1.55,1.55,0,0,0,.56.512,5.466,5.466,0,0,0,1.008.432q.624.208,1.552.432,1.728.448,2.96.9a8.058,8.058,0,0,1,2.016,1.024,3.646,3.646,0,0,1,1.152,1.328,4.079,4.079,0,0,1,.368,1.808,4.666,4.666,0,0,1-1.824,3.888A7.858,7.858,0,0,1,44.448,126.32Zm17.344,0a9.3,9.3,0,0,1-3.648-.688,8.227,8.227,0,0,1-4.56-4.624,8.832,8.832,0,0,1-.624-3.3,9.339,9.339,0,0,1,.608-3.376,8.239,8.239,0,0,1,1.76-2.784,8.4,8.4,0,0,1,2.8-1.9,9.32,9.32,0,0,1,3.7-.7,9.089,9.089,0,0,1,3.664.7,8.426,8.426,0,0,1,2.752,1.888,8.023,8.023,0,0,1,1.728,2.752,9.165,9.165,0,0,1,.592,3.264q0,.416-.016.8a3.255,3.255,0,0,1-.08.64H57.5a4.976,4.976,0,0,0,.48,1.76,4.311,4.311,0,0,0,2.368,2.144,4.52,4.52,0,0,0,1.6.288,4.943,4.943,0,0,0,2.416-.624,3.3,3.3,0,0,0,1.552-1.648l3.68,1.024a7.481,7.481,0,0,1-2.96,3.152A9.174,9.174,0,0,1,61.792,126.32Zm4.352-10.112a4.457,4.457,0,0,0-1.392-3.024,4.369,4.369,0,0,0-5.936.016,4.4,4.4,0,0,0-.944,1.312,4.624,4.624,0,0,0-.432,1.7ZM88.768,126H84.48v-9.408a4.748,4.748,0,0,0-.736-2.928,2.485,2.485,0,0,0-2.08-.944,3.276,3.276,0,0,0-1.216.256,4.744,4.744,0,0,0-1.216.72,6.131,6.131,0,0,0-1.056,1.1,4.365,4.365,0,0,0-.7,1.408V126H73.184V102.64h4.288v9.7a6.462,6.462,0,0,1,2.512-2.512,7.093,7.093,0,0,1,3.5-.88,5.514,5.514,0,0,1,2.656.56,4.225,4.225,0,0,1,1.6,1.488,6.123,6.123,0,0,1,.8,2.112,13.056,13.056,0,0,1,.224,2.432Zm8.32.32a6.361,6.361,0,0,1-2.272-.4,5.462,5.462,0,0,1-1.824-1.12,5.213,5.213,0,0,1-1.2-1.68,5.087,5.087,0,0,1-.432-2.112,4.653,4.653,0,0,1,.528-2.192A5.026,5.026,0,0,1,93.36,117.1a7.3,7.3,0,0,1,2.256-1.1,9.841,9.841,0,0,1,2.88-.4,12.41,12.41,0,0,1,2.192.192,8.928,8.928,0,0,1,1.9.544v-.96a3.361,3.361,0,0,0-.944-2.56,3.925,3.925,0,0,0-2.8-.9,7.416,7.416,0,0,0-2.624.48,12.186,12.186,0,0,0-2.624,1.408l-1.312-2.72a12.38,12.38,0,0,1,6.976-2.144,8.174,8.174,0,0,1,5.616,1.776,6.508,6.508,0,0,1,2,5.136v5.216a1.507,1.507,0,0,0,.24.96,1.052,1.052,0,0,0,.784.32V126a9.547,9.547,0,0,1-1.888.224,2.859,2.859,0,0,1-1.872-.544,2.339,2.339,0,0,1-.816-1.44l-.1-.928a7.421,7.421,0,0,1-2.72,2.24A7.811,7.811,0,0,1,97.088,126.32Zm1.216-3.136a5.586,5.586,0,0,0,2.064-.384,3.746,3.746,0,0,0,1.52-1.024,1.54,1.54,0,0,0,.7-1.216v-1.92a10.5,10.5,0,0,0-1.664-.464A8.963,8.963,0,0,0,99.2,118a4.581,4.581,0,0,0-2.72.752,2.258,2.258,0,0,0-1.056,1.9,2.291,2.291,0,0,0,.832,1.808A3.02,3.02,0,0,0,98.3,123.184Zm22.5,1.952a19.136,19.136,0,0,1-2.112.768,8.873,8.873,0,0,1-2.624.384,6.091,6.091,0,0,1-1.68-.224,3.7,3.7,0,0,1-1.376-.72,3.517,3.517,0,0,1-.944-1.28,4.633,4.633,0,0,1-.352-1.9v-9.632H109.5v-3.3h2.208v-5.44H116v5.44h3.52v3.3H116v8.192a1.525,1.525,0,0,0,.464,1.264,1.771,1.771,0,0,0,1.136.368,3.944,3.944,0,0,0,1.312-.224q.64-.224,1.024-.384Zm6.816,1.184a6.361,6.361,0,0,1-2.272-.4,5.462,5.462,0,0,1-1.824-1.12,5.213,5.213,0,0,1-1.2-1.68,5.087,5.087,0,0,1-.432-2.112,4.653,4.653,0,0,1,.528-2.192,5.026,5.026,0,0,1,1.472-1.712,7.3,7.3,0,0,1,2.256-1.1,9.841,9.841,0,0,1,2.88-.4,12.41,12.41,0,0,1,2.192.192,8.929,8.929,0,0,1,1.9.544v-.96a3.361,3.361,0,0,0-.944-2.56,3.925,3.925,0,0,0-2.8-.9,7.416,7.416,0,0,0-2.624.48,12.186,12.186,0,0,0-2.624,1.408l-1.312-2.72a12.38,12.38,0,0,1,6.976-2.144,8.174,8.174,0,0,1,5.616,1.776,6.508,6.508,0,0,1,2,5.136v5.216a1.507,1.507,0,0,0,.24.96,1.052,1.052,0,0,0,.784.32V126a9.547,9.547,0,0,1-1.888.224,2.859,2.859,0,0,1-1.872-.544,2.339,2.339,0,0,1-.816-1.44l-.1-.928a7.421,7.421,0,0,1-2.72,2.24A7.811,7.811,0,0,1,127.616,126.32Zm1.216-3.136a5.586,5.586,0,0,0,2.064-.384,3.746,3.746,0,0,0,1.52-1.024,1.54,1.54,0,0,0,.7-1.216v-1.92a10.5,10.5,0,0,0-1.664-.464,8.963,8.963,0,0,0-1.728-.176,4.581,4.581,0,0,0-2.72.752,2.258,2.258,0,0,0-1.056,1.9,2.291,2.291,0,0,0,.832,1.808A3.02,3.02,0,0,0,128.832,123.184ZM156.992,126H152.7v-9.408a4.9,4.9,0,0,0-.7-2.944,2.313,2.313,0,0,0-1.952-.928,3.672,3.672,0,0,0-1.312.256,4.829,4.829,0,0,0-1.264.72,5.857,5.857,0,0,0-1.072,1.1,4.365,4.365,0,0,0-.7,1.408V126h-4.288V109.232h3.872v3.1a6.351,6.351,0,0,1,2.688-2.5,8.621,8.621,0,0,1,3.968-.9,5.054,5.054,0,0,1,2.56.576,4.16,4.16,0,0,1,1.536,1.5,6.291,6.291,0,0,1,.752,2.112,13.845,13.845,0,0,1,.208,2.4Zm3.648,0v-4.608h3.52V126ZM181.5,103.28h3.9l8.64,22.72H189.5l-2.112-5.664h-7.936L177.376,126h-4.544Zm5.088,13.952-3.136-8.928-3.264,8.928ZM211.712,126h-4.288v-9.408a4.9,4.9,0,0,0-.7-2.944,2.313,2.313,0,0,0-1.952-.928,3.672,3.672,0,0,0-1.312.256,4.829,4.829,0,0,0-1.264.72,5.857,5.857,0,0,0-1.072,1.1,4.365,4.365,0,0,0-.7,1.408V126h-4.288V109.232H200v3.1a6.351,6.351,0,0,1,2.688-2.5,8.621,8.621,0,0,1,3.968-.9,5.054,5.054,0,0,1,2.56.576,4.16,4.16,0,0,1,1.536,1.5,6.291,6.291,0,0,1,.752,2.112,13.845,13.845,0,0,1,.208,2.4Zm10.688.32a7.571,7.571,0,0,1-5.728-2.528,8.674,8.674,0,0,1-1.648-2.768,9.656,9.656,0,0,1-.592-3.408,10.014,10.014,0,0,1,.56-3.392,8.9,8.9,0,0,1,1.552-2.752,7.154,7.154,0,0,1,2.368-1.856,6.762,6.762,0,0,1,3.008-.672,6.356,6.356,0,0,1,3.344.9,6.49,6.49,0,0,1,2.32,2.336V102.64h4.288v18.432a1.588,1.588,0,0,0,.224.96,1,1,0,0,0,.768.32V126a9.72,9.72,0,0,1-1.824.224,2.973,2.973,0,0,1-1.888-.576,2.114,2.114,0,0,1-.832-1.5l-.1-1.056a6.082,6.082,0,0,1-2.512,2.416A7.139,7.139,0,0,1,222.4,126.32Zm1.12-3.648a4.026,4.026,0,0,0,1.248-.208,4.4,4.4,0,0,0,1.184-.592,5.183,5.183,0,0,0,.976-.9,3.723,3.723,0,0,0,.656-1.12v-4a4.682,4.682,0,0,0-.72-1.3,5.33,5.33,0,0,0-1.056-1.024,5.511,5.511,0,0,0-1.248-.688,3.547,3.547,0,0,0-1.3-.256,3.854,3.854,0,0,0-1.776.416,4.216,4.216,0,0,0-1.392,1.136,5.465,5.465,0,0,0-.9,1.648,5.849,5.849,0,0,0-.32,1.92,5.292,5.292,0,0,0,.352,1.952,5.082,5.082,0,0,0,.96,1.568,4.371,4.371,0,0,0,1.456,1.056A4.486,4.486,0,0,0,223.52,122.672Zm17.152,3.648a6.361,6.361,0,0,1-2.272-.4,5.462,5.462,0,0,1-1.824-1.12,5.213,5.213,0,0,1-1.2-1.68,5.088,5.088,0,0,1-.432-2.112,4.652,4.652,0,0,1,.528-2.192,5.026,5.026,0,0,1,1.472-1.712A7.3,7.3,0,0,1,239.2,116a9.841,9.841,0,0,1,2.88-.4,12.41,12.41,0,0,1,2.192.192,8.929,8.929,0,0,1,1.9.544v-.96a3.361,3.361,0,0,0-.944-2.56,3.925,3.925,0,0,0-2.8-.9,7.416,7.416,0,0,0-2.624.48,12.186,12.186,0,0,0-2.624,1.408l-1.312-2.72a12.38,12.38,0,0,1,6.976-2.144,8.174,8.174,0,0,1,5.616,1.776,6.508,6.508,0,0,1,2,5.136v5.216a1.507,1.507,0,0,0,.24.96,1.052,1.052,0,0,0,.784.32V126a9.547,9.547,0,0,1-1.888.224,2.859,2.859,0,0,1-1.872-.544,2.339,2.339,0,0,1-.816-1.44l-.1-.928a7.421,7.421,0,0,1-2.72,2.24A7.811,7.811,0,0,1,240.672,126.32Zm1.216-3.136a5.586,5.586,0,0,0,2.064-.384,3.746,3.746,0,0,0,1.52-1.024,1.54,1.54,0,0,0,.7-1.216v-1.92a10.5,10.5,0,0,0-1.664-.464,8.963,8.963,0,0,0-1.728-.176,4.581,4.581,0,0,0-2.72.752,2.258,2.258,0,0,0-1.056,1.9,2.291,2.291,0,0,0,.832,1.808A3.02,3.02,0,0,0,241.888,123.184Zm29.792,3.136a6.749,6.749,0,0,1-3.424-.864,6.308,6.308,0,0,1-2.368-2.368V126h-3.744V102.64h4.288v9.536a6.468,6.468,0,0,1,2.352-2.384,6.65,6.65,0,0,1,3.408-.848,6.315,6.315,0,0,1,2.976.7,7.475,7.475,0,0,1,2.32,1.888,8.527,8.527,0,0,1,1.5,2.784,10.652,10.652,0,0,1,.528,3.36,9.525,9.525,0,0,1-.592,3.392,8.52,8.52,0,0,1-1.648,2.736,7.745,7.745,0,0,1-2.5,1.84A7.249,7.249,0,0,1,271.68,126.32Zm-1.184-3.648a4.439,4.439,0,0,0,1.888-.4,4.519,4.519,0,0,0,1.472-1.072,4.848,4.848,0,0,0,.944-1.568,5.423,5.423,0,0,0,.336-1.92,5.945,5.945,0,0,0-.32-1.952,5.082,5.082,0,0,0-.912-1.632,4.543,4.543,0,0,0-1.392-1.12,3.757,3.757,0,0,0-1.76-.416,3.922,3.922,0,0,0-2.576.944,6.264,6.264,0,0,0-1.744,2.32v4a3.63,3.63,0,0,0,.656,1.152,4.768,4.768,0,0,0,.976.88,4.687,4.687,0,0,0,1.184.576A4.026,4.026,0,0,0,270.5,122.672Zm19.712,3.648a9.3,9.3,0,0,1-3.648-.688,8.227,8.227,0,0,1-4.56-4.624,8.832,8.832,0,0,1-.624-3.3,9.339,9.339,0,0,1,.608-3.376,8.239,8.239,0,0,1,1.76-2.784,8.4,8.4,0,0,1,2.8-1.9,9.32,9.32,0,0,1,3.7-.7,9.089,9.089,0,0,1,3.664.7,8.426,8.426,0,0,1,2.752,1.888,8.023,8.023,0,0,1,1.728,2.752,9.164,9.164,0,0,1,.592,3.264q0,.416-.016.8a3.256,3.256,0,0,1-.08.64H285.92a4.975,4.975,0,0,0,.48,1.76,4.31,4.31,0,0,0,2.368,2.144,4.52,4.52,0,0,0,1.6.288,4.943,4.943,0,0,0,2.416-.624,3.3,3.3,0,0,0,1.552-1.648l3.68,1.024a7.481,7.481,0,0,1-2.96,3.152A9.174,9.174,0,0,1,290.208,126.32Zm4.352-10.112a4.457,4.457,0,0,0-1.392-3.024,4.369,4.369,0,0,0-5.936.016,4.395,4.395,0,0,0-.944,1.312,4.624,4.624,0,0,0-.432,1.7Zm16.576,10.112a6.749,6.749,0,0,1-3.424-.864,6.308,6.308,0,0,1-2.368-2.368V126H301.6V102.64h4.288v9.536a6.468,6.468,0,0,1,2.352-2.384,6.65,6.65,0,0,1,3.408-.848,6.315,6.315,0,0,1,2.976.7,7.475,7.475,0,0,1,2.32,1.888,8.527,8.527,0,0,1,1.5,2.784,10.652,10.652,0,0,1,.528,3.36,9.525,9.525,0,0,1-.592,3.392,8.52,8.52,0,0,1-1.648,2.736,7.745,7.745,0,0,1-2.5,1.84A7.249,7.249,0,0,1,311.136,126.32Zm-1.184-3.648a4.439,4.439,0,0,0,1.888-.4,4.519,4.519,0,0,0,1.472-1.072,4.848,4.848,0,0,0,.944-1.568,5.423,5.423,0,0,0,.336-1.92,5.945,5.945,0,0,0-.32-1.952,5.082,5.082,0,0,0-.912-1.632,4.543,4.543,0,0,0-1.392-1.12,3.757,3.757,0,0,0-1.76-.416,3.922,3.922,0,0,0-2.576.944,6.264,6.264,0,0,0-1.744,2.32v4a3.63,3.63,0,0,0,.656,1.152,4.768,4.768,0,0,0,.976.88,4.687,4.687,0,0,0,1.184.576A4.026,4.026,0,0,0,309.952,122.672Zm16.512,3.648a6.361,6.361,0,0,1-2.272-.4,5.461,5.461,0,0,1-1.824-1.12,5.213,5.213,0,0,1-1.2-1.68,5.088,5.088,0,0,1-.432-2.112,4.652,4.652,0,0,1,.528-2.192,5.026,5.026,0,0,1,1.472-1.712,7.3,7.3,0,0,1,2.256-1.1,9.841,9.841,0,0,1,2.88-.4,12.409,12.409,0,0,1,2.192.192,8.928,8.928,0,0,1,1.9.544v-.96a3.361,3.361,0,0,0-.944-2.56,3.925,3.925,0,0,0-2.8-.9,7.416,7.416,0,0,0-2.624.48,12.185,12.185,0,0,0-2.624,1.408l-1.312-2.72a12.38,12.38,0,0,1,6.976-2.144,8.174,8.174,0,0,1,5.616,1.776,6.508,6.508,0,0,1,2,5.136v5.216a1.507,1.507,0,0,0,.24.96,1.052,1.052,0,0,0,.784.32V126a9.547,9.547,0,0,1-1.888.224,2.859,2.859,0,0,1-1.872-.544,2.339,2.339,0,0,1-.816-1.44l-.1-.928a7.421,7.421,0,0,1-2.72,2.24A7.811,7.811,0,0,1,326.464,126.32Zm1.216-3.136a5.586,5.586,0,0,0,2.064-.384,3.746,3.746,0,0,0,1.52-1.024,1.54,1.54,0,0,0,.7-1.216v-1.92a10.5,10.5,0,0,0-1.664-.464,8.963,8.963,0,0,0-1.728-.176,4.581,4.581,0,0,0-2.72.752,2.258,2.258,0,0,0-1.056,1.9,2.291,2.291,0,0,0,.832,1.808A3.02,3.02,0,0,0,327.68,123.184Zm18.912,3.136a12.971,12.971,0,0,1-4.128-.672,10.068,10.068,0,0,1-3.456-1.92l1.6-2.688a13.786,13.786,0,0,0,2.992,1.648,8.021,8.021,0,0,0,2.9.56,3.66,3.66,0,0,0,2.016-.48,1.546,1.546,0,0,0,.736-1.376,1.375,1.375,0,0,0-.864-1.312,18.655,18.655,0,0,0-2.816-.96q-1.632-.448-2.784-.864a7.145,7.145,0,0,1-1.856-.944A3.23,3.23,0,0,1,339.9,116.1a3.882,3.882,0,0,1-.32-1.648,5.217,5.217,0,0,1,.5-2.3,5.019,5.019,0,0,1,1.392-1.744,6.444,6.444,0,0,1,2.1-1.1,8.515,8.515,0,0,1,2.608-.384,11.212,11.212,0,0,1,3.536.544,8.618,8.618,0,0,1,3.024,1.76l-1.728,2.592a10.041,10.041,0,0,0-2.48-1.408,6.779,6.779,0,0,0-2.384-.448,3.451,3.451,0,0,0-1.824.448,1.558,1.558,0,0,0-.736,1.44,1.392,1.392,0,0,0,.176.736,1.55,1.55,0,0,0,.56.512,5.467,5.467,0,0,0,1.008.432q.624.208,1.552.432,1.728.448,2.96.9a8.059,8.059,0,0,1,2.016,1.024,3.645,3.645,0,0,1,1.152,1.328,4.079,4.079,0,0,1,.368,1.808,4.666,4.666,0,0,1-1.824,3.888A7.858,7.858,0,0,1,346.592,126.32Zm43.3-.32H385.6v-9.408a4.99,4.99,0,0,0-.688-2.944,2.238,2.238,0,0,0-1.9-.928,3.6,3.6,0,0,0-2.4.976,5.373,5.373,0,0,0-1.6,2.544V126H374.72v-9.408a4.99,4.99,0,0,0-.688-2.944,2.238,2.238,0,0,0-1.9-.928,3.651,3.651,0,0,0-2.384.96,5.221,5.221,0,0,0-1.616,2.528V126H363.84V109.232h3.872v3.1a6.4,6.4,0,0,1,2.544-2.512,7.6,7.6,0,0,1,3.7-.88,4.751,4.751,0,0,1,3.264,1.024,4.575,4.575,0,0,1,1.472,2.528,7.245,7.245,0,0,1,2.592-2.64,7,7,0,0,1,3.584-.912,4.982,4.982,0,0,1,2.528.576,4.16,4.16,0,0,1,1.536,1.5,6.29,6.29,0,0,1,.752,2.112,13.844,13.844,0,0,1,.208,2.4Zm11.52.32a9.3,9.3,0,0,1-3.648-.688,8.227,8.227,0,0,1-4.56-4.624,8.832,8.832,0,0,1-.624-3.3,9.339,9.339,0,0,1,.608-3.376,8.239,8.239,0,0,1,1.76-2.784,8.4,8.4,0,0,1,2.8-1.9,9.32,9.32,0,0,1,3.7-.7,9.089,9.089,0,0,1,3.664.7,8.426,8.426,0,0,1,2.752,1.888,8.023,8.023,0,0,1,1.728,2.752,9.164,9.164,0,0,1,.592,3.264q0,.416-.016.8a3.256,3.256,0,0,1-.08.64H397.12a4.975,4.975,0,0,0,.48,1.76,4.31,4.31,0,0,0,2.368,2.144,4.52,4.52,0,0,0,1.6.288,4.943,4.943,0,0,0,2.416-.624,3.3,3.3,0,0,0,1.552-1.648l3.68,1.024a7.481,7.481,0,0,1-2.96,3.152A9.174,9.174,0,0,1,401.408,126.32Zm4.352-10.112a4.457,4.457,0,0,0-1.392-3.024,4.369,4.369,0,0,0-5.936.016,4.395,4.395,0,0,0-.944,1.312,4.624,4.624,0,0,0-.432,1.7ZM438.848,126H434.56v-9.408a4.99,4.99,0,0,0-.688-2.944,2.238,2.238,0,0,0-1.9-.928,3.6,3.6,0,0,0-2.4.976,5.373,5.373,0,0,0-1.6,2.544V126H423.68v-9.408a4.99,4.99,0,0,0-.688-2.944,2.238,2.238,0,0,0-1.9-.928,3.651,3.651,0,0,0-2.384.96,5.221,5.221,0,0,0-1.616,2.528V126H412.8V109.232h3.872v3.1a6.4,6.4,0,0,1,2.544-2.512,7.6,7.6,0,0,1,3.7-.88,4.751,4.751,0,0,1,3.264,1.024,4.575,4.575,0,0,1,1.472,2.528,7.245,7.245,0,0,1,2.592-2.64,7,7,0,0,1,3.584-.912,4.982,4.982,0,0,1,2.528.576,4.16,4.16,0,0,1,1.536,1.5,6.29,6.29,0,0,1,.752,2.112,13.844,13.844,0,0,1,.208,2.4Zm3.744,0V109.232h4.288V126Zm0-19.1V102.64h4.288V106.9Zm8.128-4.256h4.288v17.984a2.117,2.117,0,0,0,.448,1.44,1.61,1.61,0,0,0,1.28.512,3.212,3.212,0,0,0,.848-.128,5.737,5.737,0,0,0,.88-.32l.576,3.264a8.292,8.292,0,0,1-2.016.64,11,11,0,0,1-2.08.224,4.294,4.294,0,0,1-3.12-1.072,4.064,4.064,0,0,1-1.1-3.056ZM460.9,126V109.232h4.288V126Zm0-19.1V102.64h4.288V106.9ZM484.64,126h-4.288v-9.408a4.748,4.748,0,0,0-.736-2.928,2.485,2.485,0,0,0-2.08-.944,3.276,3.276,0,0,0-1.216.256,4.744,4.744,0,0,0-1.216.72,6.131,6.131,0,0,0-1.056,1.1,4.364,4.364,0,0,0-.7,1.408V126h-4.288V102.64h4.288v9.7a6.462,6.462,0,0,1,2.512-2.512,7.093,7.093,0,0,1,3.5-.88,5.514,5.514,0,0,1,2.656.56,4.225,4.225,0,0,1,1.6,1.488,6.123,6.123,0,0,1,.8,2.112,13.056,13.056,0,0,1,.224,2.432ZM12,167.136a19.135,19.135,0,0,1-2.112.768,8.873,8.873,0,0,1-2.624.384,6.09,6.09,0,0,1-1.68-.224,3.7,3.7,0,0,1-1.376-.72,3.516,3.516,0,0,1-.944-1.28,4.633,4.633,0,0,1-.352-1.9v-9.632H.7v-3.3H2.912v-5.44H7.2v5.44h3.52v3.3H7.2v8.192a1.525,1.525,0,0,0,.464,1.264,1.771,1.771,0,0,0,1.136.368,3.944,3.944,0,0,0,1.312-.224q.64-.224,1.024-.384Zm9.6,1.184a9.3,9.3,0,0,1-3.648-.688,8.227,8.227,0,0,1-4.56-4.624,8.832,8.832,0,0,1-.624-3.3,9.339,9.339,0,0,1,.608-3.376,8.239,8.239,0,0,1,1.76-2.784,8.4,8.4,0,0,1,2.8-1.9,9.32,9.32,0,0,1,3.7-.7,9.089,9.089,0,0,1,3.664.7,8.426,8.426,0,0,1,2.752,1.888,8.023,8.023,0,0,1,1.728,2.752,9.165,9.165,0,0,1,.592,3.264q0,.416-.016.8a3.255,3.255,0,0,1-.08.64H17.312a4.976,4.976,0,0,0,.48,1.76A4.311,4.311,0,0,0,20.16,164.9a4.52,4.52,0,0,0,1.6.288,4.943,4.943,0,0,0,2.416-.624,3.3,3.3,0,0,0,1.552-1.648l3.68,1.024a7.481,7.481,0,0,1-2.96,3.152A9.174,9.174,0,0,1,21.6,168.32Zm4.352-10.112a4.457,4.457,0,0,0-1.392-3.024,4.369,4.369,0,0,0-5.936.016,4.4,4.4,0,0,0-.944,1.312,4.624,4.624,0,0,0-.432,1.7Zm17.024-3.264a8.458,8.458,0,0,0-3.488.752,4.4,4.4,0,0,0-2.208,2.16V168H32.992V151.232h3.936v3.584a7.645,7.645,0,0,1,1.056-1.552,8.143,8.143,0,0,1,1.312-1.2,6.084,6.084,0,0,1,1.424-.784,3.93,3.93,0,0,1,1.392-.272h.528a1.71,1.71,0,0,1,.336.032Zm6.752,13.376a6.361,6.361,0,0,1-2.272-.4,5.461,5.461,0,0,1-1.824-1.12,5.213,5.213,0,0,1-1.2-1.68A5.088,5.088,0,0,1,44,163.008a4.653,4.653,0,0,1,.528-2.192A5.026,5.026,0,0,1,46,159.1a7.3,7.3,0,0,1,2.256-1.1,9.841,9.841,0,0,1,2.88-.4,12.41,12.41,0,0,1,2.192.192,8.929,8.929,0,0,1,1.9.544v-.96a3.361,3.361,0,0,0-.944-2.56,3.925,3.925,0,0,0-2.8-.9,7.416,7.416,0,0,0-2.624.48,12.186,12.186,0,0,0-2.624,1.408l-1.312-2.72a12.38,12.38,0,0,1,6.976-2.144,8.174,8.174,0,0,1,5.616,1.776,6.508,6.508,0,0,1,2,5.136v5.216a1.507,1.507,0,0,0,.24.96,1.052,1.052,0,0,0,.784.32V168a9.547,9.547,0,0,1-1.888.224,2.859,2.859,0,0,1-1.872-.544,2.339,2.339,0,0,1-.816-1.44l-.1-.928a7.421,7.421,0,0,1-2.72,2.24A7.811,7.811,0,0,1,49.728,168.32Zm1.216-3.136a5.586,5.586,0,0,0,2.064-.384,3.746,3.746,0,0,0,1.52-1.024,1.54,1.54,0,0,0,.7-1.216v-1.92a10.5,10.5,0,0,0-1.664-.464A8.963,8.963,0,0,0,51.84,160a4.581,4.581,0,0,0-2.72.752,2.258,2.258,0,0,0-1.056,1.9,2.291,2.291,0,0,0,.832,1.808A3.02,3.02,0,0,0,50.944,165.184Zm22.624,3.136a6.608,6.608,0,0,1-3.456-.88,6.26,6.26,0,0,1-2.3-2.384v9.76H63.52V151.232h3.744v2.88a6.842,6.842,0,0,1,2.4-2.32,6.673,6.673,0,0,1,3.392-.848,7.18,7.18,0,0,1,3.136.688,7.766,7.766,0,0,1,2.48,1.856A8.637,8.637,0,0,1,80.3,156.24a9.473,9.473,0,0,1,.592,3.344,10.567,10.567,0,0,1-.544,3.424,8.763,8.763,0,0,1-1.52,2.784,7.087,7.087,0,0,1-2.32,1.856A6.49,6.49,0,0,1,73.568,168.32Zm-1.44-3.648a3.853,3.853,0,0,0,1.776-.416,4.3,4.3,0,0,0,1.392-1.12,5.257,5.257,0,0,0,.9-1.632,5.849,5.849,0,0,0,.32-1.92,5.419,5.419,0,0,0-.352-1.968,4.885,4.885,0,0,0-.976-1.584,4.546,4.546,0,0,0-1.472-1.056,4.408,4.408,0,0,0-1.84-.384,4.026,4.026,0,0,0-1.248.208,4.4,4.4,0,0,0-1.184.592,5.183,5.183,0,0,0-.976.9,3.723,3.723,0,0,0-.656,1.12v3.936a5.7,5.7,0,0,0,1.76,2.384A4.026,4.026,0,0,0,72.128,164.672ZM83.808,168V151.232H88.1V168Zm0-19.1V144.64H88.1V148.9ZM98.3,168.32a12.971,12.971,0,0,1-4.128-.672,10.068,10.068,0,0,1-3.456-1.92l1.6-2.688a13.785,13.785,0,0,0,2.992,1.648,8.021,8.021,0,0,0,2.9.56,3.66,3.66,0,0,0,2.016-.48,1.546,1.546,0,0,0,.736-1.376,1.375,1.375,0,0,0-.864-1.312,18.657,18.657,0,0,0-2.816-.96q-1.632-.448-2.784-.864a7.145,7.145,0,0,1-1.856-.944,3.229,3.229,0,0,1-1.024-1.216,3.882,3.882,0,0,1-.32-1.648,5.217,5.217,0,0,1,.5-2.3,5.02,5.02,0,0,1,1.392-1.744,6.444,6.444,0,0,1,2.1-1.1,8.515,8.515,0,0,1,2.608-.384,11.213,11.213,0,0,1,3.536.544,8.618,8.618,0,0,1,3.024,1.76l-1.728,2.592a10.042,10.042,0,0,0-2.48-1.408,6.779,6.779,0,0,0-2.384-.448,3.45,3.45,0,0,0-1.824.448,1.558,1.558,0,0,0-.736,1.44,1.393,1.393,0,0,0,.176.736,1.55,1.55,0,0,0,.56.512,5.466,5.466,0,0,0,1.008.432q.624.208,1.552.432,1.728.448,2.96.9a8.059,8.059,0,0,1,2.016,1.024,3.646,3.646,0,0,1,1.152,1.328,4.079,4.079,0,0,1,.368,1.808,4.666,4.666,0,0,1-1.824,3.888A7.858,7.858,0,0,1,98.3,168.32Zm23.584,0a12.971,12.971,0,0,1-4.128-.672,10.068,10.068,0,0,1-3.456-1.92l1.6-2.688a13.785,13.785,0,0,0,2.992,1.648,8.021,8.021,0,0,0,2.9.56,3.66,3.66,0,0,0,2.016-.48,1.546,1.546,0,0,0,.736-1.376,1.375,1.375,0,0,0-.864-1.312,18.657,18.657,0,0,0-2.816-.96q-1.632-.448-2.784-.864a7.145,7.145,0,0,1-1.856-.944A3.229,3.229,0,0,1,115.2,158.1a3.882,3.882,0,0,1-.32-1.648,5.217,5.217,0,0,1,.5-2.3,5.02,5.02,0,0,1,1.392-1.744,6.444,6.444,0,0,1,2.1-1.1,8.515,8.515,0,0,1,2.608-.384,11.213,11.213,0,0,1,3.536.544,8.618,8.618,0,0,1,3.024,1.76l-1.728,2.592a10.042,10.042,0,0,0-2.48-1.408,6.779,6.779,0,0,0-2.384-.448,3.45,3.45,0,0,0-1.824.448,1.558,1.558,0,0,0-.736,1.44,1.393,1.393,0,0,0,.176.736,1.55,1.55,0,0,0,.56.512,5.466,5.466,0,0,0,1.008.432q.624.208,1.552.432,1.728.448,2.96.9a8.059,8.059,0,0,1,2.016,1.024A3.646,3.646,0,0,1,128.3,161.2a4.079,4.079,0,0,1,.368,1.808,4.666,4.666,0,0,1-1.824,3.888A7.858,7.858,0,0,1,121.888,168.32Zm17.344,0a9.3,9.3,0,0,1-3.648-.688,8.227,8.227,0,0,1-4.56-4.624,8.832,8.832,0,0,1-.624-3.3,9.339,9.339,0,0,1,.608-3.376,8.239,8.239,0,0,1,1.76-2.784,8.4,8.4,0,0,1,2.8-1.9,9.32,9.32,0,0,1,3.7-.7,9.089,9.089,0,0,1,3.664.7,8.426,8.426,0,0,1,2.752,1.888,8.023,8.023,0,0,1,1.728,2.752,9.165,9.165,0,0,1,.592,3.264q0,.416-.016.8a3.255,3.255,0,0,1-.08.64h-12.96a4.976,4.976,0,0,0,.48,1.76,4.311,4.311,0,0,0,2.368,2.144,4.52,4.52,0,0,0,1.6.288,4.943,4.943,0,0,0,2.416-.624,3.3,3.3,0,0,0,1.552-1.648l3.68,1.024a7.481,7.481,0,0,1-2.96,3.152A9.174,9.174,0,0,1,139.232,168.32Zm4.352-10.112a4.457,4.457,0,0,0-1.392-3.024,4.369,4.369,0,0,0-5.936.016,4.4,4.4,0,0,0-.944,1.312,4.624,4.624,0,0,0-.432,1.7ZM156.96,168.32a12.971,12.971,0,0,1-4.128-.672,10.068,10.068,0,0,1-3.456-1.92l1.6-2.688a13.785,13.785,0,0,0,2.992,1.648,8.021,8.021,0,0,0,2.9.56,3.66,3.66,0,0,0,2.016-.48,1.546,1.546,0,0,0,.736-1.376,1.375,1.375,0,0,0-.864-1.312,18.657,18.657,0,0,0-2.816-.96q-1.632-.448-2.784-.864a7.145,7.145,0,0,1-1.856-.944,3.23,3.23,0,0,1-1.024-1.216,3.882,3.882,0,0,1-.32-1.648,5.217,5.217,0,0,1,.5-2.3,5.02,5.02,0,0,1,1.392-1.744,6.444,6.444,0,0,1,2.1-1.1,8.515,8.515,0,0,1,2.608-.384,11.213,11.213,0,0,1,3.536.544,8.618,8.618,0,0,1,3.024,1.76l-1.728,2.592a10.041,10.041,0,0,0-2.48-1.408,6.779,6.779,0,0,0-2.384-.448,3.45,3.45,0,0,0-1.824.448,1.558,1.558,0,0,0-.736,1.44,1.393,1.393,0,0,0,.176.736,1.55,1.55,0,0,0,.56.512,5.466,5.466,0,0,0,1.008.432q.624.208,1.552.432,1.728.448,2.96.9a8.059,8.059,0,0,1,2.016,1.024,3.646,3.646,0,0,1,1.152,1.328,4.079,4.079,0,0,1,.368,1.808,4.666,4.666,0,0,1-1.824,3.888A7.858,7.858,0,0,1,156.96,168.32Zm14.688,0a4.762,4.762,0,0,1-3.936-1.664,7.713,7.713,0,0,1-1.344-4.928v-10.5h4.288V160.8q0,3.872,2.784,3.872a4.4,4.4,0,0,0,2.416-.752,5.4,5.4,0,0,0,1.9-2.288v-10.4h4.288v11.84a1.507,1.507,0,0,0,.24.96,1.052,1.052,0,0,0,.784.32V168a9.055,9.055,0,0,1-1.072.16q-.432.032-.784.032a3.088,3.088,0,0,1-1.872-.528,2.08,2.08,0,0,1-.848-1.456l-.1-1.344a7.146,7.146,0,0,1-2.88,2.592A8.666,8.666,0,0,1,171.648,168.32Zm19.232,0a6.361,6.361,0,0,1-2.272-.4,5.461,5.461,0,0,1-1.824-1.12,5.213,5.213,0,0,1-1.2-1.68,5.088,5.088,0,0,1-.432-2.112,4.653,4.653,0,0,1,.528-2.192,5.026,5.026,0,0,1,1.472-1.712,7.3,7.3,0,0,1,2.256-1.1,9.841,9.841,0,0,1,2.88-.4,12.411,12.411,0,0,1,2.192.192,8.929,8.929,0,0,1,1.9.544v-.96a3.361,3.361,0,0,0-.944-2.56,3.925,3.925,0,0,0-2.8-.9,7.416,7.416,0,0,0-2.624.48,12.186,12.186,0,0,0-2.624,1.408l-1.312-2.72a12.38,12.38,0,0,1,6.976-2.144,8.174,8.174,0,0,1,5.616,1.776,6.508,6.508,0,0,1,2,5.136v5.216a1.507,1.507,0,0,0,.24.96,1.052,1.052,0,0,0,.784.32V168a9.546,9.546,0,0,1-1.888.224,2.859,2.859,0,0,1-1.872-.544,2.339,2.339,0,0,1-.816-1.44l-.1-.928a7.421,7.421,0,0,1-2.72,2.24A7.811,7.811,0,0,1,190.88,168.32Zm1.216-3.136a5.586,5.586,0,0,0,2.064-.384,3.746,3.746,0,0,0,1.52-1.024,1.54,1.54,0,0,0,.7-1.216v-1.92a10.5,10.5,0,0,0-1.664-.464,8.963,8.963,0,0,0-1.728-.176,4.581,4.581,0,0,0-2.72.752,2.258,2.258,0,0,0-1.056,1.9,2.291,2.291,0,0,0,.832,1.808A3.02,3.02,0,0,0,192.1,165.184ZM204.672,168V151.232h4.288V168Zm0-19.1V144.64h4.288V148.9Zm27.3,19.1-4.864-7.264-2.3,2.272V168h-4.288V144.64H224.8v14.176l6.72-7.552H236.1l-6.24,7.1L236.544,168Zm13.312.32a9.3,9.3,0,0,1-3.648-.688,8.227,8.227,0,0,1-4.56-4.624,8.832,8.832,0,0,1-.624-3.3,9.339,9.339,0,0,1,.608-3.376,8.239,8.239,0,0,1,1.76-2.784,8.4,8.4,0,0,1,2.8-1.9,9.32,9.32,0,0,1,3.7-.7,9.089,9.089,0,0,1,3.664.7,8.426,8.426,0,0,1,2.752,1.888,8.023,8.023,0,0,1,1.728,2.752,9.165,9.165,0,0,1,.592,3.264q0,.416-.016.8a3.254,3.254,0,0,1-.08.64h-12.96a4.976,4.976,0,0,0,.48,1.76,4.311,4.311,0,0,0,2.368,2.144,4.52,4.52,0,0,0,1.6.288,4.943,4.943,0,0,0,2.416-.624,3.3,3.3,0,0,0,1.552-1.648l3.68,1.024a7.481,7.481,0,0,1-2.96,3.152A9.174,9.174,0,0,1,245.28,168.32Zm4.352-10.112a4.457,4.457,0,0,0-1.392-3.024,4.369,4.369,0,0,0-5.936.016,4.4,4.4,0,0,0-.944,1.312,4.624,4.624,0,0,0-.432,1.7Zm7.04,9.792V151.232h4.288V168Zm0-19.1V144.64h4.288V148.9ZM280.416,168h-4.288v-9.408a4.9,4.9,0,0,0-.7-2.944,2.313,2.313,0,0,0-1.952-.928,3.672,3.672,0,0,0-1.312.256,4.829,4.829,0,0,0-1.264.72,5.859,5.859,0,0,0-1.072,1.1,4.364,4.364,0,0,0-.7,1.408V168h-4.288V151.232H268.7v3.1a6.351,6.351,0,0,1,2.688-2.5,8.621,8.621,0,0,1,3.968-.9,5.054,5.054,0,0,1,2.56.576,4.159,4.159,0,0,1,1.536,1.5,6.29,6.29,0,0,1,.752,2.112,13.844,13.844,0,0,1,.208,2.4Zm10.3.1a6.907,6.907,0,0,1-3.072-.672,7.42,7.42,0,0,1-2.384-1.84,8.371,8.371,0,0,1-1.552-2.7,10.171,10.171,0,0,1,.032-6.656,8.8,8.8,0,0,1,1.6-2.752,7.3,7.3,0,0,1,2.464-1.856,7.4,7.4,0,0,1,3.168-.672,6.544,6.544,0,0,1,3.424.88,7.42,7.42,0,0,1,2.432,2.352v-2.944h3.744V167.2a7.619,7.619,0,0,1-.7,3.328,7.3,7.3,0,0,1-1.936,2.5,8.641,8.641,0,0,1-2.944,1.568,12.252,12.252,0,0,1-3.728.544,10.507,10.507,0,0,1-4.624-.912,9.372,9.372,0,0,1-3.216-2.576l2.336-2.272a6.64,6.64,0,0,0,2.416,1.856,7.281,7.281,0,0,0,3.088.672,6.626,6.626,0,0,0,1.9-.272,4.6,4.6,0,0,0,1.616-.848,3.942,3.942,0,0,0,1.1-1.472,5.146,5.146,0,0,0,.4-2.112v-2.112a5.66,5.66,0,0,1-2.336,2.224A6.89,6.89,0,0,1,290.72,168.1Zm1.44-3.424a4.039,4.039,0,0,0,1.344-.224,4.8,4.8,0,0,0,2.144-1.5,4.048,4.048,0,0,0,.64-1.088v-4a5.2,5.2,0,0,0-1.808-2.368,4.317,4.317,0,0,0-2.576-.9,3.71,3.71,0,0,0-1.792.432,4.462,4.462,0,0,0-1.376,1.152,5.206,5.206,0,0,0-.88,1.648,6.128,6.128,0,0,0-.3,1.92,5.2,5.2,0,0,0,.352,1.92,4.926,4.926,0,0,0,.976,1.568,4.6,4.6,0,0,0,1.456,1.056A4.3,4.3,0,0,0,292.16,164.672ZM304.448,168V151.232h4.288V168Zm0-19.1V144.64h4.288V148.9ZM328.192,168H323.9v-9.408a4.9,4.9,0,0,0-.7-2.944,2.313,2.313,0,0,0-1.952-.928,3.672,3.672,0,0,0-1.312.256,4.829,4.829,0,0,0-1.264.72,5.859,5.859,0,0,0-1.072,1.1,4.364,4.364,0,0,0-.7,1.408V168h-4.288V151.232h3.872v3.1a6.351,6.351,0,0,1,2.688-2.5,8.621,8.621,0,0,1,3.968-.9,5.054,5.054,0,0,1,2.56.576,4.159,4.159,0,0,1,1.536,1.5,6.29,6.29,0,0,1,.752,2.112,13.844,13.844,0,0,1,.208,2.4Zm8.32.32a6.361,6.361,0,0,1-2.272-.4,5.461,5.461,0,0,1-1.824-1.12,5.213,5.213,0,0,1-1.2-1.68,5.088,5.088,0,0,1-.432-2.112,4.652,4.652,0,0,1,.528-2.192,5.026,5.026,0,0,1,1.472-1.712,7.3,7.3,0,0,1,2.256-1.1,9.841,9.841,0,0,1,2.88-.4,12.41,12.41,0,0,1,2.192.192,8.929,8.929,0,0,1,1.9.544v-.96a3.361,3.361,0,0,0-.944-2.56,3.925,3.925,0,0,0-2.8-.9,7.416,7.416,0,0,0-2.624.48,12.186,12.186,0,0,0-2.624,1.408l-1.312-2.72a12.38,12.38,0,0,1,6.976-2.144,8.174,8.174,0,0,1,5.616,1.776,6.508,6.508,0,0,1,2,5.136v5.216a1.507,1.507,0,0,0,.24.96,1.052,1.052,0,0,0,.784.32V168a9.546,9.546,0,0,1-1.888.224,2.859,2.859,0,0,1-1.872-.544,2.338,2.338,0,0,1-.816-1.44l-.1-.928a7.421,7.421,0,0,1-2.72,2.24A7.811,7.811,0,0,1,336.512,168.32Zm1.216-3.136a5.586,5.586,0,0,0,2.064-.384,3.746,3.746,0,0,0,1.52-1.024,1.54,1.54,0,0,0,.7-1.216v-1.92a10.5,10.5,0,0,0-1.664-.464,8.964,8.964,0,0,0-1.728-.176,4.581,4.581,0,0,0-2.72.752,2.258,2.258,0,0,0-1.056,1.9,2.291,2.291,0,0,0,.832,1.808A3.02,3.02,0,0,0,337.728,165.184ZM365.888,168H361.6v-9.408a4.9,4.9,0,0,0-.7-2.944,2.313,2.313,0,0,0-1.952-.928,3.672,3.672,0,0,0-1.312.256,4.829,4.829,0,0,0-1.264.72,5.859,5.859,0,0,0-1.072,1.1,4.364,4.364,0,0,0-.7,1.408V168H350.3V151.232h3.872v3.1a6.351,6.351,0,0,1,2.688-2.5,8.621,8.621,0,0,1,3.968-.9,5.054,5.054,0,0,1,2.56.576,4.159,4.159,0,0,1,1.536,1.5,6.29,6.29,0,0,1,.752,2.112,13.844,13.844,0,0,1,.208,2.4Zm3.648,0v-4.608h3.52V168Z" transform="translate(-14118 -14905)" fill="#fff"/>
    </g>
  </g>
</svg>
