<svg xmlns="http://www.w3.org/2000/svg" width="30.852" height="31" viewBox="0 0 30.852 31">
  <path id="whatsapp" d="M26.606,4.505A15.365,15.365,0,0,0,2.429,23.04L.25,31l8.143-2.136a15.345,15.345,0,0,0,7.341,1.87h.006A15.368,15.368,0,0,0,26.606,4.505ZM15.74,28.139h-.005a12.752,12.752,0,0,1-6.5-1.78l-.466-.277L3.938,27.351l1.29-4.711-.3-.483A12.768,12.768,0,1,1,15.74,28.139Zm7-9.562c-.384-.192-2.271-1.12-2.623-1.249s-.608-.192-.863.192-.991,1.249-1.215,1.5-.448.288-.832.1a10.484,10.484,0,0,1-3.087-1.905,11.578,11.578,0,0,1-2.135-2.659c-.224-.384,0-.572.168-.783a10.857,10.857,0,0,0,.959-1.313.706.706,0,0,0-.032-.672c-.1-.192-.863-2.081-1.183-2.85-.312-.748-.628-.647-.864-.659s-.48-.013-.736-.013a1.41,1.41,0,0,0-1.024.48,4.3,4.3,0,0,0-1.343,3.2A7.467,7.467,0,0,0,9.5,15.919c.192.256,2.707,4.133,6.557,5.8a21.969,21.969,0,0,0,2.188.809,5.262,5.262,0,0,0,2.418.152,3.954,3.954,0,0,0,2.591-1.825,3.207,3.207,0,0,0,.224-1.825c-.1-.16-.352-.256-.735-.448Zm0,0" transform="translate(-0.25)" fill="#fff" fill-rule="evenodd"/>
</svg>
