<svg id="Group_4161" data-name="Group 4161" xmlns="http://www.w3.org/2000/svg" width="24" height="24" viewBox="0 0 24 24">
  <rect id="Rectangle_1514" data-name="Rectangle 1514" width="24" height="24" fill="none"/>
  <path id="Path_564" data-name="Path 564" d="M16,17v4a1,1,0,0,1-1,1H9a1,1,0,0,1-1-1V17H5a2,2,0,0,1-2-2V8A2,2,0,0,1,5,6H19a2,2,0,0,1,2,2v7a2,2,0,0,1-2,2Zm1.5-6A1.5,1.5,0,1,0,16,9.5,1.5,1.5,0,0,0,17.5,11ZM10,14v6h4V14Z" fill="#fff" fill-rule="evenodd"/>
  <rect id="Rectangle_1515" data-name="Rectangle 1515" width="8" height="2" rx="1" transform="translate(8 2)" fill="#fff" opacity="0.3"/>
</svg>
