<svg id="Group_4359" data-name="Group 4359" xmlns="http://www.w3.org/2000/svg" width="24" height="24" viewBox="0 0 24 24">
  <rect id="Rectangle_1644" data-name="Rectangle 1644" width="24" height="24" fill="none"/>
  <path id="Path_612" data-name="Path 612" d="M2,13a1.075,1.075,0,0,1,1-1,1.075,1.075,0,0,1,1,1v5a2,2,0,0,0,2,2H18a2,2,0,0,0,2-2V13a1,1,0,0,1,2,0v5a4,4,0,0,1-4,4H6a4,4,0,0,1-4-4Z" fill="#fff" opacity="0.3"/>
  <rect id="Rectangle_1645" data-name="Rectangle 1645" width="2" height="14" rx="1" transform="translate(13 15) rotate(180)" fill="#fff" opacity="0.3"/>
  <path id="Path_613" data-name="Path 613" d="M7.707,15.707a1,1,0,0,1-1.414-1.414l5-5a1,1,0,0,1,1.376-.036l5,4.5a1,1,0,0,1-1.338,1.487l-4.295-3.865Z" transform="translate(24 25) rotate(180)" fill="#fff"/>
</svg>
