<svg xmlns="http://www.w3.org/2000/svg" width="24" height="24" viewBox="0 0 24 24">
  <g id="Layer_2" data-name="Layer 2" opacity="0.4">
    <g id="clock">
      <rect id="Rectangle_1544" data-name="Rectangle 1544" width="24" height="24" transform="translate(24 24) rotate(180)" fill="#777" opacity="0"/>
      <path id="Path_575" data-name="Path 575" d="M12,2A10,10,0,1,0,22,12,10,10,0,0,0,12,2Zm0,18a8,8,0,1,1,8-8A8,8,0,0,1,12,20Z" fill="#777"/>
      <path id="Path_576" data-name="Path 576" d="M16,11H13V8a1,1,0,0,0-2,0v4a1,1,0,0,0,1,1h4a1,1,0,0,0,0-2Z" fill="#777"/>
    </g>
  </g>
</svg>
