<svg xmlns="http://www.w3.org/2000/svg" width="14.671" height="18.339" viewBox="0 0 14.671 18.339">
  <g id="Group_4985" data-name="Group 4985" transform="translate(-3.592 -1.393)">
    <path id="Path_355" data-name="Path 355" d="M11.335,2A7.336,7.336,0,0,0,4,9.262c0,5.024,6.464,10.618,6.739,10.856a.917.917,0,0,0,1.192,0c.321-.238,6.739-5.832,6.739-10.856A7.335,7.335,0,0,0,11.335,2Zm0,16.184c-1.531-1.458-5.5-5.5-5.5-8.922a5.5,5.5,0,0,1,11,0C16.837,12.655,12.867,16.726,11.335,18.184Z" transform="translate(-0.408 -0.607)" fill="#f64e60"/>
    <path id="Path_356" data-name="Path 356" d="M11.709,6a3.209,3.209,0,1,0,3.209,3.209A3.209,3.209,0,0,0,11.709,6Zm0,4.585a1.375,1.375,0,1,1,1.375-1.375A1.375,1.375,0,0,1,11.709,10.585Z" transform="translate(-0.782 -0.939)" fill="#f64e60"/>
  </g>
</svg>
