<svg xmlns="http://www.w3.org/2000/svg" width="20" height="20" viewBox="0 0 20 20">
  <g id="Group_4809" data-name="Group 4809" transform="translate(-801 -326)">
    <path id="Path_281" data-name="Path 281" d="M2.105,0H17.895A2.105,2.105,0,0,1,20,2.105V17.895A2.105,2.105,0,0,1,17.895,20H2.105A2.105,2.105,0,0,1,0,17.895V2.105A2.105,2.105,0,0,1,2.105,0Z" transform="translate(801 326)" fill="#8ccc54"/>
    <path id="Path_266" data-name="Path 266" d="M9.3,16.859a.905.905,0,0,1-.661-.29l-4.4-4.68a.906.906,0,1,1,1.322-1.24L9.3,14.623,16.913,6.3a.9.9,0,1,1,1.34,1.213L9.974,16.56a.905.905,0,0,1-.661.3Z" transform="translate(800.006 324.039)" fill="#fff"/>
  </g>
</svg>
