<svg xmlns="http://www.w3.org/2000/svg" width="20" height="14" viewBox="0 0 20 14">
  <g id="Group_4349" data-name="Group 4349" transform="translate(-300 -827)">
    <path id="Path_548" data-name="Path 548" d="M19,5H5A3,3,0,0,0,2,8v8a3,3,0,0,0,3,3H19a3,3,0,0,0,3-3V8A3,3,0,0,0,19,5ZM4,8A1,1,0,0,1,5,7H19a1,1,0,0,1,1,1V9H4Zm16,8a1,1,0,0,1-1,1H5a1,1,0,0,1-1-1V11H20Z" transform="translate(298 822)" fill="#6866e9"/>
    <path id="Path_549" data-name="Path 549" d="M7,15h4a1,1,0,0,0,0-2H7a1,1,0,0,0,0,2Z" transform="translate(298 822)" fill="#6866e9"/>
    <path id="Path_550" data-name="Path 550" d="M15,15h2a1,1,0,0,0,0-2H15a1,1,0,0,0,0,2Z" transform="translate(298 822)" fill="#6866e9"/>
  </g>
</svg>
