<svg id="Layer_2" data-name="Layer 2" xmlns="http://www.w3.org/2000/svg" width="24" height="24" viewBox="0 0 24 24">
  <g id="person-done">
    <rect id="Rectangle_1473" data-name="Rectangle 1473" width="24" height="24" fill="#8ccc54" opacity="0"/>
    <path id="Path_540" data-name="Path 540" d="M21.66,4.25a1,1,0,0,0-1.41.09L18.38,6.49l-.63-.71a1,1,0,0,0-1.5,1.33l1.39,1.56a1,1,0,0,0,1.49-.01l2.61-3a1,1,0,0,0-.08-1.41Z" fill="#8ccc54"/>
    <path id="Path_541" data-name="Path 541" d="M10,11A4,4,0,1,0,6,7,4,4,0,0,0,10,11Zm0-6A2,2,0,1,1,8,7,2,2,0,0,1,10,5Z" fill="#8ccc54"/>
    <path id="Path_542" data-name="Path 542" d="M10,13a7,7,0,0,0-7,7,1,1,0,0,0,2,0,5,5,0,0,1,10,0,1,1,0,0,0,2,0A7,7,0,0,0,10,13Z" fill="#8ccc54"/>
  </g>
</svg>
