<svg xmlns="http://www.w3.org/2000/svg" width="20" height="20" viewBox="0 0 20 20">
  <g id="Group_4985" data-name="Group 4985" transform="translate(-657 -720)">
    <path id="Path_748" data-name="Path 748" d="M2.105,0H17.895A2.105,2.105,0,0,1,20,2.105V17.895A2.105,2.105,0,0,1,17.895,20H2.105A2.105,2.105,0,0,1,0,17.895V2.105A2.105,2.105,0,0,1,2.105,0Z" transform="translate(657 720)" fill="#fff"/>
    <path id="Path_266" data-name="Path 266" d="M9.3,16.859a.905.905,0,0,1-.661-.29l-4.4-4.68a.906.906,0,1,1,1.322-1.24L9.3,14.623,16.913,6.3a.9.9,0,1,1,1.34,1.213L9.974,16.56a.905.905,0,0,1-.661.3Z" transform="translate(656.006 718.039)" fill="#ddd"/>
  </g>
</svg>
