<svg xmlns="http://www.w3.org/2000/svg" width="177.124" height="55.465" viewBox="0 0 177.124 55.465">
  <g id="bca-bank-central-asia" transform="translate(-4.444 -2.993)">
    <path id="Path_565" data-name="Path 565" d="M201.535,37.146c11.172-5.067,12.824-21.6-3.067-21.6h-18.4l-6.8,13.335h3.2L168.33,60.75h21.337c15.566.133,22.567-18.2,11.869-23.6Zm-11.869,12h-5.334l2-7.2H191.4C197.4,43.147,193.667,49.415,189.667,49.148Zm3.2-15.336h-4.534l1.333-6.268h5.067C199.63,28.745,195.4,34.079,192.867,33.812Z" transform="translate(-101.22 -7.751)" fill="#005faf" stroke="#005faf" stroke-width="1"/>
    <path id="Path_566" data-name="Path 566" d="M309.369,32.2l6.986-12.333L306.9,14.933l-1.233,1.522c-5.1-2.7-31.8,1.028-33.477,27.371,1,22.1,25.762,18.124,28.191,16.721l6.81-14.079c-6.67,4.394-20.328,6.5-20.906-6.7,1.2-10.883,14.047-14.947,23.081-7.576Zm34.863-17.031H322.754L315.927,28.1h3.507L303.248,60.373h15.667l3.217-7.784h9.617l.24,7.784h14.422ZM326.489,42.11l5.26-12.555.24,12.555Z" transform="translate(-165.367 -7.375)" fill="#005faf" stroke="#005faf" stroke-width="1"/>
    <g id="Group_4164" data-name="Group 4164" transform="translate(4.444 2.993)">
      <path id="Path_567" data-name="Path 567" d="M73.769,125.692l.834-.242-.915-1.265Zm-13.7-.215-.161,1.13c.415-.041.926.317,1.13-.484-.015-.625-.491-.659-.969-.646Zm6.647-.027c-.069-.308-.326-.535-.969-.323l.215,1.157C66.493,126.166,66.764,125.854,66.718,125.45ZM51.7,124.5l-.257,1.028c.413.017.9.352,1.171-.257C52.634,124.892,52.65,124.512,51.7,124.5Zm14.451,2.642.189,1.184c.441.011.843-.254.727-.807C66.956,126.99,66.509,127.074,66.153,127.145Z" transform="translate(-33.473 -77.844)" fill="#005faf"/>
      <path id="Path_568" data-name="Path 568" d="M54.625,8.4A50.52,50.52,0,0,0,9.779,8.084c-7,12.325-7.224,29.57,0,44.844a49.714,49.714,0,0,0,44.951.317c6.321-12.968,7.365-28.572-.105-44.844ZM30.558,45.2l-.845.01a10.575,10.575,0,0,0-1.964-5.8c-5.488-6.882-16.707-1.7-13.824-13.4C15.424,20.04,32.521,16.513,30.558,45.2ZM13.945,33.652c1.2,2.439,8.706,2.839,11.313,4.706,4.134,2.962,3.541,6.857,3.541,6.857h-.975c-1.92-5.884-7.307-1.225-11.622-2.81C13.493,41.441,11.526,37.265,13.945,33.652Zm13.679,19.18.4-3.2.727.054-.323,3.525c-.326,1.553-2.641,1.345-2.933-.135l.377-3.66.861.135-.377,3.067C26.407,53.632,27.426,53.571,27.624,52.832Zm-3.866.874-.828-.2c.1-.684.909-2.077-.7-2.077l-.447,1.82-.914-.171.971-4.369c2.373.258,2.581.919,2.628,1.628-.094.55-.24.934-.714,1.028C24.313,51.868,23.765,52.922,23.758,53.707ZM18.5,48.813a5.458,5.458,0,0,0-.751,2.2c-.07.894.788.705,1,.6.172-.084.3-.8.3-.8l-.6-.2.2-.6L20,50.466,19.35,52.72,18.8,52.57l.05-.351c-.675.307-1.909.077-2.054-.7a5.725,5.725,0,0,1,1-3.406c.688-.861,2.364-.02,2.4.5a3.168,3.168,0,0,1-.164,1.1l-.631-.119s.039-.187.094-.483c.058-.313-.757-.626-1-.3Zm12.3,3.669-.161,1.938-.673-.027.242-4.6c1.68.035,2.643.267,2.61,1.453-.1,1.621-1.412,1.256-2.019,1.237Zm1.674-7.267H31.349c-.1-3.985.666-11.274-1.427-16.639-1.586-4.067-5.6-5.9-6.491-9.181-1.409-5.2.989-10.825,9.044-11.259,6.983.717,9.129,6.108,7.938,11.128-2.048,5.019-4.1,4.3-6.646,9.3C31.683,33.919,32.476,40.94,32.475,45.214Zm12.48,7.375-.78.269-.242-4.629.915-.242,2.261,3.821-.619.4-.754-1.076-.861.323Zm-9.1-7.375h-.9c.742-10.235,13.6-8.011,14.778-11.563,2.033,3.521,1.3,6.49-.821,8.012-5.275,3.783-10.332-2.8-13.058,3.551Zm4.772,5.169.4,2.126c.251.49.422.4.807.35.447-.323.354-.639.269-1.05l.78-.107c.2,1.54-.529,1.7-1.076,1.8-1.174.084-1.4-.145-1.722-1.668-.185-1.3-.5-2.682.592-2.933,1.8-.275,1.694.535,1.857,1.1l-.78.135c-.125-.488-.3-.681-.7-.645a.719.719,0,0,0-.431.887ZM38.981,52.59c.037.67-.19,1.115-.619,1.265l-1.83.377-.727-4.44c.375-.061,2.217-.736,2.664.485a1.21,1.21,0,0,1-.269,1.345,1.209,1.209,0,0,1,.781.969Zm-4.7-22.282c4.077-11.479,13.406-9.45,15.475-4.288,2.835,10.36-6.293,7.519-12.139,11.767a9.155,9.155,0,0,0-3.39,7.469h-1C33.165,38.524,33.057,33.756,34.282,30.307Z" transform="translate(-4.444 -2.993)" fill="#005faf"/>
    </g>
  </g>
</svg>
