<svg xmlns="http://www.w3.org/2000/svg" width="160.636" height="109.051" viewBox="0 0 160.636 109.051">
  <g id="Group_4986" data-name="Group 4986" transform="translate(15535 6366)">
    <g id="Group_4985" data-name="Group 4985" transform="translate(-34 23)">
      <path id="Path_760" data-name="Path 760" d="M17.536,0H13.248V-9.408a4.748,4.748,0,0,0-.736-2.928,2.485,2.485,0,0,0-2.08-.944,3.276,3.276,0,0,0-1.216.256A4.744,4.744,0,0,0,8-12.3a6.13,6.13,0,0,0-1.056,1.1,4.365,4.365,0,0,0-.7,1.408V0H1.952V-23.36H6.24v9.7a6.462,6.462,0,0,1,2.512-2.512,7.093,7.093,0,0,1,3.5-.88,5.514,5.514,0,0,1,2.656.56,4.225,4.225,0,0,1,1.6,1.488,6.123,6.123,0,0,1,.8,2.112,13.055,13.055,0,0,1,.224,2.432Zm8.32.32a6.361,6.361,0,0,1-2.272-.4A5.461,5.461,0,0,1,21.76-1.2a5.213,5.213,0,0,1-1.2-1.68,5.088,5.088,0,0,1-.432-2.112,4.653,4.653,0,0,1,.528-2.192A5.026,5.026,0,0,1,22.128-8.9,7.3,7.3,0,0,1,24.384-10a9.841,9.841,0,0,1,2.88-.4,12.41,12.41,0,0,1,2.192.192,8.929,8.929,0,0,1,1.9.544v-.96a3.361,3.361,0,0,0-.944-2.56,3.925,3.925,0,0,0-2.8-.9,7.416,7.416,0,0,0-2.624.48,12.185,12.185,0,0,0-2.624,1.408l-1.312-2.72a12.38,12.38,0,0,1,6.976-2.144,8.174,8.174,0,0,1,5.616,1.776,6.508,6.508,0,0,1,2,5.136v5.216a1.507,1.507,0,0,0,.24.96,1.052,1.052,0,0,0,.784.32V0a9.547,9.547,0,0,1-1.888.224A2.859,2.859,0,0,1,32.912-.32,2.339,2.339,0,0,1,32.1-1.76L32-2.688a7.421,7.421,0,0,1-2.72,2.24A7.811,7.811,0,0,1,25.856.32Zm1.216-3.136A5.586,5.586,0,0,0,29.136-3.2a3.746,3.746,0,0,0,1.52-1.024,1.54,1.54,0,0,0,.7-1.216V-7.36A10.5,10.5,0,0,0,29.7-7.824,8.963,8.963,0,0,0,27.968-8a4.581,4.581,0,0,0-2.72.752,2.258,2.258,0,0,0-1.056,1.9,2.291,2.291,0,0,0,.832,1.808A3.02,3.02,0,0,0,27.072-2.816ZM39.616-23.36H43.9V-5.376a2.117,2.117,0,0,0,.448,1.44,1.61,1.61,0,0,0,1.28.512,3.212,3.212,0,0,0,.848-.128,5.736,5.736,0,0,0,.88-.32l.576,3.264a8.293,8.293,0,0,1-2.016.64,11,11,0,0,1-2.08.224A4.294,4.294,0,0,1,40.72-.816a4.064,4.064,0,0,1-1.1-3.056ZM57.536.32a9.2,9.2,0,0,1-3.68-.7,8.265,8.265,0,0,1-2.768-1.9,8.4,8.4,0,0,1-1.744-2.768,9.037,9.037,0,0,1-.608-3.3,9.124,9.124,0,0,1,.608-3.328,8.4,8.4,0,0,1,1.744-2.768,8.265,8.265,0,0,1,2.768-1.9,9.2,9.2,0,0,1,3.68-.7,9.089,9.089,0,0,1,3.664.7,8.305,8.305,0,0,1,2.752,1.9A8.4,8.4,0,0,1,65.7-11.68,9.124,9.124,0,0,1,66.3-8.352a9.037,9.037,0,0,1-.608,3.3,8.54,8.54,0,0,1-1.728,2.768,8.092,8.092,0,0,1-2.752,1.9A9.2,9.2,0,0,1,57.536.32ZM53.152-8.352a5.842,5.842,0,0,0,.336,2.032,4.965,4.965,0,0,0,.928,1.584A4.148,4.148,0,0,0,55.808-3.7a4.085,4.085,0,0,0,1.728.368A4.085,4.085,0,0,0,59.264-3.7a4.148,4.148,0,0,0,1.392-1.04,4.93,4.93,0,0,0,.928-1.6,5.978,5.978,0,0,0,.336-2.048,5.88,5.88,0,0,0-.336-2.016,4.93,4.93,0,0,0-.928-1.6,4.148,4.148,0,0,0-1.392-1.04,4.085,4.085,0,0,0-1.728-.368,3.941,3.941,0,0,0-1.728.384,4.342,4.342,0,0,0-1.392,1.056,4.93,4.93,0,0,0-.928,1.6A5.879,5.879,0,0,0,53.152-8.352ZM79.008-.864A19.135,19.135,0,0,1,76.9-.1a8.873,8.873,0,0,1-2.624.384,6.091,6.091,0,0,1-1.68-.224,3.7,3.7,0,0,1-1.376-.72,3.517,3.517,0,0,1-.944-1.28,4.633,4.633,0,0,1-.352-1.9v-9.632H67.712v-3.3H69.92v-5.44h4.288v5.44h3.52v3.3h-3.52V-5.28a1.525,1.525,0,0,0,.464,1.264,1.771,1.771,0,0,0,1.136.368,3.944,3.944,0,0,0,1.312-.224q.64-.224,1.024-.384ZM88.608.32A9.3,9.3,0,0,1,84.96-.368,8.365,8.365,0,0,1,82.176-2.24,8.31,8.31,0,0,1,80.4-4.992a8.832,8.832,0,0,1-.624-3.3,9.34,9.34,0,0,1,.608-3.376,8.239,8.239,0,0,1,1.76-2.784,8.4,8.4,0,0,1,2.8-1.9,9.32,9.32,0,0,1,3.7-.7,9.089,9.089,0,0,1,3.664.7,8.426,8.426,0,0,1,2.752,1.888,8.023,8.023,0,0,1,1.728,2.752,9.165,9.165,0,0,1,.592,3.264q0,.416-.016.8a3.254,3.254,0,0,1-.08.64H84.32a4.976,4.976,0,0,0,.48,1.76,4.35,4.35,0,0,0,.992,1.312,4.32,4.32,0,0,0,1.376.832,4.52,4.52,0,0,0,1.6.288,4.943,4.943,0,0,0,2.416-.624,3.3,3.3,0,0,0,1.552-1.648l3.68,1.024a7.481,7.481,0,0,1-2.96,3.152A9.174,9.174,0,0,1,88.608.32ZM92.96-9.792a4.457,4.457,0,0,0-1.392-3.024,4.254,4.254,0,0,0-2.992-1.136,4.271,4.271,0,0,0-1.616.3,4.217,4.217,0,0,0-1.328.848,4.4,4.4,0,0,0-.944,1.312,4.624,4.624,0,0,0-.432,1.7Zm17.024-3.264a8.458,8.458,0,0,0-3.488.752,4.4,4.4,0,0,0-2.208,2.16V0H100V-16.768h3.936v3.584a7.645,7.645,0,0,1,1.056-1.552,8.143,8.143,0,0,1,1.312-1.2,6.083,6.083,0,0,1,1.424-.784,3.93,3.93,0,0,1,1.392-.272h.528a1.71,1.71,0,0,1,.336.032ZM116.736.32a6.361,6.361,0,0,1-2.272-.4A5.461,5.461,0,0,1,112.64-1.2a5.213,5.213,0,0,1-1.2-1.68,5.087,5.087,0,0,1-.432-2.112,4.653,4.653,0,0,1,.528-2.192A5.026,5.026,0,0,1,113.008-8.9a7.3,7.3,0,0,1,2.256-1.1,9.841,9.841,0,0,1,2.88-.4,12.41,12.41,0,0,1,2.192.192,8.928,8.928,0,0,1,1.9.544v-.96a3.361,3.361,0,0,0-.944-2.56,3.925,3.925,0,0,0-2.8-.9,7.416,7.416,0,0,0-2.624.48,12.186,12.186,0,0,0-2.624,1.408l-1.312-2.72a12.38,12.38,0,0,1,6.976-2.144,8.174,8.174,0,0,1,5.616,1.776,6.508,6.508,0,0,1,2,5.136v5.216a1.507,1.507,0,0,0,.24.96,1.052,1.052,0,0,0,.784.32V0a9.547,9.547,0,0,1-1.888.224,2.859,2.859,0,0,1-1.872-.544,2.339,2.339,0,0,1-.816-1.44l-.1-.928a7.421,7.421,0,0,1-2.72,2.24A7.811,7.811,0,0,1,116.736.32Zm1.216-3.136a5.586,5.586,0,0,0,2.064-.384,3.746,3.746,0,0,0,1.52-1.024,1.54,1.54,0,0,0,.7-1.216V-7.36a10.5,10.5,0,0,0-1.664-.464A8.963,8.963,0,0,0,118.848-8a4.581,4.581,0,0,0-2.72.752,2.258,2.258,0,0,0-1.056,1.9,2.291,2.291,0,0,0,.832,1.808A3.02,3.02,0,0,0,117.952-2.816ZM140.576.32a6.608,6.608,0,0,1-3.456-.88,6.26,6.26,0,0,1-2.3-2.384v9.76h-4.288V-16.768h3.744v2.88a6.842,6.842,0,0,1,2.4-2.32,6.673,6.673,0,0,1,3.392-.848,7.18,7.18,0,0,1,3.136.688,7.767,7.767,0,0,1,2.48,1.856,8.637,8.637,0,0,1,1.632,2.752,9.473,9.473,0,0,1,.592,3.344,10.567,10.567,0,0,1-.544,3.424,8.762,8.762,0,0,1-1.52,2.784,7.088,7.088,0,0,1-2.32,1.856A6.49,6.49,0,0,1,140.576.32Zm-1.44-3.648a3.853,3.853,0,0,0,1.776-.416,4.3,4.3,0,0,0,1.392-1.12,5.257,5.257,0,0,0,.9-1.632,5.849,5.849,0,0,0,.32-1.92,5.419,5.419,0,0,0-.352-1.968,4.885,4.885,0,0,0-.976-1.584,4.546,4.546,0,0,0-1.472-1.056,4.408,4.408,0,0,0-1.84-.384,4.026,4.026,0,0,0-1.248.208,4.4,4.4,0,0,0-1.184.592,5.184,5.184,0,0,0-.976.9,3.723,3.723,0,0,0-.656,1.12v3.936a5.7,5.7,0,0,0,1.76,2.384A4.026,4.026,0,0,0,139.136-3.328ZM150.816,0V-16.768H155.1V0Zm0-19.1V-23.36H155.1V-19.1Z" transform="translate(-15498.952 -6304)" fill="#0cb754"/>
      <path id="Path_759" data-name="Path 759" d="M2.2,0H3.71L5.278-7.868H7.812l.252-1.288H1.484L1.232-7.868H3.766ZM7.6,0H9.114l1.372-6.874h-1.5Zm2.492-8.092a.98.98,0,0,0,1.008-.98.8.8,0,0,0-.854-.784,1,1,0,0,0-1.008.98A.8.8,0,0,0,10.094-8.092ZM11.116,0h1.512l.924-4.69c.728-.742,1.26-1.064,1.736-1.064a.77.77,0,0,1,.868.882,4.657,4.657,0,0,1-.112.728L15.2,0h1.5l.868-4.34a4.019,4.019,0,0,0,.112-.966c0-1.106-.476-1.736-1.624-1.736a3.835,3.835,0,0,0-2.366,1.134h-.056l.07-.966H12.488Zm9.618,3.052A3.3,3.3,0,0,0,24.164.1l1.4-6.972H24.346l-.294.8H24.01a1.728,1.728,0,0,0-1.554-.966c-1.862,0-3.612,1.988-3.612,4.48,0,1.61.84,2.422,2,2.422a3.184,3.184,0,0,0,2.24-1.078l-.35,1.33a1.977,1.977,0,0,1-1.96,1.736,2.957,2.957,0,0,1-1.848-.756L18.256,2.1A4.031,4.031,0,0,0,20.734,3.052Zm.658-4.438c-.6,0-.994-.448-.994-1.372C20.4-4.4,21.42-5.81,22.54-5.81a1.345,1.345,0,0,1,1.148.84L23.17-2.422A2.305,2.305,0,0,1,21.392-1.386Zm6.874,4.438A3.3,3.3,0,0,0,31.7.1l1.4-6.972H31.878l-.294.8h-.042a1.728,1.728,0,0,0-1.554-.966c-1.862,0-3.612,1.988-3.612,4.48,0,1.61.84,2.422,2,2.422a3.184,3.184,0,0,0,2.24-1.078l-.35,1.33a1.977,1.977,0,0,1-1.96,1.736,2.957,2.957,0,0,1-1.848-.756L25.788,2.1A4.031,4.031,0,0,0,28.266,3.052Zm.658-4.438c-.6,0-.994-.448-.994-1.372,0-1.638,1.022-3.052,2.142-3.052a1.345,1.345,0,0,1,1.148.84L30.7-2.422A2.305,2.305,0,0,1,28.924-1.386ZM35.868.168a3.326,3.326,0,0,0,2.268-1.12h.042L38.108,0H39.34l1.372-6.874h-1.2l-.294.8h-.028A1.786,1.786,0,0,0,37.6-7.042c-1.9,0-3.7,2.072-3.7,4.7C33.908-.728,34.664.168,35.868.168Zm.616-1.232c-.63,0-1.022-.476-1.022-1.484,0-1.764,1.064-3.262,2.226-3.262a1.347,1.347,0,0,1,1.162.84l-.56,2.744A2.257,2.257,0,0,1,36.484-1.064ZM42.756.168a2.25,2.25,0,0,0,.854-.14l.028-1.12a.624.624,0,0,1-.252.042c-.14,0-.238-.084-.238-.294a1.182,1.182,0,0,1,.028-.266l1.652-8.274h-1.5l-1.638,8.2a3.076,3.076,0,0,0-.1.728A1.018,1.018,0,0,0,42.756.168ZM47.74,0h1.512l.336-1.694,1.344-1.358L52.108,0H53.62L51.982-3.934l2.772-2.94h-1.68L50.036-3.668H49.98l1.246-6.216h-1.5Zm8.428.168a2.25,2.25,0,0,0,.854-.14l.028-1.12a.624.624,0,0,1-.252.042c-.14,0-.238-.084-.238-.294a1.182,1.182,0,0,1,.028-.266L58.24-9.884h-1.5L55.1-1.68a3.076,3.076,0,0,0-.1.728A1.018,1.018,0,0,0,56.168.168ZM58.422,0h1.512l1.372-6.874h-1.5Zm2.492-8.092a.98.98,0,0,0,1.008-.98.8.8,0,0,0-.854-.784,1,1,0,0,0-1.008.98A.8.8,0,0,0,60.914-8.092ZM61.936,0h1.512l.336-1.694,1.344-1.358L66.3,0h1.512L66.178-3.934l2.772-2.94H67.27L64.232-3.668h-.056l1.246-6.216h-1.5ZM68.53,2.464a3.294,3.294,0,0,0,2.66-3.22c0-.714-.35-1.148-.98-1.148A1.075,1.075,0,0,0,69.118-.812a.84.84,0,0,0,.924.84A2.336,2.336,0,0,1,68.348,1.61Zm9.408-2.3A3.707,3.707,0,0,0,79.394-.14L79.114-1.2a1.431,1.431,0,0,1-.644.182c-.574,0-.8-.252-.8-.756a2.9,2.9,0,0,1,.042-.49l.7-3.416h1.68l.238-1.19H78.68l.364-1.848h-1.26l-.546,1.848-1.05.07-.224,1.12h.966l-.7,3.36a5.325,5.325,0,0,0-.084.812A1.566,1.566,0,0,0,77.938.168Zm4.41,0a3.326,3.326,0,0,0,2.268-1.12h.042L84.588,0H85.82l1.372-6.874h-1.2l-.294.8h-.028a1.786,1.786,0,0,0-1.582-.966c-1.9,0-3.7,2.072-3.7,4.7C80.388-.728,81.144.168,82.348.168Zm.616-1.232c-.63,0-1.022-.476-1.022-1.484,0-1.764,1.064-3.262,2.226-3.262a1.347,1.347,0,0,1,1.162.84l-.56,2.744A2.257,2.257,0,0,1,82.964-1.064ZM87.822,0h1.512l.924-4.69c.728-.742,1.26-1.064,1.736-1.064a.77.77,0,0,1,.868.882,4.657,4.657,0,0,1-.112.728L91.91,0h1.5l.868-4.34a4.019,4.019,0,0,0,.112-.966c0-1.106-.476-1.736-1.624-1.736A3.835,3.835,0,0,0,90.4-5.908h-.056l.07-.966H89.194Zm9.114-.728h.028a1.813,1.813,0,0,0,1.526.9c1.89,0,3.682-2.072,3.682-4.7,0-1.61-.742-2.506-1.96-2.506a3.566,3.566,0,0,0-2.226,1.008h-.042l.028-.84H96.754l-1.932,9.59h1.5L96.712.672ZM99.6-5.81c.63,0,1.036.476,1.036,1.47,0,1.778-1.078,3.276-2.24,3.276a1.272,1.272,0,0,1-1.134-.812l.588-2.94A2.365,2.365,0,0,1,99.6-5.81Zm5.53,5.978a3.326,3.326,0,0,0,2.268-1.12h.042l-.07.952H108.6l1.372-6.874h-1.2l-.294.8h-.028a1.786,1.786,0,0,0-1.582-.966c-1.9,0-3.7,2.072-3.7,4.7C103.166-.728,103.922.168,105.126.168Zm.616-1.232c-.63,0-1.022-.476-1.022-1.484,0-1.764,1.064-3.262,2.226-3.262a1.347,1.347,0,0,1,1.162.84l-.56,2.744A2.257,2.257,0,0,1,105.742-1.064ZM113.33,0h1.512l.336-1.694,1.344-1.358L117.7,0h1.512l-1.638-3.934,2.772-2.94h-1.68l-3.038,3.206h-.056l1.246-6.216h-1.5Zm6.86-2.744A2.639,2.639,0,0,0,122.948.168,4.116,4.116,0,0,0,125.3-.56l-.56-.966a2.553,2.553,0,0,1-1.4.546c-1.036,0-1.848-.616-1.694-2.072h4.186a4.2,4.2,0,0,0,.294-1.456c0-1.428-.588-2.534-2.184-2.534A4.109,4.109,0,0,0,120.19-2.744ZM121.772-4A2.288,2.288,0,0,1,123.76-5.88c.84,0,1.12.6,1.12,1.274a2.632,2.632,0,0,1-.07.6ZM129.6,0h1.512l.336-1.694,1.344-1.358L133.966,0h1.512L133.84-3.934l2.772-2.94h-1.68l-3.038,3.206h-.056l1.246-6.216h-1.5Zm8.428.168a2.25,2.25,0,0,0,.854-.14l.028-1.12a.624.624,0,0,1-.252.042c-.14,0-.238-.084-.238-.294a1.182,1.182,0,0,1,.028-.266L140.1-9.884h-1.5l-1.638,8.2a3.075,3.075,0,0,0-.1.728A1.018,1.018,0,0,0,138.026.168ZM140.28,0h1.512l1.372-6.874h-1.5Zm2.492-8.092a.98.98,0,0,0,1.008-.98.8.8,0,0,0-.854-.784,1,1,0,0,0-1.008.98A.8.8,0,0,0,142.772-8.092ZM143.794,0h1.512l.924-4.69c.728-.742,1.26-1.064,1.736-1.064a.77.77,0,0,1,.868.882,4.657,4.657,0,0,1-.112.728L147.882,0h1.5l.868-4.34a4.019,4.019,0,0,0,.112-.966c0-1.106-.476-1.736-1.624-1.736a3.835,3.835,0,0,0-2.366,1.134h-.056l.07-.966h-1.218Zm7.546,0h1.512l1.372-6.874h-1.5Zm2.492-8.092a.98.98,0,0,0,1.008-.98.8.8,0,0,0-.854-.784,1,1,0,0,0-1.008.98A.8.8,0,0,0,153.832-8.092ZM154.854,0h1.512l.336-1.694,1.344-1.358L159.222,0h1.512L159.1-3.934l2.772-2.94h-1.68L157.15-3.668h-.056l1.246-6.216h-1.5Z" transform="translate(-15502.232 -6283)" fill="#38383f" opacity="0.8"/>
    </g>
    <path id="halo_terapi_logo" d="M67.138,37.872H65.764c-.3,0-.248.245-.248.427,0,1.506.047,3.018-.021,4.524a3.2,3.2,0,0,0,.791,2.284,18.486,18.486,0,0,0,6.188,4.93.617.617,0,0,0,.493,0,17.4,17.4,0,0,0,6.65-5.616,1.688,1.688,0,0,0,.264-.87c.024-1.7.013-3.4,0-5.1,0-.575,0-.575-.6-.575h-.164c-.264,0-.578-.066-.76.058-.132.095-.079.448-.121.683A1.269,1.269,0,0,1,76.829,39.7a1.216,1.216,0,0,1-1.142-1.266V34.567a1.293,1.293,0,0,1,1.253-1.319,1.335,1.335,0,0,1,1.319,1.232c.069.82.069.82.881.82h2.018a1.271,1.271,0,0,1,1.3,1.266v7.816a1.765,1.765,0,0,1-.293.836,18.268,18.268,0,0,1-5.782,5.8c-.662.435-1.358.823-2.055,1.208a.528.528,0,0,0-.327.554c.018.2-.016.412,0,.615a7.851,7.851,0,0,1-1.443,5.036A9.529,9.529,0,0,1,65.729,63.1a9.185,9.185,0,0,1-3.862-.264l-.464-.124c-.021.2-.055.382-.055.562V80.1a2.053,2.053,0,0,1-1.606,2.226,2.393,2.393,0,0,1-.567.053c-8.626,0-17.252-.013-25.877.018a2.258,2.258,0,0,1-2.3-2.29q.029-23.477.013-46.954a2.147,2.147,0,0,1,2.316-2.3H59a2.238,2.238,0,0,1,2.345,2.321c-.029,8.721,0,17.441-.021,26.16a.739.739,0,0,0,.549.818,6.874,6.874,0,0,0,8.576-3.231,16.619,16.619,0,0,0,.752-1.6,7.025,7.025,0,0,0,.19-2.762c0-.121-.232-.28-.388-.361a19.961,19.961,0,0,1-5.394-4,30.236,30.236,0,0,1-2.35-3,1.96,1.96,0,0,1-.3-1.076c-.026-2.453-.016-4.909-.013-7.362A1.324,1.324,0,0,1,64.384,35.3h2.11c.765,0,.638.018.654-.63a1.319,1.319,0,0,1,.791-1.293,1.253,1.253,0,0,1,1.786,1.116c.016,1.287,0,2.577,0,3.867A1.226,1.226,0,0,1,68.5,39.7a1.293,1.293,0,0,1-1.337-1.319A3.529,3.529,0,0,1,67.138,37.872ZM58.776,57.935l.111-.061c0-.095.018-.187.018-.282V35.962c0-.4-.153-.48-.512-.48H33.956c-.377,0-.5.111-.493.485.018,1.274,0,2.546,0,3.82V74.525c0,1.055.024,1.055,1.079,1.042H58.433c.332,0,.462-.092.462-.443q0-6.643-.018-13.287a.791.791,0,0,0-.264-.528,12.274,12.274,0,0,1-3.957-5.249,4.687,4.687,0,0,1-.367-1.873c.021-2.6,0-5.21,0-7.816a1.6,1.6,0,0,0-.142-.667A3.055,3.055,0,0,0,49.4,44.691a2.638,2.638,0,0,0-1.026,2.16c.04,5.223.018,10.449.016,15.671a2.778,2.778,0,0,1-.045.572,5.235,5.235,0,0,1-3.833,4.247,5.394,5.394,0,0,1-5.656-1.469,4.893,4.893,0,0,1-1.525-3.751c.063-1.781,0-3.564,0-5.347a.652.652,0,0,0-.348-.63,3.2,3.2,0,0,1,2.269-5.9,3.12,3.12,0,0,1,2.522,2.793,3.047,3.047,0,0,1-1.54,3.089.63.63,0,0,0-.332.628c0,1.783.032,3.566,0,5.35a2.679,2.679,0,0,0,1.6,2.559,2.968,2.968,0,0,0,4.331-2.638c-.1-5.276-.029-10.551-.04-15.827a3.184,3.184,0,0,1,.359-1.5,5.738,5.738,0,0,1,8.89-1.994,4.746,4.746,0,0,1,1.846,3.859c-.058,2.234.037,4.484-.034,6.705a5.489,5.489,0,0,0,.828,3.113c.121.2.235.4.372.594.24.322.488.636.731.958ZM46.183,77.943H44.458A1.1,1.1,0,0,0,43.3,78.98a1.068,1.068,0,0,0,1.092,1.14c1.192.029,2.374.026,3.577,0A1.113,1.113,0,0,0,49.1,79a1.132,1.132,0,0,0-1.187-1.055C47.333,77.936,46.758,77.943,46.183,77.943Z" transform="translate(-15509.999 -6396.85)" fill="#0cb754"/>
  </g>
</svg>
