<svg xmlns="http://www.w3.org/2000/svg" width="24" height="24" viewBox="0 0 24 24">
  <g id="Layer_2" data-name="Layer 2" opacity="0.4">
    <g id="percent">
      <rect id="Rectangle_1713" data-name="Rectangle 1713" width="24" height="24" fill="#777" opacity="0"/>
      <path id="Path_680" data-name="Path 680" d="M8,11A3.5,3.5,0,1,0,4.5,7.5,3.5,3.5,0,0,0,8,11ZM8,6A1.5,1.5,0,1,1,6.5,7.5,1.5,1.5,0,0,1,8,6Z" fill="#777"/>
      <path id="Path_681" data-name="Path 681" d="M16,14a3.5,3.5,0,1,0,3.5,3.5A3.5,3.5,0,0,0,16,14Zm0,5a1.5,1.5,0,1,1,1.5-1.5A1.5,1.5,0,0,1,16,19Z" fill="#777"/>
      <path id="Path_682" data-name="Path 682" d="M19.74,4.26a.89.89,0,0,0-1.26,0L4.26,18.48a.91.91,0,0,0-.26.63.89.89,0,0,0,1.52.63L19.74,5.52a.89.89,0,0,0,0-1.26Z" fill="#777"/>
    </g>
  </g>
</svg>
