<svg id="Group_76" data-name="Group 76" xmlns="http://www.w3.org/2000/svg" width="69" height="69" viewBox="0 0 69 69">
  <rect id="Rectangle_64" data-name="Rectangle 64" width="69" height="69" fill="none"/>
  <circle id="Ellipse_5" data-name="Ellipse 5" cx="28.5" cy="28.5" r="28.5" transform="translate(6 6)" fill="#ffae25" opacity="0.3"/>
  <path id="Path_6" data-name="Path 6" d="M20.745,34.9a2.875,2.875,0,1,1-2.875,2.875A2.875,2.875,0,0,1,20.745,34.9Zm-4.051-3.254v-4.77h3.623a7.792,7.792,0,0,0,7.909-8.09,7.792,7.792,0,0,0-7.909-8.09c-4.649,0-7.849,3.5-7.849,8.09H7.336A12.746,12.746,0,0,1,20.317,5.922a12.861,12.861,0,1,1,0,25.72Z" transform="translate(13.755 11.104)" fill="#ffae25" fill-rule="evenodd"/>
</svg>
