<svg xmlns="http://www.w3.org/2000/svg" width="18" height="18" viewBox="0 0 18 18">
  <g id="copy" transform="translate(-3 -3)">
    <path id="Path_619" data-name="Path 619" d="M18,21H12a3,3,0,0,1-3-3V12a3,3,0,0,1,3-3h6a3,3,0,0,1,3,3v6A3,3,0,0,1,18,21ZM12,11a1,1,0,0,0-1,1v6a1,1,0,0,0,1,1h6a1,1,0,0,0,1-1V12a1,1,0,0,0-1-1Z" fill="#8ccc54"/>
    <path id="Path_620" data-name="Path 620" d="M9.73,15H5.67A2.68,2.68,0,0,1,3,12.33V5.67A2.68,2.68,0,0,1,5.67,3h6.66A2.68,2.68,0,0,1,15,5.67V9.4H13V5.67A.67.67,0,0,0,12.33,5H5.67A.67.67,0,0,0,5,5.67v6.66a.67.67,0,0,0,.67.67H9.73Z" fill="#8ccc54"/>
  </g>
</svg>
