<svg xmlns="http://www.w3.org/2000/svg" width="18.07" height="18.029" viewBox="0 0 18.07 18.029">
  <path id="Path_304" data-name="Path 304" d="M3.742,13.43a1,1,0,0,1,1.252.65A7.151,7.151,0,0,0,11.876,19a7.106,7.106,0,0,0,7.192-7,7.106,7.106,0,0,0-7.192-7A7.279,7.279,0,0,0,7.218,6.67l2.174-.36a1,1,0,1,1,.321,1.98l-4.247.7h-.17a1,1,0,0,1-.341-.06.331.331,0,0,1-.1-.06.782.782,0,0,1-.2-.11l-.09-.11c0-.05-.09-.09-.13-.15s0-.1-.05-.14a1.339,1.339,0,0,1-.07-.18l-.751-4a1.019,1.019,0,0,1,2-.38l.27,1.45A9.234,9.234,0,0,1,11.876,3a9.108,9.108,0,0,1,9.195,9,9.108,9.108,0,0,1-9.195,9,9.134,9.134,0,0,1-8.834-6.32,1,1,0,0,1,.7-1.25Z" transform="translate(-3 -2.972)" fill="#8a949b"/>
</svg>
